<svg width="188" height="29" viewBox="0 0 188 29" fill="none" xmlns="http://www.w3.org/2000/svg">
<path fill-rule="evenodd" clip-rule="evenodd" d="M0 27.3525H10.4093C14.412 27.3525 17.2778 26.3657 19.0068 24.3921C20.7357 22.3953 21.6002 19.4116 21.6002 15.4412C21.6002 11.4475 20.7002 8.54515 18.9002 6.73407C17.1002 4.923 14.1514 4.01746 10.054 4.01746H0V27.3525ZM9.84068 14.5006C11.0012 14.5006 11.5815 13.746 11.5815 12.2368C11.5815 10.7043 10.9302 9.93808 9.62752 9.93808H7.81567V14.5006H9.84068Z" fill="#143642"/>
<path fill-rule="evenodd" clip-rule="evenodd" d="M31.0858 21.3272H33.5122L34.8622 27.3525H43.2465L40.9017 19.4116C42.6544 18.0185 43.5307 15.7082 43.5307 12.4808C43.5307 9.23011 42.7373 7.0127 41.1504 5.82853C39.5636 4.62115 36.9346 4.01746 33.2635 4.01746H23.245V27.3525H31.0858V21.3272ZM32.9331 14.5006C34.0936 14.5006 34.6739 13.746 34.6739 12.2368C34.6739 10.7043 34.0226 9.93808 32.7199 9.93808H30.9081V14.5006H32.9331Z" fill="#143642"/>
<path fill-rule="evenodd" clip-rule="evenodd" d="M103.763 21.3272H106.189L107.539 27.3525H115.923L113.579 19.4116C115.331 18.0185 116.208 15.7082 116.208 12.4808C116.208 9.23011 115.414 7.0127 113.827 5.82853C112.241 4.62115 109.612 4.01746 105.94 4.01746H95.9219V27.3525H103.763V21.3272ZM105.61 14.5006C106.77 14.5006 107.351 13.746 107.351 12.2368C107.351 10.7043 106.699 9.93808 105.397 9.93808H103.585V14.5006H105.61Z" fill="#143642"/>
<path d="M45.1716 27.3525V4.01746H53.4138V27.3525H45.1716Z" fill="#143642"/>
<path d="M75.8663 4.01746L71.2123 27.3525H59.0622L54.2306 4.01746H62.9702L64.8175 19.2027H65.457L67.1268 4.01746H75.8663Z" fill="#143642"/>
<path d="M76.7777 27.3525V4.01746H94.6121V10.4607H85.0199V12.4459H92.4805V18.8195H85.0199V20.9092H94.6121V27.3525H76.7777Z" fill="#143642"/>
<path d="M118.486 14.1686C118.758 9.42354 118.043 5.79287 116.458 2.93382C116.073 1.96734 116.71 0.568604 118.486 0.765705C119.068 0.955686 119.579 1.65227 119.828 2.19469C120.13 2.85169 120.297 3.47585 120.331 4.06715C120.432 5.44686 120.984 7.35415 121.151 10.1464C121.319 12.9058 121.035 15.1541 121.136 16.5338C121.504 16.3367 121.789 16.1889 121.991 16.0903C122.225 15.9589 122.443 15.844 122.644 15.7454C122.846 15.614 123.03 15.4826 123.198 15.3512C123.365 15.2198 123.516 15.1213 123.65 15.0556C123.784 14.957 123.969 14.7928 124.203 14.5628C124.472 14.3328 124.673 14.1522 124.807 14.0208C124.975 13.8894 125.26 13.6266 125.662 13.2324C126.098 12.8382 126.45 12.5097 126.718 12.2469C126.986 11.9841 127.288 11.6227 127.623 11.1628C127.992 10.7029 128.327 10.3251 128.629 10.0295C128.931 9.73382 129.283 9.53672 129.685 9.43817C129.92 9.37247 130.138 9.53672 130.339 9.93092C130.574 10.2923 130.708 10.7029 130.741 11.1628C130.775 11.3599 130.725 11.5734 130.59 11.8034C130.49 12.0333 130.373 12.2469 130.238 12.444C130.138 12.6082 129.953 12.8217 129.685 13.0845C129.417 13.3145 129.199 13.4952 129.031 13.6266C128.897 13.758 128.696 13.9386 128.428 14.1686C128.16 14.3986 127.992 14.5464 127.925 14.6121C127.053 15.3019 126.282 15.9425 125.612 16.5338C124.975 17.0923 124.539 17.47 124.304 17.6671C124.103 17.8643 123.784 18.1271 123.348 18.4556C122.946 18.7512 122.343 19.1618 121.538 19.6874C122.879 20.443 125.243 21.4121 128.629 22.5947C132.049 23.7444 134.312 24.5821 135.418 25.1077C135.921 25.3377 136.29 25.6826 136.525 26.1425C136.76 26.5696 136.776 26.9638 136.575 27.3251C136.374 27.6536 135.972 27.8507 135.368 27.9164C135.167 27.9493 134.899 27.9164 134.563 27.8179C134.262 27.7193 133.876 27.5715 133.407 27.3744C132.971 27.1773 132.719 27.0623 132.652 27.0295C132.485 26.9638 131.982 26.7667 131.144 26.4382C130.305 26.1097 129.534 25.8304 128.83 25.6005C128.16 25.3377 127.389 25.0585 126.517 24.7628C125.679 24.4343 124.908 24.1879 124.203 24.0237C123.533 23.8594 122.996 23.7773 122.594 23.7773C121.991 23.7773 121.37 23.843 120.733 23.9744C121.136 25.4855 121.002 26.7667 120.331 27.8179C119.023 27.2923 118.517 26.2903 118.216 25.1077C117.897 23.0593 117.329 21.9254 117.155 20.595C117.037 19.6949 117.497 18.7739 117.599 18.4182C117.833 17.5969 117.942 17.3666 118.043 16.6768C118.177 15.9869 118.437 15.0379 118.486 14.1686Z" fill="#FF4000"/>
<path d="M139.539 2.53962C140.008 2.40822 140.41 2.62174 140.745 3.1802C141.114 3.7058 141.265 4.2971 141.198 4.95411C141.165 5.61111 140.863 5.97247 140.293 6.03817C139.589 6.13672 139.103 5.85749 138.834 5.20049C138.6 4.54348 138.566 3.78793 138.734 2.93382C138.767 2.73672 138.834 2.62174 138.935 2.58889C139.069 2.55604 139.27 2.53962 139.539 2.53962ZM139.136 28.2121C138.868 27.7193 138.7 27.1444 138.633 26.4874C138.6 25.8304 138.633 25.2391 138.734 24.7135C138.834 24.1551 138.918 23.4652 138.985 22.644C139.086 21.8227 139.136 21.1 139.136 20.4758C139.103 19.9502 139.237 18.9319 139.539 17.4208C139.84 15.9097 139.974 15.1048 139.941 15.0063C139.941 14.9077 139.907 14.5957 139.84 14.0701C139.807 13.5444 139.773 13.1502 139.74 12.8874C139.74 12.5918 139.74 12.2469 139.74 11.8527C139.773 11.4585 139.857 11.1464 139.991 10.9164C140.125 10.6536 140.31 10.4894 140.544 10.4237C141.047 10.4894 141.533 10.9 142.003 11.6556C142.472 12.3783 142.657 13.1174 142.556 13.8729C142.623 14.1357 142.573 14.7599 142.405 15.7454C142.237 16.7309 142.036 17.7 141.802 18.6527C141.6 19.5725 141.5 20.0324 141.5 20.0324C141.5 20.328 141.483 20.7715 141.45 21.3628C141.416 21.9541 141.383 22.4469 141.349 22.8411C141.315 23.2353 141.265 23.728 141.198 24.3193C141.131 24.8778 141.03 25.3541 140.896 25.7483C140.796 26.1425 140.662 26.5367 140.494 26.9309C140.36 27.2923 140.176 27.5879 139.941 27.8179C139.706 28.015 139.438 28.1464 139.136 28.2121Z" fill="#FF4000"/>
<path d="M146.314 25.1077C147.622 25.272 148.963 25.1899 150.337 24.8614C151.746 24.5 153.456 23.9087 155.467 23.0874C157.479 22.2333 158.669 21.7406 159.038 21.6092C159.239 21.6092 159.608 21.4449 160.144 21.1164C160.714 20.7551 161.251 20.4101 161.754 20.0816C162.29 19.7531 162.86 19.5068 163.464 19.3425C164.101 19.1783 164.587 19.2768 164.922 19.6382C165.291 19.9995 165.576 20.3937 165.777 20.8208C165.039 21.215 164.151 21.6913 163.111 22.2498C162.072 22.8082 161.351 23.2024 160.949 23.4324C160.58 23.6295 160.044 23.9087 159.34 24.27C158.669 24.5985 158.015 24.9106 157.378 25.2063C156.741 25.4691 155.987 25.7812 155.115 26.1425C152.064 27.3908 148.98 28.1464 145.862 28.4092C144.99 28.5077 144.353 28.2778 143.95 27.7193C143.548 27.128 143.364 26.3725 143.397 25.4527C143.464 24.2372 143.816 23.0053 144.453 21.757C145.124 20.4758 145.979 19.3097 147.018 18.2585C148.058 17.2072 149.114 16.271 150.187 15.4498C151.259 14.6285 152.349 13.9058 153.456 13.2816C154.327 12.756 155.082 12.6411 155.719 12.9367C156.389 13.2324 156.724 13.8565 156.724 14.8092C156.724 15.2362 156.557 15.614 156.222 15.9425C155.886 16.271 155.517 16.5174 155.115 16.6816C154.713 16.8459 154.193 17.043 153.556 17.2729C152.919 17.47 152.483 17.6179 152.249 17.7164C151.075 18.2092 149.835 19.244 148.527 20.8208C147.253 22.3976 146.515 23.8266 146.314 25.1077Z" fill="#FF4000"/>
<path d="M168.773 14.2179C168.572 9.42174 168.119 5.62754 167.415 2.83527C167.449 1.75121 167.868 0.995657 168.673 0.568604L168.824 0.765705C168.924 0.864255 169.008 0.929955 169.075 0.962807C169.176 0.995657 169.31 0.995657 169.477 0.962807C169.88 1.12706 170.232 1.53769 170.533 2.19469C170.835 2.85169 171.003 3.47585 171.036 4.06715C171.137 5.44686 171.271 7.53285 171.439 10.3251C171.606 13.0845 171.74 15.1541 171.841 16.5338C172.21 16.3367 172.495 16.1889 172.696 16.0903C172.931 15.9589 173.149 15.844 173.35 15.7454C173.551 15.614 173.735 15.4826 173.903 15.3512C174.071 15.2198 174.222 15.1213 174.356 15.0556C174.49 14.957 174.674 14.7928 174.909 14.5628C175.177 14.3328 175.378 14.1522 175.512 14.0208C175.68 13.8894 175.965 13.6266 176.367 13.2324C176.803 12.8382 177.155 12.5097 177.423 12.2469C177.692 11.9841 177.993 11.6227 178.329 11.1628C178.697 10.7029 179.033 10.3251 179.334 10.0295C179.636 9.73382 179.988 9.53672 180.391 9.43817C180.625 9.37247 180.843 9.53672 181.044 9.93092C181.279 10.2923 181.413 10.7029 181.447 11.1628C181.48 11.3599 181.43 11.5734 181.296 11.8034C181.195 12.0333 181.078 12.2469 180.944 12.444C180.843 12.6082 180.659 12.8217 180.391 13.0845C180.122 13.3145 179.904 13.4952 179.737 13.6266C179.603 13.758 179.402 13.9386 179.133 14.1686C178.865 14.3986 178.697 14.5464 178.63 14.6121C177.759 15.3019 176.988 15.9425 176.317 16.5338C175.68 17.0923 175.244 17.47 175.009 17.6671C174.808 17.8643 174.49 18.1271 174.054 18.4556C173.652 18.7512 173.048 19.1618 172.243 19.6874C173.584 20.443 175.948 21.4121 179.334 22.5947C182.754 23.7444 185.017 24.5821 186.124 25.1077C186.627 25.3377 186.996 25.6826 187.23 26.1425C187.465 26.5696 187.482 26.9638 187.281 27.3251C187.079 27.6536 186.677 27.8507 186.074 27.9164C185.872 27.9493 185.604 27.9164 185.269 27.8179C184.967 27.7193 184.582 27.5715 184.112 27.3744C183.676 27.1773 183.425 27.0623 183.358 27.0295C183.19 26.9638 182.687 26.7667 181.849 26.4382C181.011 26.1097 180.24 25.8304 179.536 25.6005C178.865 25.3377 178.094 25.0585 177.222 24.7628C176.384 24.4343 175.613 24.1879 174.909 24.0237C174.238 23.8594 173.702 23.7773 173.299 23.7773C172.696 23.7773 172.076 23.843 171.439 23.9744C171.841 25.4855 171.707 26.7667 171.036 27.8179C169.729 27.2923 168.924 26.4382 168.622 25.2556C168.119 23.1531 167.801 21.5271 167.667 20.3773C167.734 20.0159 167.885 19.4246 168.119 18.6034C168.354 17.7821 168.522 17.0266 168.622 16.3367C168.757 15.6469 168.807 14.9406 168.773 14.2179Z" fill="#FF4000"/>
<path fill-rule="evenodd" clip-rule="evenodd" d="M116.062 3.114L116.052 3.08909C115.807 2.47403 115.887 1.72853 116.31 1.16149C116.749 0.574841 117.515 0.228835 118.535 0.342033L118.581 0.347064L118.624 0.361202C119.021 0.490969 119.357 0.777321 119.613 1.07114C119.874 1.37062 120.085 1.71549 120.225 2.01974C120.543 2.71323 120.728 3.3876 120.765 4.04008C120.804 4.56603 120.911 5.17117 121.04 5.90676C121.074 6.09755 121.109 6.29711 121.145 6.50633C121.318 7.51114 121.501 8.70305 121.586 10.1212C121.671 11.5213 121.641 12.7893 121.604 13.8721C121.598 14.0287 121.593 14.1807 121.587 14.3283C121.566 14.8961 121.548 15.3973 121.549 15.8332C121.636 15.7883 121.715 15.7486 121.785 15.7143C122.012 15.5874 122.226 15.4746 122.425 15.3762C122.608 15.2557 122.775 15.1364 122.926 15.0183C123.094 14.8863 123.258 14.7758 123.416 14.6939C123.525 14.6106 123.683 14.4698 123.896 14.2613L123.906 14.2513L123.917 14.2419C124.183 14.0138 124.375 13.8405 124.499 13.7193L124.516 13.7026L124.535 13.6878C124.681 13.5731 124.951 13.3263 125.354 12.9309L125.36 12.9248L125.367 12.9191C125.8 12.5268 126.148 12.2026 126.41 11.9454C126.655 11.7054 126.941 11.3645 127.269 10.915L127.275 10.907L127.281 10.8994C127.657 10.4309 128.004 10.0393 128.321 9.72797C128.676 9.38081 129.095 9.14437 129.574 9.02602C129.839 8.95447 130.089 9.02302 130.29 9.17411C130.469 9.30874 130.606 9.50581 130.718 9.72061C130.984 10.1366 131.134 10.604 131.174 11.1142C131.22 11.4201 131.137 11.7182 130.981 11.9931C130.874 12.2345 130.749 12.4612 130.606 12.6726C130.476 12.8809 130.263 13.1211 129.993 13.3862L129.983 13.3963L129.972 13.4056C129.711 13.6292 129.494 13.8096 129.322 13.9451C129.178 14.0846 128.974 14.2669 128.714 14.4897C128.443 14.7227 128.287 14.8603 128.233 14.9138L128.216 14.9297L128.198 14.944C127.331 15.6301 126.566 16.2657 125.903 16.8509L125.902 16.8518C125.276 17.4004 124.841 17.7775 124.6 17.9806C124.378 18.196 124.046 18.4682 123.614 18.7937L123.612 18.7953L123.61 18.7968C123.306 19.0196 122.896 19.3033 122.379 19.6474C123.748 20.3315 125.874 21.1797 128.773 22.1922C132.185 23.3393 134.471 24.1841 135.605 24.7227C136.188 24.9899 136.63 25.3988 136.911 25.9461C137.198 26.4721 137.241 27.0192 136.957 27.5294L136.953 27.5371L136.948 27.5447C136.647 28.0363 136.085 28.2657 135.427 28.3392C135.132 28.3843 134.793 28.3306 134.438 28.2264L134.432 28.2246L134.426 28.2226C134.108 28.1187 133.71 27.9658 133.235 27.7665L133.23 27.7642L133.224 27.7617C132.821 27.5794 132.568 27.4638 132.475 27.4194L130.982 26.8342C130.15 26.5082 129.387 26.232 128.693 26.0052L128.681 26.0012L128.669 25.9965C128.006 25.7368 127.241 25.4599 126.374 25.1659L126.365 25.1626L126.355 25.1589C125.532 24.8363 124.782 24.597 124.103 24.4386L124.1 24.4381L124.098 24.4375C123.441 24.2766 122.944 24.2039 122.594 24.2039C122.16 24.2039 121.716 24.2397 121.259 24.3121C121.549 25.7234 121.379 26.9795 120.7 28.044L120.505 28.349L120.166 28.2125C118.672 27.6122 118.11 26.4518 117.793 25.2113L117.788 25.1918L117.785 25.172C117.63 24.1748 117.415 23.3998 117.213 22.6982C117.198 22.6493 117.184 22.6006 117.17 22.5521C116.985 21.9107 116.809 21.3032 116.723 20.6495C116.653 20.1165 116.756 19.5967 116.876 19.1852C116.937 18.9771 117.004 18.7895 117.061 18.6366C117.072 18.6068 117.082 18.5791 117.092 18.5533C117.135 18.4373 117.164 18.3596 117.18 18.3033C117.246 18.0702 117.302 17.8873 117.349 17.7312C117.475 17.3166 117.543 17.0909 117.612 16.6165L117.613 16.6067L117.615 16.597C117.654 16.396 117.701 16.1839 117.749 15.965C117.878 15.3819 118.017 14.7498 118.052 14.1448C118.32 9.45229 117.611 5.90678 116.075 3.1375L116.062 3.114ZM120.832 24.39C120.803 24.2535 120.771 24.115 120.733 23.9745C120.877 23.9448 121.02 23.9185 121.162 23.8956C121.649 23.8168 122.127 23.7774 122.594 23.7774C122.996 23.7774 123.533 23.8595 124.203 24.0238C124.907 24.188 125.679 24.4344 126.517 24.7629C127.389 25.0585 128.16 25.3378 128.83 25.6006C129.534 25.8305 130.305 26.1097 131.144 26.4382L132.652 27.0296C132.719 27.0624 132.971 27.1774 133.407 27.3745C133.876 27.5716 134.262 27.7194 134.563 27.818C134.899 27.9165 135.167 27.9494 135.368 27.9165C135.972 27.8508 136.374 27.6537 136.575 27.3252C136.776 26.9639 136.76 26.5697 136.525 26.1426C136.29 25.6827 135.921 25.3378 135.418 25.1078C134.312 24.5822 132.049 23.7445 128.629 22.5948C125.579 21.5296 123.359 20.6377 121.968 19.919C121.814 19.8397 121.671 19.7626 121.538 19.6875C121.679 19.5953 121.814 19.5066 121.943 19.4215C122.548 19.0214 123.017 18.6994 123.348 18.4556C123.784 18.1271 124.103 17.8643 124.304 17.6672C124.539 17.4701 124.975 17.0924 125.612 16.5339C126.282 15.9426 127.053 15.302 127.925 14.6122C127.992 14.5465 128.16 14.3986 128.428 14.1687C128.696 13.9387 128.897 13.7581 129.031 13.6267C129.199 13.4953 129.417 13.3146 129.685 13.0846C129.953 12.8218 130.138 12.6083 130.238 12.4441C130.372 12.2469 130.49 12.0334 130.59 11.8035C130.725 11.5735 130.775 11.36 130.741 11.1629C130.708 10.703 130.574 10.2924 130.339 9.93101C130.138 9.53681 129.92 9.37255 129.685 9.43826C129.283 9.53681 128.931 9.73391 128.629 10.0296C128.327 10.3252 127.992 10.703 127.623 11.1629C127.288 11.6228 126.986 11.9841 126.718 12.247C126.45 12.5098 126.098 12.8383 125.662 13.2325C125.26 13.6267 124.975 13.8895 124.807 14.0209C124.673 14.1523 124.472 14.3329 124.203 14.5629C123.969 14.7928 123.784 14.9571 123.65 15.0556C123.516 15.1213 123.365 15.2199 123.198 15.3513C123.03 15.4827 122.846 15.6141 122.644 15.7455C122.443 15.844 122.225 15.959 121.991 16.0904C121.874 16.1473 121.73 16.2206 121.558 16.3103C121.432 16.3761 121.292 16.4506 121.136 16.5339C121.125 16.3856 121.118 16.2273 121.115 16.0593C121.107 15.5578 121.128 14.9706 121.152 14.3098C121.196 13.1334 121.247 11.7234 121.151 10.1465C121.051 8.46743 120.811 7.10835 120.614 5.99157C120.483 5.25118 120.371 4.61729 120.331 4.06724C120.297 3.47594 120.13 2.85178 119.828 2.19478C119.579 1.65236 119.068 0.955776 118.486 0.765795C116.71 0.568693 116.073 1.96743 116.458 2.93391C118.043 5.79296 118.758 9.42363 118.486 14.1687C118.45 14.8099 118.299 15.4945 118.168 16.0864C118.122 16.297 118.078 16.4958 118.043 16.6768C117.969 17.184 117.891 17.4428 117.761 17.8706C117.714 18.0247 117.661 18.2008 117.599 18.4183C117.578 18.4917 117.541 18.5893 117.498 18.7059C117.332 19.1535 117.061 19.8809 117.155 20.595C117.236 21.216 117.403 21.7942 117.591 22.4425C117.805 23.1832 118.046 24.0155 118.216 25.1078C118.517 26.2904 119.023 27.2924 120.331 27.818C120.939 26.8645 121.106 25.7218 120.832 24.39ZM138.427 5.35031L138.424 5.34148C138.158 4.59904 138.128 3.76619 138.305 2.85828C138.342 2.64625 138.446 2.29925 138.797 2.18439L138.813 2.17921L138.829 2.17524C139.004 2.1325 139.228 2.1156 139.482 2.11347C139.797 2.03948 140.11 2.07283 140.4 2.22629C140.691 2.3808 140.923 2.63881 141.113 2.95104C141.534 3.55698 141.706 4.24181 141.632 4.98619C141.611 5.36546 141.511 5.71574 141.283 5.98805C141.048 6.26983 140.72 6.41741 140.349 6.46117C139.928 6.5193 139.527 6.46984 139.18 6.27068C138.833 6.07114 138.59 5.7504 138.43 5.35899L138.427 5.35031ZM140.293 6.03826C140.863 5.97256 141.165 5.6112 141.198 4.9542C141.265 4.29719 141.114 3.70589 140.745 3.18029C140.41 2.62183 140.008 2.40831 139.538 2.53971C139.27 2.53971 139.069 2.55613 138.935 2.58898C138.834 2.62183 138.767 2.73681 138.734 2.93391C138.566 3.78802 138.6 4.54357 138.834 5.20058C139.103 5.85758 139.589 6.13681 140.293 6.03826ZM138.908 28.6988L138.752 28.4129C138.453 27.8629 138.272 27.2324 138.2 26.53L138.199 26.5194L138.199 26.5088C138.164 25.8266 138.198 25.2018 138.306 24.6373C138.403 24.097 138.485 23.4222 138.551 22.61L138.552 22.6016L138.553 22.5932C138.652 21.7894 138.7 21.0885 138.701 20.4885C138.667 19.8965 138.814 18.8299 139.111 17.339C139.262 16.5847 139.37 16.0109 139.436 15.6152C139.469 15.4166 139.491 15.2682 139.502 15.1665C139.506 15.1318 139.508 15.1056 139.509 15.0866L139.506 15.0756V15.0064C139.506 14.9415 139.477 14.6635 139.408 14.123L139.407 14.1099L139.406 14.0967C139.372 13.5732 139.34 13.1897 139.308 12.9404L139.304 12.9141V11.835L139.306 11.8173C139.342 11.3939 139.434 11.0175 139.607 10.7153C139.783 10.377 140.051 10.1184 140.425 10.0137L140.512 9.98929L140.602 10.001C141.307 10.0931 141.886 10.648 142.372 11.4303C142.873 12.2031 143.091 13.016 142.996 13.8563C143.029 14.0513 143.024 14.3003 143.002 14.5718C142.976 14.9011 142.919 15.317 142.834 15.8156C142.665 16.8091 142.463 17.7864 142.226 18.7475L141.935 20.0782C141.933 20.3846 141.916 20.8222 141.884 21.3865C141.85 21.9801 141.817 22.477 141.783 22.8766C141.749 23.2761 141.698 23.773 141.631 24.3665L141.63 24.3692C141.562 24.9402 141.458 25.4414 141.314 25.8676C141.21 26.2752 141.071 26.6814 140.899 27.0862C140.748 27.4915 140.533 27.8404 140.248 28.1195L140.237 28.1311L140.224 28.1418C139.935 28.3844 139.602 28.5476 139.231 28.6285L138.908 28.6988ZM140.494 26.931C140.662 26.5368 140.796 26.1426 140.896 25.7484C141.03 25.3542 141.131 24.8779 141.198 24.3194C141.265 23.7281 141.315 23.2354 141.349 22.8412C141.382 22.4469 141.416 21.9542 141.45 21.3629C141.483 20.7716 141.5 20.3281 141.5 20.0325L141.802 18.6527C142.036 17.7001 142.237 16.731 142.405 15.7455C142.573 14.76 142.623 14.1358 142.556 13.873C142.657 13.1175 142.472 12.3784 142.003 11.6556C141.533 10.9001 141.047 10.4895 140.544 10.4238C140.31 10.4895 140.125 10.6537 139.991 10.9165C139.857 11.1465 139.773 11.4585 139.74 11.8527V12.8875C139.773 13.1503 139.807 13.5445 139.84 14.0701C139.907 14.5957 139.941 14.9078 139.941 15.0064C139.974 15.1049 139.84 15.9097 139.538 17.4209C139.237 18.932 139.103 19.9503 139.136 20.4759C139.136 21.1001 139.086 21.8228 138.985 22.644C138.918 23.4653 138.834 24.1552 138.734 24.7136C138.633 25.2392 138.6 25.8305 138.633 26.4875C138.7 27.1445 138.868 27.7194 139.136 28.2122C139.438 28.1465 139.706 28.0151 139.941 27.818C140.175 27.588 140.36 27.2924 140.494 26.931ZM139.51 15.0488C139.511 15.0488 139.511 15.0516 139.511 15.058C139.51 15.0522 139.51 15.0489 139.51 15.0488ZM158.961 21.1828H159.037C159.036 21.1828 159.054 21.1819 159.097 21.1693C159.143 21.156 159.205 21.1334 159.285 21.0978C159.445 21.0268 159.652 20.9148 159.911 20.7566C160.478 20.3969 161.012 20.0536 161.512 19.7269L161.518 19.7234L161.523 19.7201C162.095 19.3701 162.703 19.107 163.347 18.9317L163.35 18.9309L163.353 18.9302C164.084 18.7416 164.757 18.8331 165.237 19.3435C165.635 19.7355 165.949 20.1683 166.172 20.6421L166.343 21.0043L165.985 21.1953C165.248 21.5893 164.36 22.0654 163.321 22.6238C162.281 23.1824 161.565 23.5741 161.168 23.8008L161.163 23.8039L161.157 23.8069C160.785 24.0057 160.246 24.2863 159.542 24.6479L159.538 24.6498L159.534 24.6516C158.861 24.9814 158.204 25.2948 157.565 25.5918L157.556 25.5958L157.547 25.5994C156.91 25.8621 156.156 26.1741 155.285 26.5354L155.283 26.5361C152.195 27.7997 149.068 28.5664 145.905 28.8336C144.926 28.9428 144.113 28.6841 143.595 27.9654L143.592 27.9607L143.588 27.956C143.122 27.2711 142.926 26.4204 142.962 25.4375L142.962 25.4336L142.963 25.4297C143.033 24.1479 143.404 22.8593 144.064 21.5663L144.065 21.5644L144.066 21.5625C144.757 20.2432 145.637 19.0427 146.706 17.9618C147.758 16.8978 148.829 15.9482 149.919 15.1138C151.005 14.2823 152.11 13.5493 153.233 12.9152C154.166 12.3543 155.08 12.1703 155.901 12.5496C156.777 12.9379 157.16 13.755 157.16 14.8093C157.16 15.36 156.938 15.8435 156.529 16.2442C156.157 16.6086 155.742 16.8879 155.282 17.0754C154.872 17.2428 154.346 17.4422 153.707 17.6732L153.697 17.6767L153.687 17.6797C153.049 17.8772 152.632 18.0194 152.42 18.1085C151.34 18.5619 150.154 19.5359 148.866 21.0877C147.77 22.4456 147.106 23.6592 146.835 24.7323C147.938 24.819 149.069 24.7252 150.231 24.4479C151.611 24.0935 153.299 23.5107 155.297 22.695C157.3 21.8446 158.505 21.3454 158.889 21.2085L158.961 21.1828ZM155.467 23.0875C153.456 23.9088 151.746 24.5001 150.337 24.8614C149.114 25.1538 147.918 25.251 146.747 25.1531C146.603 25.141 146.458 25.1259 146.314 25.1078C146.336 24.9697 146.364 24.8299 146.398 24.6883C146.681 23.5169 147.39 22.2277 148.527 20.8209C149.835 19.244 151.075 18.2093 152.249 17.7165C152.483 17.618 152.919 17.4701 153.556 17.273C154.193 17.0431 154.713 16.846 155.115 16.6817C155.517 16.5175 155.886 16.2711 156.222 15.9426C156.557 15.6141 156.724 15.2363 156.724 14.8093C156.724 13.8566 156.389 13.2325 155.719 12.9368C155.082 12.6412 154.327 12.7561 153.456 13.2817C152.349 13.9059 151.259 14.6286 150.187 15.4498C149.114 16.2711 148.058 17.2073 147.018 18.2585C145.979 19.3097 145.124 20.4759 144.453 21.7571C143.816 23.0054 143.464 24.2373 143.397 25.4527C143.364 26.3725 143.548 27.1281 143.95 27.7194C144.353 28.2779 144.99 28.5078 145.862 28.4093C148.98 28.1465 152.064 27.3909 155.115 26.1426C155.987 25.7812 156.741 25.4692 157.378 25.2064C158.015 24.9107 158.669 24.5986 159.34 24.2701C160.044 23.9088 160.58 23.6296 160.949 23.4325C161.351 23.2025 162.072 22.8083 163.111 22.2498C164.151 21.6914 165.039 21.2151 165.777 20.8209C165.576 20.3938 165.291 19.9996 164.922 19.6383C164.587 19.2769 164.101 19.1783 163.464 19.3426C162.86 19.5068 162.29 19.7532 161.754 20.0817C161.251 20.4102 160.714 20.7552 160.144 21.1165C159.608 21.445 159.239 21.6093 159.038 21.6093C158.669 21.7407 157.479 22.2334 155.467 23.0875ZM168.338 14.2373L168.338 14.2355C168.138 9.45169 167.687 5.68988 166.993 2.93766L166.979 2.88089L166.98 2.82244C167.017 1.62395 167.494 0.70928 168.465 0.193686L168.796 0.0184937L169.152 0.484441C169.185 0.51559 169.212 0.538973 169.234 0.555941C169.236 0.557697 169.238 0.559347 169.24 0.560894C169.243 0.561001 169.247 0.561064 169.251 0.561064C169.283 0.561064 169.329 0.557045 169.392 0.544705L169.522 0.5192L169.645 0.569221C170.2 0.795773 170.612 1.32717 170.93 2.01974C171.249 2.7133 171.433 3.38773 171.471 4.04027C171.571 5.42274 171.706 7.50967 171.873 10.2999C172.016 12.6504 172.134 14.499 172.228 15.8464C172.326 15.796 172.414 15.7519 172.491 15.7143C172.718 15.5874 172.931 15.4746 173.13 15.3762C173.314 15.2557 173.48 15.1363 173.631 15.0183C173.799 14.8863 173.963 14.7758 174.122 14.6939C174.23 14.6106 174.388 14.4698 174.601 14.2613L174.611 14.2513L174.622 14.2419C174.888 14.0138 175.081 13.8405 175.205 13.7193L175.222 13.7026L175.24 13.6878C175.387 13.5731 175.656 13.3263 176.06 12.9309L176.066 12.9248L176.072 12.9191C176.506 12.5268 176.853 12.2026 177.116 11.9454C177.361 11.7054 177.647 11.3645 177.975 10.915L177.98 10.907L177.986 10.8994C178.362 10.4309 178.709 10.0393 179.027 9.72797C179.381 9.38081 179.8 9.14438 180.279 9.02602C180.544 8.95446 180.795 9.02302 180.995 9.17411C181.174 9.30875 181.312 9.50582 181.423 9.72063C181.689 10.1366 181.839 10.604 181.879 11.1142C181.925 11.4201 181.842 11.7182 181.686 11.9931C181.579 12.2345 181.454 12.4612 181.311 12.6726C181.182 12.8809 180.969 13.1211 180.698 13.3862L180.688 13.3963L180.677 13.4056C180.416 13.6292 180.199 13.8096 180.027 13.9451C179.883 14.0846 179.68 14.2669 179.42 14.4897C179.148 14.7227 178.993 14.8603 178.938 14.9138L178.922 14.9297L178.904 14.944C178.037 15.6301 177.272 16.2657 176.608 16.8509L176.607 16.8518C175.981 17.4004 175.546 17.7776 175.305 17.9807C175.083 18.196 174.751 18.4683 174.319 18.7937L174.317 18.7953L174.315 18.7968C174.012 19.0196 173.601 19.3033 173.084 19.6474C174.454 20.3315 176.579 21.1797 179.478 22.1922C182.89 23.3393 185.176 24.1841 186.311 24.7227C186.894 24.9899 187.336 25.3988 187.617 25.9462C187.904 26.4722 187.947 27.0192 187.663 27.5294L187.658 27.5371L187.654 27.5447C187.353 28.0363 186.79 28.2657 186.132 28.3392C185.837 28.3843 185.498 28.3306 185.144 28.2264L185.137 28.2246L185.131 28.2226C184.813 28.1187 184.415 27.9658 183.941 27.7665L183.935 27.7642L183.93 27.7617C183.527 27.5794 183.273 27.4638 183.181 27.4194L181.687 26.8342C180.856 26.5082 180.092 26.232 179.398 26.0052L179.386 26.0012L179.374 25.9965C178.711 25.7368 177.947 25.4599 177.08 25.1659L177.07 25.1626L177.061 25.1589C176.238 24.8363 175.487 24.597 174.808 24.4386L174.806 24.4381L174.803 24.4375C174.146 24.2766 173.65 24.2039 173.299 24.2039C172.866 24.2039 172.421 24.2397 171.965 24.3121C172.254 25.7234 172.084 26.9795 171.405 28.044L171.211 28.349L170.871 28.2125C169.456 27.6435 168.54 26.6926 168.2 25.3591L168.199 25.356L168.199 25.353C167.695 23.2457 167.371 21.6005 167.234 20.4258L167.227 20.3631L167.239 20.3011C167.31 19.9184 167.466 19.3103 167.7 18.4885C167.931 17.6814 168.094 16.9443 168.192 16.2765L168.193 16.2667L168.195 16.257C168.322 15.6008 168.371 14.9278 168.338 14.2373ZM171.537 24.39C171.509 24.2535 171.476 24.115 171.439 23.9745C171.582 23.9448 171.725 23.9185 171.867 23.8956C172.355 23.8168 172.832 23.7774 173.299 23.7774C173.702 23.7774 174.238 23.8595 174.909 24.0238C175.613 24.188 176.384 24.4344 177.222 24.7629C178.094 25.0585 178.865 25.3378 179.536 25.6006C180.24 25.8305 181.011 26.1097 181.849 26.4382L183.358 27.0296C183.425 27.0624 183.676 27.1774 184.112 27.3745C184.582 27.5716 184.967 27.7194 185.269 27.818C185.604 27.9165 185.872 27.9494 186.073 27.9165C186.677 27.8508 187.079 27.6537 187.28 27.3252C187.482 26.9639 187.465 26.5697 187.23 26.1426C186.995 25.6827 186.627 25.3378 186.124 25.1078C185.017 24.5822 182.754 23.7445 179.334 22.5948C176.284 21.5296 174.064 20.6377 172.673 19.919C172.52 19.8397 172.377 19.7626 172.243 19.6875C172.385 19.5953 172.52 19.5066 172.648 19.4215C173.254 19.0214 173.722 18.6994 174.054 18.4556C174.49 18.1271 174.808 17.8643 175.009 17.6672C175.244 17.4701 175.68 17.0924 176.317 16.5339C176.987 15.9426 177.759 15.302 178.63 14.6122C178.697 14.5465 178.865 14.3986 179.133 14.1687C179.401 13.9387 179.603 13.7581 179.737 13.6267C179.904 13.4953 180.122 13.3146 180.391 13.0846C180.659 12.8218 180.843 12.6083 180.944 12.4441C181.078 12.2469 181.195 12.0334 181.296 11.8035C181.43 11.5735 181.48 11.36 181.447 11.1629C181.413 10.703 181.279 10.2924 181.044 9.93101C180.843 9.53681 180.625 9.37255 180.391 9.43826C179.988 9.53681 179.636 9.73391 179.334 10.0296C179.033 10.3252 178.697 10.703 178.329 11.1629C177.993 11.6228 177.692 11.9841 177.423 12.247C177.155 12.5098 176.803 12.8383 176.367 13.2325C175.965 13.6267 175.68 13.8895 175.512 14.0209C175.378 14.1523 175.177 14.3329 174.909 14.5629C174.674 14.7928 174.49 14.9571 174.356 15.0556C174.221 15.1213 174.071 15.2199 173.903 15.3513C173.735 15.4827 173.551 15.6141 173.35 15.7455C173.149 15.844 172.931 15.959 172.696 16.0904C172.579 16.1476 172.434 16.2214 172.261 16.3117C172.136 16.3771 171.996 16.4512 171.841 16.5339C171.83 16.386 171.819 16.2302 171.808 16.0664C171.711 14.7025 171.588 12.7888 171.439 10.3252C171.271 7.53294 171.137 5.44695 171.036 4.06724C171.003 3.47594 170.835 2.85178 170.533 2.19478C170.232 1.53778 169.88 1.12715 169.477 0.962897C169.31 0.995747 169.176 0.995747 169.075 0.962897C169.008 0.930045 168.924 0.864345 168.824 0.765795L168.673 0.568693C167.868 0.995747 167.449 1.7513 167.415 2.83536C168.119 5.62763 168.572 9.42183 168.773 14.218C168.807 14.9407 168.756 15.6469 168.622 16.3368C168.522 17.0267 168.354 17.7822 168.119 18.6035C167.885 19.4247 167.734 20.016 167.667 20.3774C167.801 21.5271 168.119 23.1532 168.622 25.2556C168.924 26.4382 169.729 27.2924 171.036 27.818C171.645 26.8645 171.811 25.7218 171.537 24.39Z" fill="#FF4000"/>
</svg>
