<svg width="188" height="29" viewBox="0 0 188 29" fill="none" xmlns="http://www.w3.org/2000/svg">
<path fill-rule="evenodd" clip-rule="evenodd" d="M0 27.3525H10.4093C14.412 27.3525 17.2778 26.3657 19.0068 24.3921C20.7357 22.3953 21.6002 19.4116 21.6002 15.4412C21.6002 11.4475 20.7002 8.54515 18.9002 6.73407C17.1002 4.923 14.1514 4.01746 10.054 4.01746H0V27.3525ZM9.84051 14.5006C11.001 14.5006 11.5813 13.746 11.5813 12.2368C11.5813 10.7043 10.93 9.93808 9.62735 9.93808H7.81549V14.5006H9.84051Z" fill="#FEEFDD"/>
<path fill-rule="evenodd" clip-rule="evenodd" d="M31.0858 21.3272H33.5122L34.8622 27.3525H43.2465L40.9017 19.4116C42.6544 18.0185 43.5307 15.7082 43.5307 12.4808C43.5307 9.23011 42.7373 7.0127 41.1504 5.82853C39.5636 4.62115 36.9346 4.01746 33.2635 4.01746H23.245V27.3525H31.0858V21.3272ZM32.933 14.5006C34.0935 14.5006 34.6738 13.746 34.6738 12.2368C34.6738 10.7043 34.0225 9.93808 32.7198 9.93808H30.908V14.5006H32.933Z" fill="#FEEFDD"/>
<path fill-rule="evenodd" clip-rule="evenodd" d="M103.762 21.3272H106.189L107.539 27.3525H115.923L113.578 19.4116C115.331 18.0185 116.207 15.7082 116.207 12.4808C116.207 9.23011 115.414 7.0127 113.827 5.82853C112.24 4.62115 109.611 4.01746 105.94 4.01746H95.9216V27.3525H103.762V21.3272ZM105.61 14.5006C106.77 14.5006 107.35 13.746 107.35 12.2368C107.35 10.7043 106.699 9.93808 105.396 9.93808H103.585V14.5006H105.61Z" fill="#FEEFDD"/>
<path d="M45.1719 27.3525V4.01746H53.4141V27.3525H45.1719Z" fill="#FEEFDD"/>
<path d="M75.8666 4.01746L71.2126 27.3525H59.0625L54.2309 4.01746H62.9704L64.8178 19.2027H65.4573L67.1271 4.01746H75.8666Z" fill="#FEEFDD"/>
<path d="M76.7774 27.3525V4.01746H94.6118V10.4607H85.0196V12.4459H92.4802V18.8195H85.0196V20.9092H94.6118V27.3525H76.7774Z" fill="#FEEFDD"/>
<path d="M118.486 14.1686C118.758 9.42354 118.043 5.79287 116.458 2.93382C116.073 1.96734 116.71 0.568604 118.486 0.765705C119.068 0.955686 119.579 1.65227 119.828 2.19469C120.13 2.85169 120.298 3.47585 120.331 4.06715C120.432 5.44686 120.984 7.35415 121.152 10.1464C121.319 12.9058 121.035 15.1541 121.136 16.5338C121.505 16.3367 121.79 16.1889 121.991 16.0903C122.225 15.9589 122.443 15.844 122.644 15.7454C122.846 15.614 123.03 15.4826 123.198 15.3512C123.365 15.2198 123.516 15.1213 123.65 15.0556C123.784 14.957 123.969 14.7928 124.204 14.5628C124.472 14.3328 124.673 14.1522 124.807 14.0208C124.975 13.8894 125.26 13.6266 125.662 13.2324C126.098 12.8382 126.45 12.5097 126.718 12.2469C126.986 11.9841 127.288 11.6227 127.623 11.1628C127.992 10.7029 128.327 10.3251 128.629 10.0295C128.931 9.73382 129.283 9.53672 129.685 9.43817C129.92 9.37247 130.138 9.53672 130.339 9.93092C130.574 10.2923 130.708 10.7029 130.741 11.1628C130.775 11.3599 130.725 11.5734 130.591 11.8034C130.49 12.0333 130.373 12.2469 130.238 12.444C130.138 12.6082 129.953 12.8217 129.685 13.0845C129.417 13.3145 129.199 13.4952 129.031 13.6266C128.897 13.758 128.696 13.9386 128.428 14.1686C128.16 14.3986 127.992 14.5464 127.925 14.6121C127.053 15.3019 126.282 15.9425 125.612 16.5338C124.975 17.0923 124.539 17.47 124.304 17.6671C124.103 17.8643 123.784 18.1271 123.349 18.4556C122.946 18.7512 122.343 19.1618 121.538 19.6874C122.879 20.443 125.243 21.4121 128.629 22.5947C132.049 23.7444 134.312 24.5821 135.419 25.1077C135.921 25.3377 136.29 25.6826 136.525 26.1425C136.76 26.5696 136.776 26.9638 136.575 27.3251C136.374 27.6536 135.972 27.8507 135.368 27.9164C135.167 27.9493 134.899 27.9164 134.564 27.8179C134.262 27.7193 133.876 27.5715 133.407 27.3744C132.971 27.1773 132.72 27.0623 132.652 27.0295C132.485 26.9638 131.982 26.7667 131.144 26.4382C130.306 26.1097 129.534 25.8304 128.83 25.6005C128.16 25.3377 127.389 25.0585 126.517 24.7628C125.679 24.4343 124.908 24.1879 124.204 24.0237C123.533 23.8594 122.997 23.7773 122.594 23.7773C121.991 23.7773 121.37 23.843 120.733 23.9744C121.136 25.4855 121.002 26.7667 120.331 27.8179C119.023 27.2923 118.517 26.2903 118.216 25.1077C117.897 23.0593 117.329 21.9254 117.155 20.595C117.037 19.6949 117.497 18.7739 117.599 18.4182C117.834 17.5969 117.942 17.3666 118.043 16.6768C118.177 15.9869 118.437 15.0379 118.486 14.1686Z" fill="#FF4000"/>
<path d="M139.539 2.53962C140.008 2.40822 140.41 2.62174 140.746 3.1802C141.114 3.7058 141.265 4.2971 141.198 4.95411C141.165 5.61111 140.863 5.97247 140.293 6.03817C139.589 6.13672 139.103 5.85749 138.834 5.20049C138.6 4.54348 138.566 3.78793 138.734 2.93382C138.767 2.73672 138.834 2.62174 138.935 2.58889C139.069 2.55604 139.27 2.53962 139.539 2.53962ZM139.136 28.2121C138.868 27.7193 138.7 27.1444 138.633 26.4874C138.6 25.8304 138.633 25.2391 138.734 24.7135C138.834 24.1551 138.918 23.4652 138.985 22.644C139.086 21.8227 139.136 21.1 139.136 20.4758C139.103 19.9502 139.237 18.9319 139.539 17.4208C139.84 15.9097 139.974 15.1048 139.941 15.0063C139.941 14.9077 139.907 14.5957 139.84 14.0701C139.807 13.5444 139.773 13.1502 139.74 12.8874C139.74 12.5918 139.74 12.2469 139.74 11.8527C139.773 11.4585 139.857 11.1464 139.991 10.9164C140.125 10.6536 140.31 10.4894 140.544 10.4237C141.047 10.4894 141.533 10.9 142.003 11.6556C142.472 12.3783 142.657 13.1174 142.556 13.8729C142.623 14.1357 142.573 14.7599 142.405 15.7454C142.238 16.7309 142.036 17.7 141.802 18.6527C141.601 19.5725 141.5 20.0324 141.5 20.0324C141.5 20.328 141.483 20.7715 141.45 21.3628C141.416 21.9541 141.383 22.4469 141.349 22.8411C141.316 23.2353 141.265 23.728 141.198 24.3193C141.131 24.8778 141.031 25.3541 140.896 25.7483C140.796 26.1425 140.662 26.5367 140.494 26.9309C140.36 27.2923 140.176 27.5879 139.941 27.8179C139.706 28.015 139.438 28.1464 139.136 28.2121Z" fill="#FF4000"/>
<path d="M146.314 25.1077C147.622 25.272 148.963 25.1899 150.338 24.8614C151.746 24.5 153.456 23.9087 155.467 23.0874C157.479 22.2333 158.669 21.7406 159.038 21.6092C159.239 21.6092 159.608 21.4449 160.144 21.1164C160.714 20.7551 161.251 20.4101 161.754 20.0816C162.29 19.7531 162.86 19.5068 163.464 19.3425C164.101 19.1783 164.587 19.2768 164.922 19.6382C165.291 19.9995 165.576 20.3937 165.777 20.8208C165.039 21.215 164.151 21.6913 163.112 22.2498C162.072 22.8082 161.351 23.2024 160.949 23.4324C160.58 23.6295 160.044 23.9087 159.34 24.27C158.669 24.5985 158.015 24.9106 157.378 25.2063C156.741 25.4691 155.987 25.7812 155.115 26.1425C152.064 27.3908 148.98 28.1464 145.862 28.4092C144.99 28.5077 144.353 28.2778 143.951 27.7193C143.548 27.128 143.364 26.3725 143.397 25.4527C143.464 24.2372 143.816 23.0053 144.453 21.757C145.124 20.4758 145.979 19.3097 147.018 18.2585C148.058 17.2072 149.114 16.271 150.187 15.4498C151.26 14.6285 152.349 13.9058 153.456 13.2816C154.327 12.756 155.082 12.6411 155.719 12.9367C156.389 13.2324 156.725 13.8565 156.725 14.8092C156.725 15.2362 156.557 15.614 156.222 15.9425C155.886 16.271 155.518 16.5174 155.115 16.6816C154.713 16.8459 154.193 17.043 153.556 17.2729C152.919 17.47 152.483 17.6179 152.249 17.7164C151.075 18.2092 149.835 19.244 148.527 20.8208C147.253 22.3976 146.515 23.8266 146.314 25.1077Z" fill="#FF4000"/>
<path d="M168.773 14.2179C168.572 9.42174 168.12 5.62754 167.415 2.83527C167.449 1.75121 167.868 0.995657 168.673 0.568604L168.824 0.765705C168.924 0.864255 169.008 0.929955 169.075 0.962807C169.176 0.995657 169.31 0.995657 169.477 0.962807C169.88 1.12706 170.232 1.53769 170.534 2.19469C170.835 2.85169 171.003 3.47585 171.036 4.06715C171.137 5.44686 171.271 7.53285 171.439 10.3251C171.606 13.0845 171.741 15.1541 171.841 16.5338C172.21 16.3367 172.495 16.1889 172.696 16.0903C172.931 15.9589 173.149 15.844 173.35 15.7454C173.551 15.614 173.735 15.4826 173.903 15.3512C174.071 15.2198 174.222 15.1213 174.356 15.0556C174.49 14.957 174.674 14.7928 174.909 14.5628C175.177 14.3328 175.378 14.1522 175.512 14.0208C175.68 13.8894 175.965 13.6266 176.367 13.2324C176.803 12.8382 177.155 12.5097 177.423 12.2469C177.692 11.9841 177.993 11.6227 178.329 11.1628C178.698 10.7029 179.033 10.3251 179.335 10.0295C179.636 9.73382 179.988 9.53672 180.391 9.43817C180.625 9.37247 180.843 9.53672 181.044 9.93092C181.279 10.2923 181.413 10.7029 181.447 11.1628C181.48 11.3599 181.43 11.5734 181.296 11.8034C181.195 12.0333 181.078 12.2469 180.944 12.444C180.843 12.6082 180.659 12.8217 180.391 13.0845C180.122 13.3145 179.904 13.4952 179.737 13.6266C179.603 13.758 179.402 13.9386 179.133 14.1686C178.865 14.3986 178.698 14.5464 178.63 14.6121C177.759 15.3019 176.988 15.9425 176.317 16.5338C175.68 17.0923 175.244 17.47 175.009 17.6671C174.808 17.8643 174.49 18.1271 174.054 18.4556C173.652 18.7512 173.048 19.1618 172.243 19.6874C173.585 20.443 175.948 21.4121 179.335 22.5947C182.754 23.7444 185.017 24.5821 186.124 25.1077C186.627 25.3377 186.996 25.6826 187.23 26.1425C187.465 26.5696 187.482 26.9638 187.281 27.3251C187.079 27.6536 186.677 27.8507 186.074 27.9164C185.872 27.9493 185.604 27.9164 185.269 27.8179C184.967 27.7193 184.582 27.5715 184.112 27.3744C183.676 27.1773 183.425 27.0623 183.358 27.0295C183.19 26.9638 182.687 26.7667 181.849 26.4382C181.011 26.1097 180.24 25.8304 179.536 25.6005C178.865 25.3377 178.094 25.0585 177.222 24.7628C176.384 24.4343 175.613 24.1879 174.909 24.0237C174.238 23.8594 173.702 23.7773 173.3 23.7773C172.696 23.7773 172.076 23.843 171.439 23.9744C171.841 25.4855 171.707 26.7667 171.036 27.8179C169.729 27.2923 168.924 26.4382 168.622 25.2556C168.12 23.1531 167.801 21.5271 167.667 20.3773C167.734 20.0159 167.885 19.4246 168.12 18.6034C168.354 17.7821 168.522 17.0266 168.622 16.3367C168.757 15.6469 168.807 14.9406 168.773 14.2179Z" fill="#FF4000"/>
<path fill-rule="evenodd" clip-rule="evenodd" d="M116.062 3.11394L116.052 3.08903C115.807 2.47396 115.886 1.72847 116.31 1.16143C116.749 0.57478 117.515 0.228774 118.535 0.341972L118.58 0.347003L118.624 0.361141C119.021 0.490908 119.357 0.77726 119.613 1.07108C119.874 1.37056 120.085 1.71543 120.225 2.01968C120.543 2.71317 120.728 3.38754 120.765 4.04002C120.804 4.56597 120.91 5.17111 121.04 5.9067C121.074 6.09749 121.109 6.29705 121.145 6.50627C121.318 7.51108 121.5 8.70299 121.586 10.1211C121.671 11.5213 121.641 12.7892 121.603 13.872C121.598 14.0286 121.592 14.1806 121.587 14.3282C121.566 14.896 121.548 15.3973 121.548 15.8332C121.636 15.7882 121.715 15.7486 121.785 15.7142C122.012 15.5873 122.225 15.4745 122.425 15.3761C122.608 15.2556 122.775 15.1363 122.926 15.0182C123.094 14.8863 123.258 14.7758 123.416 14.6939C123.525 14.6105 123.683 14.4697 123.896 14.2612L123.906 14.2512L123.917 14.2419C124.183 14.0137 124.375 13.8405 124.499 13.7192L124.516 13.7025L124.535 13.6878C124.681 13.5731 124.95 13.3262 125.354 12.9308L125.36 12.9248L125.367 12.919C125.8 12.5268 126.148 12.2025 126.41 11.9453C126.655 11.7053 126.941 11.3645 127.269 10.9149L127.275 10.907L127.281 10.8993C127.657 10.4309 128.003 10.0392 128.321 9.72791C128.676 9.38074 129.095 9.14431 129.573 9.02596C129.839 8.95441 130.089 9.02296 130.29 9.17405C130.468 9.30868 130.606 9.50575 130.718 9.72055C130.984 10.1365 131.134 10.6039 131.174 11.1141C131.22 11.42 131.136 11.7182 130.981 11.9931C130.874 12.2344 130.749 12.4612 130.606 12.6725C130.476 12.8808 130.263 13.1211 129.993 13.3862L129.982 13.3962L129.972 13.4055C129.711 13.6292 129.494 13.8095 129.322 13.945C129.178 14.0845 128.974 14.2669 128.714 14.4896C128.442 14.7226 128.287 14.8602 128.232 14.9137L128.216 14.9297L128.198 14.9439C127.331 15.6301 126.566 16.2657 125.902 16.8509L125.902 16.8517C125.276 17.4003 124.841 17.7775 124.599 17.9806C124.378 18.1959 124.045 18.4682 123.614 18.7936L123.611 18.7952L123.609 18.7968C123.306 19.0195 122.895 19.3033 122.379 19.6473C123.748 20.3314 125.874 21.1796 128.773 22.1921C132.184 23.3392 134.471 24.184 135.605 24.7226C136.188 24.9899 136.63 25.3987 136.911 25.946C137.198 26.472 137.241 27.0191 136.957 27.5294L136.953 27.5371L136.948 27.5446C136.647 28.0363 136.085 28.2657 135.427 28.3391C135.132 28.3843 134.793 28.3306 134.438 28.2264L134.432 28.2245L134.426 28.2225C134.108 28.1187 133.71 27.9658 133.235 27.7664L133.23 27.7641L133.224 27.7617C132.821 27.5793 132.568 27.4637 132.475 27.4193L130.982 26.8342C130.15 26.5081 129.387 26.2319 128.692 26.0051L128.68 26.0011L128.668 25.9965C128.006 25.7367 127.241 25.4599 126.374 25.1658L126.365 25.1625L126.355 25.1588C125.532 24.8362 124.781 24.597 124.102 24.4386L124.1 24.438L124.098 24.4374C123.441 24.2765 122.944 24.2038 122.594 24.2038C122.16 24.2038 121.715 24.2397 121.259 24.312C121.549 25.7233 121.379 26.9795 120.7 28.044L120.505 28.349L120.166 28.2125C118.672 27.6121 118.11 26.4517 117.793 25.2112L117.788 25.1918L117.785 25.1719C117.63 24.1747 117.415 23.3998 117.212 22.6981C117.198 22.6492 117.184 22.6005 117.17 22.552C116.984 21.9106 116.809 21.3031 116.723 20.6494C116.653 20.1164 116.756 19.5967 116.876 19.1851C116.936 18.9771 117.004 18.7894 117.061 18.6365C117.072 18.6068 117.082 18.5791 117.091 18.5533C117.135 18.4372 117.163 18.3595 117.18 18.3032C117.246 18.0702 117.301 17.8873 117.349 17.7312C117.474 17.3165 117.543 17.0908 117.612 16.6165L117.613 16.6067L117.615 16.597C117.654 16.3959 117.701 16.1839 117.749 15.9649C117.878 15.3818 118.017 14.7497 118.052 14.1448C118.32 9.45222 117.61 5.90671 116.075 3.13743L116.062 3.11394ZM120.831 24.39C120.803 24.2534 120.771 24.1149 120.733 23.9744C120.877 23.9448 121.02 23.9185 121.162 23.8955C121.649 23.8167 122.127 23.7773 122.594 23.7773C122.996 23.7773 123.533 23.8594 124.203 24.0237C124.907 24.1879 125.678 24.4343 126.517 24.7628C127.388 25.0585 128.16 25.3377 128.83 25.6005C129.534 25.8305 130.305 26.1097 131.143 26.4382L132.652 27.0295C132.719 27.0623 132.971 27.1773 133.407 27.3744C133.876 27.5715 134.262 27.7193 134.563 27.8179C134.899 27.9164 135.167 27.9493 135.368 27.9164C135.971 27.8507 136.374 27.6536 136.575 27.3251C136.776 26.9638 136.759 26.5696 136.525 26.1425C136.29 25.6826 135.921 25.3377 135.418 25.1078C134.312 24.5822 132.049 23.7445 128.629 22.5947C125.579 21.5296 123.358 20.6376 121.968 19.9189C121.814 19.8397 121.671 19.7625 121.538 19.6875C121.679 19.5952 121.814 19.5066 121.943 19.4214C122.548 19.0213 123.017 18.6994 123.348 18.4556C123.784 18.1271 124.103 17.8643 124.304 17.6672C124.539 17.4701 124.974 17.0923 125.611 16.5338C126.282 15.9425 127.053 15.302 127.925 14.6121C127.992 14.5464 128.16 14.3986 128.428 14.1686C128.696 13.9387 128.897 13.758 129.031 13.6266C129.199 13.4952 129.417 13.3145 129.685 13.0846C129.953 12.8218 130.138 12.6082 130.238 12.444C130.372 12.2469 130.49 12.0334 130.59 11.8034C130.724 11.5735 130.775 11.3599 130.741 11.1628C130.708 10.7029 130.573 10.2923 130.339 9.93095C130.138 9.53675 129.92 9.37249 129.685 9.43819C129.283 9.53675 128.931 9.73385 128.629 10.0295C128.327 10.3251 127.992 10.7029 127.623 11.1628C127.288 11.6227 126.986 11.9841 126.718 12.2469C126.45 12.5097 126.098 12.8382 125.662 13.2324C125.259 13.6266 124.974 13.8894 124.807 14.0208C124.673 14.1522 124.471 14.3329 124.203 14.5628C123.969 14.7928 123.784 14.957 123.65 15.0556C123.516 15.1213 123.365 15.2198 123.197 15.3512C123.03 15.4826 122.845 15.614 122.644 15.7454C122.443 15.844 122.225 15.959 121.99 16.0904C121.874 16.1473 121.73 16.2206 121.558 16.3103C121.432 16.376 121.291 16.4505 121.135 16.5338C121.125 16.3855 121.118 16.2272 121.115 16.0593C121.106 15.5577 121.128 14.9706 121.152 14.3097C121.195 13.1334 121.247 11.7233 121.151 10.1465C121.05 8.46737 120.811 7.10829 120.613 5.99151C120.483 5.25112 120.371 4.61723 120.331 4.06718C120.297 3.47588 120.13 2.85172 119.828 2.19472C119.579 1.6523 119.068 0.955715 118.486 0.765734C116.71 0.568632 116.072 1.96737 116.458 2.93385C118.043 5.7929 118.757 9.42356 118.486 14.1686C118.449 14.8099 118.299 15.4944 118.168 16.0864C118.122 16.2969 118.078 16.4958 118.043 16.6768C117.969 17.1839 117.89 17.4427 117.761 17.8705C117.714 18.0246 117.661 18.2007 117.599 18.4182C117.578 18.4917 117.541 18.5893 117.498 18.7058C117.331 19.1535 117.061 19.8808 117.154 20.595C117.236 21.216 117.403 21.7941 117.591 22.4425C117.805 23.1832 118.046 24.0154 118.215 25.1078C118.517 26.2904 119.023 27.2923 120.331 27.8179C120.939 26.8644 121.106 25.7218 120.831 24.39ZM138.427 5.35025L138.423 5.34142C138.158 4.59898 138.128 3.76613 138.305 2.85821C138.342 2.64619 138.446 2.29919 138.797 2.18433L138.813 2.17915L138.829 2.17518C139.004 2.13244 139.228 2.11553 139.482 2.11341C139.797 2.03942 140.11 2.07277 140.399 2.22623C140.69 2.38074 140.923 2.63875 141.113 2.95098C141.534 3.55692 141.706 4.24175 141.632 4.98613C141.611 5.3654 141.511 5.71568 141.283 5.98799C141.048 6.26977 140.719 6.41735 140.349 6.46111C139.927 6.51924 139.527 6.46978 139.18 6.27062C138.833 6.07108 138.59 5.75034 138.43 5.35893L138.427 5.35025ZM140.293 6.0382C140.863 5.9725 141.164 5.61114 141.198 4.95414C141.265 4.29713 141.114 3.70583 140.745 3.18022C140.41 2.62177 140.008 2.40825 139.538 2.53965C139.27 2.53965 139.069 2.55607 138.935 2.58892C138.834 2.62177 138.767 2.73675 138.734 2.93385C138.566 3.78795 138.6 4.54351 138.834 5.20051C139.102 5.85752 139.589 6.13675 140.293 6.0382ZM138.908 28.6987L138.752 28.4128C138.453 27.8629 138.272 27.2324 138.2 26.5299L138.199 26.5194L138.198 26.5088C138.164 25.8266 138.198 25.2017 138.305 24.6373C138.403 24.0969 138.485 23.4221 138.551 22.61L138.552 22.6016L138.553 22.5932C138.651 21.7893 138.7 21.0884 138.701 20.4884C138.666 19.8964 138.814 18.8298 139.111 17.3389C139.262 16.5846 139.37 16.0108 139.436 15.6151C139.469 15.4165 139.49 15.2681 139.502 15.1664C139.506 15.1318 139.508 15.1055 139.509 15.0865L139.505 15.0755V15.0063C139.505 14.9414 139.477 14.6635 139.408 14.123L139.407 14.1099L139.406 14.0967C139.372 13.5731 139.339 13.1896 139.308 12.9404L139.304 12.914V11.8349L139.306 11.8173C139.342 11.3938 139.434 11.0174 139.607 10.7152C139.782 10.3769 140.05 10.1184 140.425 10.0136L140.512 9.98923L140.602 10.001C141.307 10.0931 141.885 10.6479 142.372 11.4302C142.873 12.203 143.09 13.016 142.996 13.8562C143.029 14.0512 143.024 14.3002 143.002 14.5718C142.976 14.9011 142.919 15.3169 142.834 15.8156C142.665 16.8091 142.462 17.7864 142.226 18.7474L141.935 20.0781C141.933 20.3845 141.916 20.8222 141.884 21.3865C141.85 21.98 141.816 22.477 141.782 22.8765C141.748 23.276 141.698 23.773 141.63 24.3665L141.63 24.3692C141.562 24.9401 141.458 25.4413 141.314 25.8675C141.209 26.2751 141.071 26.6814 140.899 27.0861C140.748 27.4915 140.533 27.8403 140.248 28.1195L140.237 28.1311L140.224 28.1417C139.935 28.3844 139.602 28.5475 139.23 28.6284L138.908 28.6987ZM140.494 26.9309C140.661 26.5367 140.796 26.1425 140.896 25.7483C141.03 25.3541 141.131 24.8778 141.198 24.3193C141.265 23.728 141.315 23.2353 141.349 22.8411C141.382 22.4469 141.416 21.9541 141.449 21.3628C141.483 20.7715 141.5 20.328 141.5 20.0324L141.801 18.6527C142.036 17.7 142.237 16.7309 142.405 15.7454C142.573 14.7599 142.623 14.1358 142.556 13.873C142.656 13.1174 142.472 12.3783 142.003 11.6556C141.533 10.9 141.047 10.4894 140.544 10.4237C140.309 10.4894 140.125 10.6537 139.991 10.9165C139.857 11.1464 139.773 11.4585 139.739 11.8527V12.8875C139.773 13.1503 139.807 13.5445 139.84 14.0701C139.907 14.5957 139.941 14.9078 139.941 15.0063C139.974 15.1049 139.84 15.9097 139.538 17.4208C139.237 18.9319 139.102 19.9503 139.136 20.4759C139.136 21.1 139.086 21.8227 138.985 22.644C138.918 23.4652 138.834 24.1551 138.734 24.7136C138.633 25.2392 138.6 25.8305 138.633 26.4875C138.7 27.1445 138.868 27.7193 139.136 28.2121C139.438 28.1464 139.706 28.015 139.941 27.8179C140.175 27.5879 140.36 27.2923 140.494 26.9309ZM139.51 15.0488C139.51 15.0487 139.511 15.0516 139.51 15.058C139.51 15.0521 139.51 15.0488 139.51 15.0488ZM158.961 21.1827H159.037C159.035 21.1827 159.054 21.1818 159.097 21.1693C159.143 21.156 159.205 21.1333 159.285 21.0978C159.445 21.0267 159.652 20.9148 159.911 20.7565C160.478 20.3968 161.012 20.0535 161.512 19.7268L161.517 19.7233L161.523 19.72C162.094 19.37 162.703 19.1069 163.347 18.9316L163.35 18.9308L163.353 18.9301C164.084 18.7415 164.757 18.8331 165.236 19.3434C165.635 19.7355 165.949 20.1683 166.172 20.6421L166.342 21.0042L165.985 21.1952C165.248 21.5892 164.36 22.0654 163.321 22.6237C162.281 23.1823 161.565 23.574 161.168 23.8008L161.163 23.8039L161.157 23.8068C160.785 24.0056 160.246 24.2862 159.541 24.6479L159.538 24.6497L159.534 24.6515C158.861 24.9813 158.204 25.2947 157.564 25.5917L157.556 25.5957L157.547 25.5994C156.91 25.862 156.156 26.174 155.285 26.5353L155.283 26.5361C152.194 27.7996 149.068 28.5663 145.905 28.8336C144.926 28.9427 144.113 28.6841 143.595 27.9653L143.591 27.9607L143.588 27.9559C143.122 27.271 142.926 26.4203 142.962 25.4375L142.962 25.4336L142.963 25.4297C143.033 24.1479 143.404 22.8592 144.064 21.5663L144.065 21.5643L144.066 21.5624C144.756 20.2431 145.637 19.0427 146.705 17.9617C147.757 16.8978 148.828 15.9481 149.919 15.1137C151.005 14.2823 152.109 13.5492 153.233 12.9151C154.165 12.3542 155.08 12.1702 155.901 12.5495C156.777 12.9378 157.159 13.7549 157.159 14.8092C157.159 15.3599 156.938 15.8434 156.529 16.2441C156.157 16.6085 155.742 16.8879 155.282 17.0753C154.872 17.2428 154.346 17.4421 153.706 17.6732L153.697 17.6766L153.687 17.6797C153.049 17.8772 152.632 18.0193 152.42 18.1084C151.34 18.5619 150.153 19.5359 148.866 21.0876C147.769 22.4455 147.106 23.6592 146.835 24.7322C147.938 24.8189 149.069 24.7251 150.231 24.4479C151.611 24.0934 153.299 23.5106 155.297 22.695C157.3 21.8446 158.505 21.3453 158.889 21.2084L158.961 21.1827ZM155.467 23.0875C153.455 23.9087 151.745 24.5 150.337 24.8614C149.114 25.1537 147.917 25.2509 146.747 25.1531C146.602 25.1409 146.458 25.1258 146.314 25.1078C146.336 24.9696 146.364 24.8298 146.398 24.6883C146.68 23.5168 147.39 22.2276 148.527 20.8208C149.834 19.244 151.075 18.2092 152.248 17.7165C152.483 17.6179 152.919 17.4701 153.556 17.273C154.193 17.043 154.713 16.8459 155.115 16.6817C155.517 16.5174 155.886 16.271 156.221 15.9425C156.557 15.614 156.724 15.2363 156.724 14.8092C156.724 13.8565 156.389 13.2324 155.718 12.9367C155.081 12.6411 154.327 12.7561 153.455 13.2817C152.349 13.9058 151.259 14.6285 150.186 15.4498C149.114 16.271 148.057 17.2073 147.018 18.2585C145.979 19.3097 145.124 20.4759 144.453 21.757C143.816 23.0053 143.464 24.2372 143.397 25.4527C143.364 26.3725 143.548 27.128 143.95 27.7193C144.353 28.2778 144.99 28.5078 145.861 28.4092C148.979 28.1464 152.064 27.3908 155.115 26.1425C155.987 25.7812 156.741 25.4691 157.378 25.2063C158.015 24.9107 158.669 24.5986 159.339 24.2701C160.044 23.9087 160.58 23.6295 160.949 23.4324C161.351 23.2024 162.072 22.8082 163.111 22.2498C164.151 21.6913 165.039 21.215 165.777 20.8208C165.576 20.3937 165.291 19.9995 164.922 19.6382C164.587 19.2768 164.1 19.1783 163.463 19.3425C162.86 19.5068 162.29 19.7532 161.753 20.0817C161.251 20.4102 160.714 20.7551 160.144 21.1164C159.608 21.445 159.239 21.6092 159.038 21.6092C158.669 21.7406 157.479 22.2334 155.467 23.0875ZM168.338 14.2373L168.338 14.2354C168.138 9.45163 167.687 5.68982 166.993 2.9376L166.978 2.88083L166.98 2.82238C167.017 1.62388 167.494 0.709219 168.465 0.193625L168.795 0.0184326L169.152 0.48438C169.185 0.515529 169.212 0.538912 169.233 0.55588C169.236 0.557636 169.238 0.559286 169.24 0.560833C169.243 0.56094 169.247 0.561003 169.251 0.561003C169.283 0.561003 169.329 0.556984 169.392 0.544644L169.522 0.519139L169.645 0.56916C170.199 0.795712 170.612 1.32711 170.93 2.01968C171.249 2.71324 171.433 3.38767 171.471 4.04021C171.571 5.42268 171.705 7.50961 171.873 10.2998C172.016 12.6503 172.134 14.4989 172.228 15.8463C172.326 15.7959 172.414 15.7519 172.49 15.7142C172.717 15.5873 172.931 15.4745 173.13 15.3761C173.314 15.2556 173.48 15.1363 173.631 15.0182C173.799 14.8863 173.963 14.7758 174.122 14.6939C174.23 14.6105 174.388 14.4697 174.601 14.2612L174.611 14.2512L174.622 14.2419C174.888 14.0137 175.081 13.8405 175.204 13.7192L175.221 13.7025L175.24 13.6878C175.387 13.5731 175.656 13.3262 176.059 12.9308L176.066 12.9248L176.072 12.919C176.506 12.5268 176.853 12.2025 177.116 11.9453C177.36 11.7053 177.647 11.3645 177.974 10.9149L177.98 10.907L177.986 10.8993C178.362 10.4309 178.709 10.0392 179.027 9.72791C179.381 9.38075 179.8 9.14432 180.279 9.02596C180.544 8.9544 180.795 9.02296 180.995 9.17405C181.174 9.30869 181.312 9.50576 181.423 9.72057C181.689 10.1366 181.839 10.6039 181.879 11.1141C181.925 11.4201 181.842 11.7182 181.686 11.9931C181.579 12.2345 181.454 12.4612 181.311 12.6725C181.182 12.8808 180.969 13.121 180.698 13.3862L180.688 13.3962L180.677 13.4055C180.416 13.6292 180.199 13.8095 180.027 13.945C179.883 14.0845 179.679 14.2669 179.42 14.4896C179.148 14.7226 178.993 14.8602 178.938 14.9137L178.922 14.9297L178.904 14.9439C178.037 15.6301 177.272 16.2657 176.608 16.8509L176.607 16.8517C175.981 17.4003 175.546 17.7775 175.305 17.9806C175.083 18.1959 174.751 18.4682 174.319 18.7936L174.317 18.7952L174.315 18.7968C174.012 19.0195 173.601 19.3033 173.084 19.6473C174.453 20.3315 176.579 21.1797 179.478 22.1922C182.89 23.3392 185.176 24.184 186.311 24.7226C186.894 24.9899 187.335 25.3988 187.616 25.9462C187.904 26.4721 187.946 27.0192 187.662 27.5294L187.658 27.5371L187.653 27.5446C187.352 28.0363 186.79 28.2657 186.132 28.3391C185.837 28.3843 185.498 28.3306 185.144 28.2264L185.137 28.2245L185.131 28.2225C184.813 28.1187 184.415 27.9658 183.941 27.7664L183.935 27.7641L183.93 27.7617C183.527 27.5794 183.273 27.4637 183.18 27.4193L181.687 26.8342C180.855 26.5081 180.092 26.2319 179.398 26.0051L179.386 26.0011L179.374 25.9965C178.711 25.7367 177.947 25.4599 177.08 25.1658L177.07 25.1625L177.06 25.1588C176.237 24.8362 175.487 24.597 174.808 24.4386L174.805 24.438L174.803 24.4374C174.146 24.2765 173.65 24.2038 173.299 24.2038C172.866 24.2038 172.421 24.2397 171.965 24.312C172.254 25.7233 172.084 26.9795 171.405 28.044L171.211 28.349L170.871 28.2125C169.455 27.6434 168.54 26.6925 168.2 25.359L168.199 25.356L168.199 25.3529C167.694 23.2456 167.371 21.6004 167.234 20.4258L167.227 20.3631L167.238 20.301C167.31 19.9183 167.465 19.3102 167.7 18.4884C167.931 17.6813 168.094 16.9443 168.191 16.2764L168.193 16.2666L168.195 16.2569C168.322 15.6007 168.37 14.9278 168.338 14.2373ZM171.537 24.39C171.509 24.2534 171.476 24.1149 171.439 23.9744C171.582 23.9448 171.725 23.9185 171.867 23.8955C172.355 23.8167 172.832 23.7773 173.299 23.7773C173.702 23.7773 174.238 23.8594 174.909 24.0237C175.613 24.1879 176.384 24.4343 177.222 24.7628C178.094 25.0585 178.865 25.3377 179.535 25.6005C180.24 25.8305 181.011 26.1097 181.849 26.4382L183.358 27.0295C183.425 27.0623 183.676 27.1773 184.112 27.3744C184.581 27.5715 184.967 27.7193 185.269 27.8179C185.604 27.9164 185.872 27.9493 186.073 27.9164C186.677 27.8507 187.079 27.6536 187.28 27.3251C187.482 26.9638 187.465 26.5696 187.23 26.1425C186.995 25.6826 186.627 25.3377 186.124 25.1078C185.017 24.5822 182.754 23.7445 179.334 22.5947C176.284 21.5296 174.064 20.6376 172.673 19.9189C172.52 19.8397 172.376 19.7625 172.243 19.6875C172.384 19.5952 172.519 19.5066 172.648 19.4214C173.253 19.0213 173.722 18.6994 174.054 18.4556C174.49 18.1271 174.808 17.8643 175.009 17.6672C175.244 17.4701 175.68 17.0923 176.317 16.5338C176.987 15.9425 177.758 15.302 178.63 14.6121C178.697 14.5464 178.865 14.3986 179.133 14.1686C179.401 13.9387 179.603 13.758 179.737 13.6266C179.904 13.4952 180.122 13.3145 180.39 13.0846C180.659 12.8218 180.843 12.6082 180.944 12.444C181.078 12.2469 181.195 12.0334 181.296 11.8034C181.43 11.5735 181.48 11.3599 181.447 11.1628C181.413 10.7029 181.279 10.2923 181.044 9.93095C180.843 9.53675 180.625 9.37249 180.39 9.43819C179.988 9.53675 179.636 9.73385 179.334 10.0295C179.033 10.3251 178.697 10.7029 178.328 11.1628C177.993 11.6227 177.691 11.9841 177.423 12.2469C177.155 12.5097 176.803 12.8382 176.367 13.2324C175.965 13.6266 175.68 13.8894 175.512 14.0208C175.378 14.1522 175.177 14.3329 174.909 14.5628C174.674 14.7928 174.49 14.957 174.355 15.0556C174.221 15.1213 174.07 15.2198 173.903 15.3512C173.735 15.4826 173.551 15.614 173.35 15.7454C173.148 15.844 172.931 15.959 172.696 16.0904C172.579 16.1475 172.434 16.2213 172.261 16.3116C172.136 16.377 171.996 16.4511 171.841 16.5338C171.83 16.3859 171.819 16.2301 171.807 16.0663C171.711 14.7025 171.588 12.7888 171.439 10.3252C171.271 7.53288 171.137 5.44689 171.036 4.06718C171.003 3.47588 170.835 2.85172 170.533 2.19472C170.232 1.53771 169.879 1.12709 169.477 0.962836C169.31 0.995686 169.175 0.995686 169.075 0.962836C169.008 0.929984 168.924 0.864284 168.823 0.765734L168.672 0.568632C167.868 0.995686 167.449 1.75124 167.415 2.8353C168.119 5.62757 168.572 9.42177 168.773 14.2179C168.807 14.9406 168.756 15.6469 168.622 16.3367C168.522 17.0266 168.354 17.7822 168.119 18.6034C167.885 19.4247 167.734 20.016 167.667 20.3773C167.801 21.5271 168.119 23.1532 168.622 25.2556C168.924 26.4382 169.729 27.2923 171.036 27.8179C171.644 26.8644 171.811 25.7218 171.537 24.39Z" fill="#FF4000"/>
</svg>
