<svg width="156" height="24" viewBox="0 0 156 24" fill="none" xmlns="http://www.w3.org/2000/svg">
<path fill-rule="evenodd" clip-rule="evenodd" d="M0 22.6366H8.63751C11.9589 22.6366 14.3369 21.8199 15.7716 20.1866C17.2062 18.534 17.9236 16.0648 17.9236 12.7789C17.9236 9.47385 17.1768 7.07189 15.6831 5.57306C14.1895 4.07424 11.7427 3.32483 8.34272 3.32483H0V22.6366ZM8.16548 12.0005C9.12848 12.0005 9.60998 11.376 9.60998 10.127C9.60998 8.85876 9.06952 8.22464 7.98861 8.22464H6.48515V12.0005H8.16548Z" fill="#FEEFDD"/>
<path fill-rule="evenodd" clip-rule="evenodd" d="M25.7943 17.6501H27.8077L28.9279 22.6366H35.8851L33.9394 16.0648C35.3937 14.9119 36.1209 12.9999 36.1209 10.3289C36.1209 7.63875 35.4625 5.80365 34.1458 4.82365C32.829 3.82444 30.6475 3.32483 27.6013 3.32483H19.2881V22.6366H25.7943V17.6501ZM27.327 12.0005C28.29 12.0005 28.7715 11.376 28.7715 10.127C28.7715 8.85876 28.2311 8.22464 27.1502 8.22464H25.6467V12.0005H27.327Z" fill="#FEEFDD"/>
<path fill-rule="evenodd" clip-rule="evenodd" d="M86.101 17.6501H88.1143L89.2345 22.6366H96.1917L94.2461 16.0648C95.7004 14.9119 96.4276 12.9999 96.4276 10.3289C96.4276 7.63875 95.7692 5.80365 94.4524 4.82365C93.1357 3.82444 90.9542 3.32483 87.908 3.32483H79.5947V22.6366H86.101V17.6501ZM87.6337 12.0005C88.5967 12.0005 89.0782 11.376 89.0782 10.127C89.0782 8.85876 88.5377 8.22464 87.4568 8.22464H85.9534V12.0005H87.6337Z" fill="#FEEFDD"/>
<path d="M37.4834 22.6366V3.32483H44.3227V22.6366H37.4834Z" fill="#FEEFDD"/>
<path d="M62.953 3.32483L59.0912 22.6366H49.0092L45 3.32483H52.252L53.7849 15.8919H54.3155L55.7011 3.32483H62.953Z" fill="#FEEFDD"/>
<path d="M63.709 22.6366V3.32483H78.5077V8.65718H70.5482V10.3001H76.7389V15.5748H70.5482V17.3042H78.5077V22.6366H63.709Z" fill="#FEEFDD"/>
<path d="M98.3188 11.7257C98.5439 7.7988 97.9508 4.79411 96.6356 2.428C96.3159 1.62816 96.845 0.470581 98.3188 0.6337C98.8015 0.790925 99.2254 1.36741 99.4321 1.81631C99.6825 2.36003 99.8216 2.87658 99.8495 3.36593C99.9329 4.50776 100.391 6.08621 100.53 8.39705C100.669 10.6807 100.434 12.5413 100.517 13.6832C100.823 13.5201 101.06 13.3977 101.227 13.3162C101.421 13.2074 101.602 13.1123 101.769 13.0307C101.936 12.922 102.089 12.8132 102.228 12.7045C102.367 12.5957 102.492 12.5142 102.604 12.4598C102.715 12.3782 102.868 12.2423 103.063 12.052C103.285 11.8617 103.452 11.7122 103.564 11.6034C103.703 11.4947 103.939 11.2772 104.273 10.9509C104.635 10.6247 104.927 10.3528 105.149 10.1353C105.372 9.91786 105.622 9.6188 105.9 9.2382C106.207 8.85759 106.485 8.54494 106.735 8.30026C106.985 8.05559 107.278 7.89247 107.611 7.81091C107.806 7.75654 107.987 7.89247 108.154 8.2187C108.349 8.51776 108.46 8.85759 108.488 9.2382C108.516 9.40131 108.474 9.57802 108.363 9.76833C108.279 9.95863 108.182 10.1353 108.071 10.2985C107.987 10.4344 107.834 10.6111 107.611 10.8286C107.389 11.0189 107.208 11.1684 107.069 11.2772C106.958 11.3859 106.791 11.5354 106.568 11.7257C106.346 11.9161 106.207 12.0384 106.151 12.0928C105.428 12.6637 104.788 13.1938 104.231 13.6832C103.703 14.1453 103.341 14.458 103.146 14.6211C102.979 14.7842 102.715 15.0017 102.353 15.2736C102.019 15.5183 101.519 15.8581 100.851 16.2931C101.964 16.9184 103.925 17.7204 106.735 18.6991C109.573 19.6506 111.451 20.3438 112.369 20.7788C112.786 20.9691 113.092 21.2546 113.287 21.6352C113.482 21.9886 113.496 22.3149 113.329 22.6139C113.162 22.8858 112.828 23.0489 112.327 23.1033C112.16 23.1304 111.938 23.1033 111.659 23.0217C111.409 22.9401 111.089 22.8178 110.7 22.6547C110.338 22.4916 110.129 22.3964 110.074 22.3692C109.934 22.3149 109.517 22.1517 108.822 21.8799C108.126 21.608 107.486 21.3769 106.902 21.1866C106.346 20.9691 105.706 20.738 104.982 20.4934C104.287 20.2215 103.647 20.0176 103.063 19.8817C102.506 19.7457 102.061 19.6778 101.727 19.6778C101.227 19.6778 100.712 19.7321 100.183 19.8409C100.517 21.0915 100.406 22.1517 99.8495 23.0217C98.7644 22.5867 98.3445 21.7575 98.0941 20.7788C97.8301 19.0835 97.3587 18.1452 97.2138 17.0441C97.1157 16.2992 97.4979 15.5371 97.5823 15.2426C97.777 14.563 97.8673 14.3724 97.9508 13.8015C98.0621 13.2305 98.2775 12.4452 98.3188 11.7257Z" fill="#FF4000"/>
<path d="M115.788 2.10177C116.177 1.99302 116.511 2.16973 116.789 2.6319C117.095 3.06688 117.22 3.55624 117.165 4.09996C117.137 4.64369 116.887 4.94274 116.414 4.99712C115.829 5.07868 115.426 4.84759 115.203 4.30386C115.009 3.76014 114.981 3.13485 115.12 2.428C115.148 2.26488 115.203 2.16973 115.287 2.14254C115.398 2.11536 115.565 2.10177 115.788 2.10177ZM115.454 23.3479C115.231 22.9401 115.092 22.4644 115.036 21.9207C115.009 21.3769 115.036 20.8876 115.12 20.4526C115.203 19.9904 115.273 19.4195 115.329 18.7398C115.412 18.0602 115.454 17.4621 115.454 16.9455C115.426 16.5106 115.537 15.6678 115.788 14.4172C116.038 13.1666 116.149 12.5006 116.121 12.419C116.121 12.3374 116.094 12.0792 116.038 11.6442C116.01 11.2092 115.982 10.883 115.955 10.6655C115.955 10.4208 115.955 10.1353 115.955 9.80911C115.982 9.48287 116.052 9.2246 116.163 9.0343C116.274 8.81681 116.427 8.68087 116.622 8.6265C117.04 8.68087 117.443 9.0207 117.832 9.64599C118.222 10.2441 118.375 10.8558 118.291 11.4811C118.347 11.6986 118.305 12.2151 118.166 13.0307C118.027 13.8463 117.86 14.6483 117.665 15.4367C117.499 16.1979 117.415 16.5785 117.415 16.5785C117.415 16.8232 117.401 17.1902 117.373 17.6796C117.346 18.1689 117.318 18.5767 117.29 18.903C117.262 19.2292 117.22 19.637 117.165 20.1263C117.109 20.5885 117.026 20.9827 116.914 21.309C116.831 21.6352 116.72 21.9614 116.58 22.2877C116.469 22.5867 116.316 22.8314 116.121 23.0217C115.927 23.1848 115.704 23.2936 115.454 23.3479Z" fill="#FF4000"/>
<path d="M121.41 20.7788C122.495 20.9148 123.608 20.8468 124.748 20.5749C125.917 20.2759 127.336 19.7865 129.005 19.1069C130.674 18.4 131.662 17.9922 131.968 17.8835C132.135 17.8835 132.441 17.7475 132.886 17.4757C133.359 17.1766 133.804 16.8912 134.221 16.6193C134.667 16.3474 135.14 16.1435 135.64 16.0076C136.169 15.8717 136.572 15.9532 136.85 16.2523C137.157 16.5513 137.393 16.8776 137.56 17.231C136.948 17.5572 136.211 17.9514 135.348 18.4136C134.486 18.8758 133.888 19.202 133.554 19.3923C133.248 19.5554 132.803 19.7865 132.218 20.0856C131.662 20.3574 131.119 20.6157 130.591 20.8604C130.062 21.0779 129.436 21.3361 128.713 21.6352C126.181 22.6683 123.622 23.2936 121.034 23.5111C120.311 23.5926 119.782 23.4023 119.449 22.9401C119.115 22.4508 118.962 21.8255 118.99 21.0643C119.045 20.0584 119.337 19.0389 119.866 18.0058C120.422 16.9455 121.132 15.9804 121.994 15.1105C122.857 14.2405 123.733 13.4657 124.623 12.786C125.514 12.1064 126.418 11.5083 127.336 10.9917C128.059 10.5567 128.685 10.4616 129.214 10.7063C129.77 10.9509 130.048 11.4675 130.048 12.2559C130.048 12.6093 129.909 12.922 129.631 13.1938C129.353 13.4657 129.047 13.6696 128.713 13.8055C128.379 13.9414 127.948 14.1046 127.419 14.2949C126.891 14.458 126.529 14.5803 126.334 14.6619C125.36 15.0697 124.331 15.926 123.246 17.231C122.189 18.5359 121.577 19.7186 121.41 20.7788Z" fill="#FF4000"/>
<path d="M140.046 11.7665C139.879 7.79732 139.504 4.65729 138.919 2.34644C138.947 1.44929 139.295 0.824005 139.963 0.470581L140.088 0.6337C140.171 0.715258 140.241 0.769631 140.297 0.796818C140.38 0.824005 140.491 0.824005 140.63 0.796818C140.964 0.93275 141.256 1.27258 141.507 1.81631C141.757 2.36003 141.896 2.87658 141.924 3.36593C142.008 4.50776 142.119 6.2341 142.258 8.54494C142.397 10.8286 142.508 12.5413 142.592 13.6832C142.898 13.5201 143.134 13.3977 143.301 13.3162C143.496 13.2074 143.677 13.1123 143.844 13.0307C144.011 12.922 144.164 12.8132 144.303 12.7045C144.442 12.5957 144.567 12.5142 144.678 12.4598C144.79 12.3782 144.943 12.2423 145.137 12.052C145.36 11.8617 145.527 11.7122 145.638 11.6034C145.777 11.4947 146.014 11.2772 146.348 10.9509C146.709 10.6247 147.001 10.3528 147.224 10.1353C147.447 9.91786 147.697 9.6188 147.975 9.2382C148.281 8.85759 148.559 8.54494 148.81 8.30026C149.06 8.05559 149.352 7.89247 149.686 7.81091C149.881 7.75654 150.062 7.89247 150.229 8.2187C150.423 8.51776 150.535 8.85759 150.562 9.2382C150.59 9.40131 150.549 9.57802 150.437 9.76833C150.354 9.95863 150.256 10.1353 150.145 10.2985C150.062 10.4344 149.909 10.6111 149.686 10.8286C149.464 11.0189 149.283 11.1684 149.144 11.2772C149.032 11.3859 148.865 11.5354 148.643 11.7257C148.42 11.9161 148.281 12.0384 148.226 12.0928C147.502 12.6637 146.862 13.1938 146.306 13.6832C145.777 14.1453 145.416 14.458 145.221 14.6211C145.054 14.7842 144.79 15.0017 144.428 15.2736C144.094 15.5183 143.593 15.8581 142.926 16.2931C144.039 16.9184 146 17.7204 148.81 18.6991C151.647 19.6506 153.525 20.3438 154.443 20.7788C154.861 20.9691 155.167 21.2546 155.362 21.6352C155.556 21.9886 155.57 22.3149 155.403 22.6139C155.236 22.8858 154.903 23.0489 154.402 23.1033C154.235 23.1304 154.012 23.1033 153.734 23.0217C153.484 22.9401 153.164 22.8178 152.774 22.6547C152.413 22.4916 152.204 22.3964 152.148 22.3692C152.009 22.3149 151.592 22.1517 150.896 21.8799C150.201 21.608 149.561 21.3769 148.977 21.1866C148.42 20.9691 147.78 20.738 147.057 20.4934C146.362 20.2215 145.722 20.0176 145.137 19.8817C144.581 19.7457 144.136 19.6778 143.802 19.6778C143.301 19.6778 142.787 19.7321 142.258 19.8409C142.592 21.0915 142.481 22.1517 141.924 23.0217C140.839 22.5867 140.171 21.8799 139.921 20.9012C139.504 19.1612 139.239 17.8155 139.128 16.864C139.184 16.5649 139.309 16.0756 139.504 15.3959C139.698 14.7163 139.838 14.091 139.921 13.5201C140.032 12.9491 140.074 12.3646 140.046 11.7665Z" fill="#FF4000"/>
<path fill-rule="evenodd" clip-rule="evenodd" d="M96.3072 2.57718L96.299 2.55656C96.0955 2.04754 96.1614 1.43058 96.5131 0.961312C96.8769 0.475806 97.5128 0.189456 98.3592 0.283138L98.3968 0.287302L98.4327 0.299001C98.7624 0.406395 99.0408 0.643376 99.2533 0.886535C99.4699 1.13438 99.6452 1.41979 99.7612 1.67159C100.025 2.24551 100.178 2.8036 100.21 3.34359C100.242 3.77886 100.33 4.27966 100.438 4.88843C100.466 5.04632 100.495 5.21147 100.525 5.38463C100.668 6.21619 100.82 7.2026 100.89 8.37621C100.961 9.53496 100.936 10.5843 100.905 11.4804C100.901 11.61 100.896 11.7358 100.892 11.8579C100.874 12.3279 100.859 12.7427 100.86 13.1034C100.932 13.0662 100.998 13.0334 101.056 13.005C101.244 12.9 101.421 12.8066 101.587 12.7252C101.739 12.6255 101.877 12.5267 102.002 12.429C102.142 12.3198 102.278 12.2284 102.409 12.1606C102.499 12.0916 102.631 11.975 102.807 11.8025L102.816 11.7942L102.825 11.7865C103.046 11.5977 103.205 11.4543 103.308 11.354L103.322 11.3401L103.338 11.3279C103.459 11.233 103.683 11.0287 104.017 10.7015L104.023 10.6965L104.028 10.6917C104.388 10.3671 104.676 10.0988 104.894 9.88589C105.097 9.68726 105.334 9.4052 105.606 9.03316L105.611 9.0266L105.616 9.02025C105.928 8.63258 106.216 8.30846 106.48 8.05081C106.774 7.7635 107.121 7.56783 107.519 7.46988C107.739 7.41067 107.947 7.46741 108.113 7.59245C108.261 7.70386 108.376 7.86695 108.468 8.04472C108.689 8.38899 108.814 8.77577 108.847 9.19802C108.885 9.45119 108.816 9.69791 108.686 9.92541C108.598 10.1252 108.494 10.3128 108.375 10.4877C108.268 10.6601 108.091 10.8589 107.867 11.0783L107.858 11.0866L107.849 11.0944C107.633 11.2794 107.452 11.4287 107.31 11.5408C107.19 11.6563 107.021 11.8072 106.806 11.9915C106.58 12.1844 106.451 12.2982 106.406 12.3425L106.392 12.3557L106.378 12.3675C105.658 12.9354 105.023 13.4614 104.473 13.9457L104.472 13.9464C103.952 14.4004 103.592 14.7125 103.391 14.8806C103.207 15.0588 102.932 15.2841 102.573 15.5535L102.571 15.5548L102.57 15.5561C102.318 15.7404 101.977 15.9753 101.548 16.26C102.685 16.8262 104.449 17.5281 106.854 18.366C109.685 19.3154 111.582 20.0145 112.524 20.4602C113.007 20.6814 113.374 21.0197 113.607 21.4727C113.846 21.908 113.881 22.3608 113.645 22.7831L113.642 22.7894L113.638 22.7957C113.388 23.2026 112.922 23.3924 112.376 23.4532C112.131 23.4905 111.85 23.4461 111.555 23.3599L111.55 23.3584L111.545 23.3567C111.281 23.2707 110.951 23.1442 110.557 22.9792L110.553 22.9773L110.548 22.9753C110.214 22.8244 110.003 22.7287 109.926 22.692L108.687 22.2077C107.997 21.9379 107.364 21.7093 106.788 21.5216L106.778 21.5183L106.768 21.5145C106.218 21.2995 105.583 21.0704 104.864 20.827L104.856 20.8243L104.848 20.8212C104.165 20.5543 103.542 20.3563 102.979 20.2252L102.977 20.2247L102.975 20.2242C102.43 20.091 102.018 20.0309 101.727 20.0309C101.367 20.0309 100.998 20.0605 100.62 20.1204C100.86 21.2884 100.719 22.328 100.155 23.2089L99.994 23.4613L99.7122 23.3484C98.4729 22.8515 98.0062 21.8912 97.7436 20.8646L97.7394 20.8485L97.7369 20.8321C97.6083 20.0068 97.4295 19.3654 97.2616 18.7848C97.2498 18.7443 97.2382 18.704 97.2265 18.6639C97.0725 18.133 96.9266 17.6303 96.8554 17.0893C96.7973 16.6482 96.8825 16.2181 96.9822 15.8775C97.0326 15.7053 97.0887 15.55 97.1356 15.4235C97.1447 15.3988 97.1533 15.3759 97.1612 15.3546C97.197 15.2585 97.221 15.1942 97.2343 15.1476C97.2896 14.9547 97.3355 14.8034 97.3748 14.6742C97.479 14.3311 97.5357 14.1443 97.5931 13.7517L97.5942 13.7436L97.5958 13.7355C97.6282 13.5691 97.667 13.3937 97.7071 13.2125C97.8137 12.7299 97.9293 12.2068 97.958 11.7061C98.1807 7.82266 97.5919 4.88844 96.318 2.59662L96.3072 2.57718ZM100.265 20.1849C100.241 20.0719 100.214 19.9573 100.183 19.841C100.302 19.8165 100.421 19.7947 100.539 19.7757C100.943 19.7105 101.339 19.6779 101.727 19.6779C102.061 19.6779 102.506 19.7459 103.063 19.8818C103.647 20.0177 104.287 20.2216 104.982 20.4935C105.705 20.7382 106.345 20.9693 106.902 21.1868C107.486 21.3771 108.126 21.6081 108.821 21.88L110.073 22.3694C110.129 22.3965 110.338 22.4917 110.699 22.6548C111.089 22.8179 111.409 22.9403 111.659 23.0218C111.937 23.1034 112.16 23.1306 112.327 23.1034C112.828 23.049 113.161 22.8859 113.328 22.614C113.495 22.315 113.481 21.9888 113.287 21.6353C113.092 21.2547 112.786 20.9693 112.369 20.779C111.451 20.344 109.573 19.6507 106.735 18.6992C104.204 17.8177 102.362 17.0795 101.207 16.4847C101.08 16.4191 100.961 16.3553 100.851 16.2932C100.968 16.2169 101.08 16.1435 101.187 16.073C101.689 15.7419 102.078 15.4755 102.353 15.2737C102.715 15.0018 102.979 14.7844 103.146 14.6212C103.341 14.4581 103.702 14.1455 104.231 13.6833C104.787 13.194 105.427 12.6638 106.151 12.0929C106.206 12.0385 106.345 11.9162 106.568 11.7259C106.791 11.5356 106.957 11.3861 107.069 11.2773C107.208 11.1686 107.389 11.019 107.611 10.8287C107.834 10.6112 107.987 10.4345 108.07 10.2986C108.182 10.1355 108.279 9.95877 108.362 9.76847C108.474 9.57816 108.515 9.40145 108.488 9.23833C108.46 8.85772 108.348 8.51789 108.154 8.21884C107.987 7.8926 107.806 7.75667 107.611 7.81105C107.277 7.8926 106.985 8.05572 106.735 8.3004C106.484 8.54508 106.206 8.85772 105.9 9.23833C105.622 9.61894 105.372 9.91799 105.149 10.1355C104.927 10.353 104.634 10.6248 104.273 10.9511C103.939 11.2773 103.702 11.4948 103.563 11.6035C103.452 11.7123 103.285 11.8618 103.063 12.0521C102.868 12.2424 102.715 12.3784 102.603 12.4599C102.492 12.5143 102.367 12.5958 102.228 12.7046C102.089 12.8133 101.936 12.9221 101.769 13.0308C101.602 13.1124 101.421 13.2075 101.226 13.3163C101.13 13.3634 101.01 13.424 100.868 13.4983C100.763 13.5527 100.646 13.6143 100.517 13.6833C100.508 13.5606 100.503 13.4295 100.5 13.2905C100.493 12.8755 100.511 12.3896 100.531 11.8426C100.567 10.8691 100.609 9.7022 100.53 8.39719C100.446 7.0076 100.247 5.88285 100.084 4.95862C99.9753 4.34588 99.8825 3.82128 99.8492 3.36607C99.8214 2.87671 99.6823 2.36017 99.4319 1.81644C99.2252 1.36754 98.8012 0.791063 98.3185 0.633837C96.8448 0.470719 96.3156 1.62829 96.6353 2.42814C97.9505 4.79425 98.5437 7.79894 98.3185 11.7259C98.2881 12.2566 98.1629 12.8231 98.0546 13.313C98.0161 13.4872 97.9797 13.6518 97.9505 13.8016C97.8892 14.2213 97.8241 14.4355 97.7166 14.7895C97.6779 14.9171 97.6336 15.0628 97.582 15.2428C97.5646 15.3036 97.5345 15.3843 97.4985 15.4808C97.3603 15.8513 97.1357 16.4532 97.2136 17.0442C97.2812 17.5582 97.42 18.0367 97.5756 18.5732C97.7533 19.1862 97.9531 19.875 98.0939 20.779C98.3443 21.7577 98.7642 22.5869 99.8492 23.0218C100.354 22.2328 100.492 21.2871 100.265 20.1849ZM114.865 4.42792L114.862 4.42061C114.642 3.80618 114.617 3.11692 114.764 2.36555C114.795 2.19007 114.881 1.90291 115.172 1.80785L115.186 1.80356L115.199 1.80028C115.344 1.76491 115.53 1.75091 115.74 1.74916C116.002 1.68792 116.262 1.71552 116.502 1.84253C116.743 1.9704 116.936 2.18392 117.094 2.44232C117.443 2.94379 117.586 3.51054 117.525 4.12658C117.507 4.44046 117.424 4.73034 117.235 4.95571C117.04 5.1889 116.767 5.31103 116.46 5.34725C116.11 5.39536 115.778 5.35443 115.49 5.18961C115.202 5.02447 115 4.75902 114.868 4.4351L114.865 4.42792ZM116.413 4.99725C116.886 4.94288 117.137 4.64383 117.164 4.1001C117.22 3.55637 117.095 3.06702 116.789 2.63204C116.511 2.16987 116.177 1.99316 115.787 2.1019C115.565 2.1019 115.398 2.1155 115.287 2.14268C115.203 2.16987 115.147 2.26502 115.12 2.42814C114.981 3.13499 115.008 3.76027 115.203 4.304C115.426 4.84773 115.829 5.07881 116.413 4.99725ZM115.264 23.7508L115.135 23.5142C114.886 23.059 114.736 22.5373 114.677 21.9559L114.676 21.9472L114.676 21.9384C114.647 21.3738 114.675 20.8567 114.764 20.3896C114.845 19.9424 114.913 19.384 114.968 18.7118L114.969 18.7049L114.97 18.6979C115.051 18.0327 115.092 17.4526 115.092 16.9561C115.064 16.4661 115.186 15.5834 115.433 14.3496C115.558 13.7253 115.648 13.2505 115.702 12.923C115.73 12.7586 115.748 12.6358 115.757 12.5516C115.76 12.523 115.762 12.5013 115.763 12.4855L115.76 12.4764V12.4191C115.76 12.3654 115.737 12.1354 115.679 11.6881L115.678 11.6773L115.677 11.6663C115.65 11.233 115.622 10.9157 115.596 10.7094L115.593 10.6876V9.79456L115.594 9.77993C115.624 9.4295 115.701 9.11798 115.844 8.86787C115.99 8.58794 116.212 8.37396 116.523 8.28727L116.595 8.26708L116.67 8.27679C117.255 8.35301 117.735 8.8122 118.139 9.45961C118.554 10.0992 118.735 10.772 118.657 11.4673C118.684 11.6287 118.68 11.8348 118.662 12.0595C118.64 12.332 118.593 12.6762 118.522 13.0889C118.382 13.9111 118.214 14.7199 118.017 15.5152L117.776 16.6165C117.775 16.8701 117.76 17.2323 117.734 17.6993C117.706 18.1905 117.678 18.6018 117.65 18.9324C117.621 19.263 117.579 19.6743 117.523 20.1655L117.523 20.1677C117.466 20.6402 117.38 21.055 117.261 21.4077C117.174 21.7451 117.059 22.0813 116.917 22.4162C116.791 22.7517 116.613 23.0404 116.377 23.2714L116.367 23.281L116.356 23.2898C116.116 23.4906 115.84 23.6257 115.532 23.6926L115.264 23.7508ZM116.58 22.2878C116.719 21.9616 116.831 21.6353 116.914 21.3091C117.025 20.9829 117.109 20.5887 117.164 20.1265C117.22 19.6371 117.262 19.2293 117.29 18.9031C117.318 18.5769 117.345 18.1691 117.373 17.6797C117.401 17.1904 117.415 16.8233 117.415 16.5787L117.665 15.4368C117.86 14.6484 118.027 13.8464 118.166 13.0308C118.305 12.2152 118.347 11.6987 118.291 11.4812C118.375 10.8559 118.222 10.2442 117.832 9.64613C117.443 9.02084 117.039 8.68101 116.622 8.62664C116.427 8.68101 116.274 8.81694 116.163 9.03443C116.052 9.22474 115.982 9.48301 115.954 9.80925V10.6656C115.982 10.8831 116.01 11.2093 116.038 11.6443C116.093 12.0793 116.121 12.3376 116.121 12.4191C116.149 12.5007 116.038 13.1668 115.787 14.4173C115.537 15.6679 115.426 16.5107 115.454 16.9457C115.454 17.4622 115.412 18.0603 115.328 18.74C115.273 19.4196 115.203 19.9906 115.12 20.4527C115.036 20.8877 115.008 21.3771 115.036 21.9208C115.092 22.4645 115.231 22.9403 115.454 23.3481C115.704 23.2937 115.926 23.185 116.121 23.0218C116.316 22.8315 116.469 22.5869 116.58 22.2878ZM115.764 12.4543C115.764 12.4542 115.764 12.4566 115.764 12.4619C115.764 12.4571 115.764 12.4543 115.764 12.4543ZM131.904 17.5307H131.967C131.966 17.5306 131.981 17.5299 132.017 17.5195C132.055 17.5085 132.107 17.4898 132.173 17.4603C132.305 17.4015 132.477 17.3089 132.692 17.178C133.163 16.8802 133.606 16.5962 134.021 16.3258L134.025 16.3229L134.03 16.3201C134.504 16.0305 135.009 15.8128 135.543 15.6677L135.546 15.667L135.548 15.6664C136.155 15.5104 136.713 15.5861 137.111 16.0085C137.442 16.3329 137.702 16.6911 137.888 17.0832L138.029 17.3829L137.733 17.541C137.121 17.8671 136.384 18.2611 135.522 18.7232C134.659 19.1855 134.065 19.5097 133.735 19.6973L133.731 19.6999L133.726 19.7023C133.418 19.8669 132.97 20.099 132.386 20.3984L132.383 20.3999L132.38 20.4014C131.821 20.6743 131.276 20.9337 130.745 21.1795L130.738 21.1828L130.731 21.1858C130.202 21.4032 129.577 21.6614 128.853 21.9604L128.852 21.961C126.289 23.0067 123.695 23.6412 121.07 23.8624C120.258 23.9527 119.583 23.7387 119.153 23.1438L119.151 23.14L119.148 23.1361C118.761 22.5692 118.599 21.8652 118.628 21.0518L118.629 21.0486L118.629 21.0454C118.687 19.9846 118.995 18.9181 119.543 17.8481L119.544 17.8465L119.544 17.8449C120.117 16.7531 120.848 15.7596 121.735 14.865C122.608 13.9845 123.496 13.1986 124.401 12.508C125.302 11.8199 126.219 11.2133 127.151 10.6885C127.925 10.2243 128.683 10.072 129.365 10.3859C130.092 10.7073 130.409 11.3835 130.409 12.256C130.409 12.7118 130.225 13.1119 129.886 13.4435C129.577 13.7451 129.233 13.9763 128.852 14.1314C128.511 14.27 128.075 14.435 127.544 14.6262L127.536 14.6291L127.528 14.6316C126.998 14.795 126.652 14.9126 126.476 14.9864C125.58 15.3617 124.596 16.1678 123.528 17.4519C122.617 18.5757 122.067 19.5801 121.842 20.4682C122.757 20.5399 123.696 20.4623 124.66 20.2329C125.805 19.9395 127.205 19.4572 128.864 18.7822C130.526 18.0784 131.525 17.6652 131.844 17.5519L131.904 17.5307ZM129.005 19.107C127.336 19.7867 125.917 20.276 124.748 20.5751C123.733 20.817 122.74 20.8974 121.769 20.8164C121.649 20.8064 121.529 20.7939 121.41 20.779C121.428 20.6647 121.451 20.5489 121.479 20.4318C121.714 19.4623 122.303 18.3954 123.246 17.2311C124.331 15.9262 125.36 15.0698 126.334 14.662C126.529 14.5805 126.89 14.4581 127.419 14.295C127.948 14.1047 128.379 13.9416 128.713 13.8056C129.047 13.6697 129.353 13.4658 129.631 13.194C129.909 12.9221 130.048 12.6094 130.048 12.256C130.048 11.4676 129.77 10.9511 129.213 10.7064C128.685 10.4617 128.059 10.5569 127.336 10.9919C126.417 11.5084 125.513 12.1065 124.623 12.7862C123.733 13.4658 122.856 14.2406 121.994 15.1106C121.132 15.9806 120.422 16.9457 119.866 18.0059C119.337 19.039 119.045 20.0585 118.989 21.0644C118.961 21.8256 119.115 22.4509 119.448 22.9403C119.782 23.4024 120.311 23.5927 121.034 23.5112C123.621 23.2937 126.181 22.6684 128.713 21.6353C129.436 21.3363 130.062 21.078 130.591 20.8605C131.119 20.6158 131.662 20.3576 132.218 20.0857C132.802 19.7867 133.247 19.5556 133.554 19.3925C133.887 19.2021 134.486 18.8759 135.348 18.4137C136.21 17.9516 136.948 17.5574 137.56 17.2311C137.393 16.8777 137.156 16.5515 136.85 16.2524C136.572 15.9534 136.169 15.8718 135.64 16.0077C135.139 16.1437 134.666 16.3476 134.221 16.6194C133.804 16.8913 133.359 17.1768 132.886 17.4758C132.441 17.7477 132.135 17.8836 131.968 17.8836C131.662 17.9923 130.674 18.4001 129.005 19.107ZM139.685 11.7827L139.685 11.7812C139.519 7.82217 139.145 4.70894 138.569 2.43125L138.557 2.38426L138.558 2.33589C138.589 1.34403 138.984 0.587066 139.791 0.160367L140.064 0.0153809L140.36 0.400993C140.388 0.426771 140.41 0.446122 140.428 0.460165C140.43 0.461618 140.432 0.462983 140.433 0.464264C140.436 0.464353 140.439 0.464404 140.442 0.464404C140.469 0.464404 140.507 0.461078 140.559 0.450866L140.667 0.429758L140.769 0.471155C141.23 0.658646 141.572 1.09842 141.836 1.67159C142.1 2.24556 142.253 2.80371 142.284 3.34375C142.368 4.48786 142.479 6.21497 142.618 8.5241C142.737 10.4694 142.835 11.9992 142.913 13.1143C142.994 13.0726 143.067 13.0362 143.131 13.005C143.319 12.9 143.496 12.8066 143.662 12.7252C143.814 12.6255 143.952 12.5267 144.077 12.429C144.217 12.3198 144.353 12.2284 144.484 12.1606C144.574 12.0916 144.705 11.975 144.882 11.8025L144.89 11.7942L144.899 11.7865C145.12 11.5977 145.28 11.4543 145.383 11.354L145.397 11.3401L145.412 11.3279C145.534 11.233 145.757 11.0287 146.092 10.7015L146.097 10.6965L146.103 10.6917C146.462 10.3671 146.751 10.0988 146.968 9.88589C147.172 9.68727 147.409 9.4052 147.681 9.03316L147.686 9.0266L147.691 9.02025C148.003 8.63258 148.291 8.30846 148.554 8.05081C148.848 7.7635 149.196 7.56784 149.593 7.46989C149.813 7.41067 150.021 7.4674 150.188 7.59245C150.336 7.70387 150.45 7.86696 150.543 8.04473C150.764 8.38901 150.888 8.77579 150.921 9.19804C150.96 9.45121 150.89 9.69792 150.761 9.92542C150.672 10.1252 150.569 10.3128 150.45 10.4877C150.343 10.6601 150.166 10.8589 149.941 11.0783L149.933 11.0866L149.924 11.0944C149.707 11.2794 149.527 11.4287 149.384 11.5408C149.265 11.6563 149.096 11.8072 148.88 11.9915C148.655 12.1844 148.526 12.2982 148.481 12.3425L148.467 12.3557L148.452 12.3675C147.733 12.9354 147.098 13.4614 146.547 13.9457L146.546 13.9464C146.027 14.4004 145.666 14.7125 145.466 14.8806C145.282 15.0588 145.006 15.2842 144.648 15.5535L144.646 15.5548L144.644 15.5561C144.393 15.7404 144.052 15.9753 143.623 16.26C144.759 16.8262 146.523 17.5281 148.929 18.3661C151.76 19.3154 153.657 20.0145 154.598 20.4602C155.082 20.6814 155.449 21.0198 155.682 21.4728C155.92 21.9081 155.956 22.3608 155.72 22.7831L155.717 22.7894L155.713 22.7957C155.463 23.2026 154.996 23.3924 154.45 23.4532C154.206 23.4905 153.924 23.4461 153.63 23.3599L153.625 23.3584L153.62 23.3567C153.356 23.2707 153.026 23.1442 152.632 22.9792L152.627 22.9773L152.623 22.9753C152.288 22.8244 152.078 22.7287 152.001 22.692L150.762 22.2077C150.072 21.9379 149.439 21.7093 148.862 21.5216L148.852 21.5183L148.842 21.5145C148.292 21.2995 147.658 21.0704 146.939 20.827L146.931 20.8243L146.923 20.8212C146.24 20.5543 145.617 20.3563 145.054 20.2252L145.052 20.2247L145.05 20.2242C144.505 20.091 144.092 20.0309 143.802 20.0309C143.442 20.0309 143.073 20.0605 142.694 20.1204C142.934 21.2884 142.794 22.328 142.23 23.2089L142.069 23.4613L141.787 23.3484C140.612 22.8775 139.853 22.0905 139.57 20.9869L139.57 20.9844L139.569 20.9818C139.151 19.2379 138.883 17.8763 138.769 16.9042L138.763 16.8523L138.773 16.801C138.832 16.4842 138.961 15.981 139.156 15.3009C139.347 14.6329 139.483 14.023 139.563 13.4703L139.565 13.4622L139.566 13.4541C139.672 12.9111 139.712 12.3541 139.685 11.7827ZM142.339 20.1849C142.316 20.0719 142.289 19.9573 142.258 19.841C142.377 19.8165 142.496 19.7947 142.613 19.7757C143.018 19.7105 143.414 19.6779 143.802 19.6779C144.136 19.6779 144.581 19.7459 145.137 19.8818C145.721 20.0177 146.361 20.2216 147.057 20.4935C147.78 20.7382 148.42 20.9693 148.977 21.1868C149.561 21.3771 150.201 21.6081 150.896 21.88L152.148 22.3694C152.204 22.3965 152.412 22.4917 152.774 22.6548C153.164 22.8179 153.483 22.9403 153.734 23.0218C154.012 23.1034 154.235 23.1306 154.402 23.1034C154.902 23.049 155.236 22.8859 155.403 22.614C155.57 22.315 155.556 21.9888 155.361 21.6353C155.167 21.2547 154.861 20.9693 154.443 20.779C153.525 20.344 151.647 19.6507 148.81 18.6992C146.279 17.8177 144.436 17.0795 143.282 16.4847C143.155 16.4191 143.036 16.3553 142.925 16.2932C143.043 16.2169 143.155 16.1435 143.262 16.073C143.764 15.7419 144.153 15.4755 144.428 15.2737C144.789 15.0018 145.054 14.7844 145.221 14.6212C145.415 14.4581 145.777 14.1455 146.306 13.6833C146.862 13.194 147.502 12.6638 148.225 12.0929C148.281 12.0385 148.42 11.9162 148.643 11.7259C148.865 11.5356 149.032 11.3861 149.143 11.2773C149.283 11.1686 149.463 11.019 149.686 10.8287C149.909 10.6112 150.062 10.4345 150.145 10.2986C150.256 10.1355 150.354 9.95877 150.437 9.76847C150.548 9.57816 150.59 9.40145 150.562 9.23833C150.534 8.85772 150.423 8.51789 150.228 8.21884C150.062 7.8926 149.881 7.75667 149.686 7.81105C149.352 7.8926 149.06 8.05572 148.81 8.3004C148.559 8.54508 148.281 8.85772 147.975 9.23833C147.697 9.61894 147.446 9.91799 147.224 10.1355C147.001 10.353 146.709 10.6248 146.347 10.9511C146.014 11.2773 145.777 11.4948 145.638 11.6035C145.527 11.7123 145.36 11.8618 145.137 12.0521C144.942 12.2424 144.789 12.3784 144.678 12.4599C144.567 12.5143 144.442 12.5958 144.303 12.7046C144.163 12.8133 144.01 12.9221 143.844 13.0308C143.677 13.1124 143.496 13.2075 143.301 13.3163C143.204 13.3636 143.084 13.4246 142.94 13.4994C142.836 13.5535 142.72 13.6148 142.592 13.6833C142.583 13.5609 142.573 13.4319 142.564 13.2964C142.484 12.1677 142.382 10.5839 142.258 8.54508C142.119 6.23423 142.007 4.5079 141.924 3.36607C141.896 2.87671 141.757 2.36017 141.507 1.81644C141.256 1.27272 140.964 0.932888 140.63 0.796956C140.491 0.824142 140.38 0.824142 140.296 0.796956C140.241 0.769768 140.171 0.715395 140.088 0.633837L139.963 0.470719C139.295 0.824142 138.947 1.44943 138.919 2.34658C139.504 4.65742 139.879 7.79745 140.046 11.7667C140.074 12.3648 140.032 12.9493 139.921 13.5202C139.837 14.0911 139.698 14.7164 139.504 15.396C139.309 16.0757 139.184 16.5651 139.128 16.8641C139.239 17.8156 139.504 19.1614 139.921 20.9013C140.171 21.88 140.839 22.5869 141.924 23.0218C142.429 22.2328 142.567 21.2871 142.339 20.1849Z" fill="#FF4000"/>
</svg>
