<svg width="156" height="24" viewBox="0 0 156 24" fill="none" xmlns="http://www.w3.org/2000/svg">
<path fill-rule="evenodd" clip-rule="evenodd" d="M0 22.6365H8.63751C11.9589 22.6365 14.3369 21.8199 15.7716 20.1865C17.2062 18.534 17.9236 16.0648 17.9236 12.7789C17.9236 9.47379 17.1768 7.07183 15.6831 5.573C14.1895 4.07418 11.7427 3.32477 8.34272 3.32477H0V22.6365ZM8.16548 12.0005C9.12848 12.0005 9.60998 11.376 9.60998 10.1269C9.60998 8.8587 9.06952 8.22458 7.98861 8.22458H6.48515V12.0005H8.16548Z" fill="#FEEFDD"/>
<path fill-rule="evenodd" clip-rule="evenodd" d="M25.7946 17.6501H27.8079L28.9281 22.6365H35.8853L33.9397 16.0648C35.394 14.9118 36.1212 12.9999 36.1212 10.3289C36.1212 7.63869 35.4628 5.80359 34.146 4.82359C32.8293 3.82438 30.6478 3.32477 27.6016 3.32477H19.2883V22.6365H25.7946V17.6501ZM27.3273 12.0005C28.2903 12.0005 28.7718 11.376 28.7718 10.1269C28.7718 8.8587 28.2313 8.22458 27.1504 8.22458H25.647V12.0005H27.3273Z" fill="#FEEFDD"/>
<path fill-rule="evenodd" clip-rule="evenodd" d="M86.1007 17.6501H88.1141L89.2343 22.6365H96.1915L94.2458 16.0648C95.7002 14.9118 96.4273 12.9999 96.4273 10.3289C96.4273 7.63869 95.7689 5.80359 94.4522 4.82359C93.1354 3.82438 90.9539 3.32477 87.9077 3.32477H79.5945V22.6365H86.1007V17.6501ZM87.6335 12.0005C88.5965 12.0005 89.078 11.376 89.078 10.1269C89.078 8.8587 88.5375 8.22458 87.4566 8.22458H85.9531V12.0005H87.6335Z" fill="#FEEFDD"/>
<path d="M37.4832 22.6365V3.32477H44.3224V22.6365H37.4832Z" fill="#FEEFDD"/>
<path d="M62.9533 3.32477L59.0915 22.6365H49.0095L45.0002 3.32477H52.2522L53.7851 15.8918H54.3158L55.7013 3.32477H62.9533Z" fill="#FEEFDD"/>
<path d="M63.7087 22.6365V3.32477H78.5075V8.65712H70.548V10.3001H76.7387V15.5748H70.548V17.3042H78.5075V22.6365H63.7087Z" fill="#FEEFDD"/>
<path d="M98.3185 11.7258C98.5437 7.7988 97.9505 4.79411 96.6353 2.428C96.3156 1.62816 96.8448 0.470581 98.3185 0.6337C98.8012 0.790925 99.2252 1.36741 99.4319 1.81631C99.6823 2.36003 99.8214 2.87658 99.8492 3.36593C99.9327 4.50776 100.391 6.08621 100.53 8.39705C100.669 10.6807 100.433 12.5413 100.517 13.6832C100.823 13.5201 101.059 13.3977 101.226 13.3162C101.421 13.2074 101.602 13.1123 101.769 13.0307C101.936 12.922 102.089 12.8132 102.228 12.7045C102.367 12.5957 102.492 12.5142 102.603 12.4598C102.715 12.3782 102.868 12.2423 103.063 12.052C103.285 11.8617 103.452 11.7122 103.563 11.6034C103.702 11.4947 103.939 11.2772 104.273 10.9509C104.634 10.6247 104.927 10.3528 105.149 10.1353C105.372 9.91786 105.622 9.61881 105.9 9.2382C106.206 8.85759 106.484 8.54494 106.735 8.30026C106.985 8.05559 107.277 7.89247 107.611 7.81091C107.806 7.75654 107.987 7.89247 108.154 8.2187C108.348 8.51776 108.46 8.85759 108.488 9.2382C108.515 9.40131 108.474 9.57803 108.362 9.76833C108.279 9.95863 108.182 10.1353 108.07 10.2985C107.987 10.4344 107.834 10.6111 107.611 10.8286C107.389 11.0189 107.208 11.1684 107.069 11.2772C106.957 11.3859 106.791 11.5354 106.568 11.7258C106.345 11.9161 106.206 12.0384 106.151 12.0928C105.427 12.6637 104.787 13.1938 104.231 13.6832C103.702 14.1453 103.341 14.458 103.146 14.6211C102.979 14.7842 102.715 15.0017 102.353 15.2736C102.019 15.5183 101.518 15.8581 100.851 16.2931C101.964 16.9184 103.925 17.7204 106.735 18.6991C109.573 19.6506 111.45 20.3438 112.369 20.7788C112.786 20.9691 113.092 21.2546 113.287 21.6352C113.481 21.9886 113.495 22.3149 113.328 22.6139C113.161 22.8858 112.828 23.0489 112.327 23.1033C112.16 23.1304 111.937 23.1033 111.659 23.0217C111.409 22.9401 111.089 22.8178 110.699 22.6547C110.338 22.4916 110.129 22.3964 110.073 22.3692C109.934 22.3149 109.517 22.1517 108.821 21.8799C108.126 21.608 107.486 21.3769 106.902 21.1866C106.345 20.9691 105.705 20.738 104.982 20.4934C104.287 20.2215 103.647 20.0176 103.063 19.8817C102.506 19.7457 102.061 19.6778 101.727 19.6778C101.226 19.6778 100.712 19.7321 100.183 19.8409C100.517 21.0915 100.406 22.1517 99.8492 23.0217C98.7642 22.5867 98.3443 21.7575 98.0939 20.7788C97.8298 19.0835 97.3585 18.1452 97.2136 17.0441C97.1155 16.2992 97.4977 15.5371 97.582 15.2426C97.7768 14.563 97.8671 14.3724 97.9505 13.8015C98.0618 13.2305 98.2773 12.4452 98.3185 11.7258Z" fill="#FF4000"/>
<path d="M115.787 2.10177C116.177 1.99302 116.511 2.16973 116.789 2.6319C117.095 3.06688 117.22 3.55624 117.164 4.09996C117.137 4.64369 116.886 4.94274 116.413 4.99712C115.829 5.07868 115.426 4.84759 115.203 4.30386C115.008 3.76014 114.981 3.13485 115.12 2.428C115.147 2.26488 115.203 2.16973 115.287 2.14254C115.398 2.11536 115.565 2.10177 115.787 2.10177ZM115.453 23.3479C115.231 22.9401 115.092 22.4644 115.036 21.9207C115.008 21.3769 115.036 20.8876 115.12 20.4526C115.203 19.9904 115.273 19.4195 115.328 18.7398C115.412 18.0602 115.453 17.4621 115.453 16.9455C115.426 16.5106 115.537 15.6678 115.787 14.4172C116.038 13.1666 116.149 12.5006 116.121 12.419C116.121 12.3374 116.093 12.0792 116.038 11.6442C116.01 11.2092 115.982 10.883 115.954 10.6655C115.954 10.4208 115.954 10.1353 115.954 9.80911C115.982 9.48287 116.052 9.2246 116.163 9.0343C116.274 8.81681 116.427 8.68087 116.622 8.6265C117.039 8.68087 117.443 9.0207 117.832 9.64599C118.222 10.2441 118.375 10.8558 118.291 11.4811C118.347 11.6986 118.305 12.2151 118.166 13.0307C118.027 13.8463 117.86 14.6483 117.665 15.4367C117.498 16.1979 117.415 16.5785 117.415 16.5785C117.415 16.8232 117.401 17.1902 117.373 17.6796C117.345 18.1689 117.317 18.5767 117.29 18.903C117.262 19.2292 117.22 19.637 117.164 20.1263C117.109 20.5885 117.025 20.9827 116.914 21.309C116.831 21.6352 116.719 21.9614 116.58 22.2877C116.469 22.5867 116.316 22.8314 116.121 23.0217C115.926 23.1848 115.704 23.2936 115.453 23.3479Z" fill="#FF4000"/>
<path d="M121.41 20.7788C122.495 20.9148 123.608 20.8468 124.748 20.5749C125.917 20.2759 127.336 19.7865 129.005 19.1069C130.674 18.4 131.662 17.9922 131.968 17.8835C132.135 17.8835 132.441 17.7475 132.886 17.4757C133.359 17.1766 133.804 16.8912 134.221 16.6193C134.666 16.3474 135.139 16.1435 135.64 16.0076C136.169 15.8717 136.572 15.9532 136.85 16.2523C137.156 16.5513 137.393 16.8776 137.56 17.231C136.948 17.5572 136.21 17.9514 135.348 18.4136C134.485 18.8758 133.887 19.202 133.553 19.3923C133.247 19.5554 132.802 19.7865 132.218 20.0856C131.662 20.3574 131.119 20.6157 130.591 20.8604C130.062 21.0779 129.436 21.3361 128.713 21.6352C126.181 22.6683 123.621 23.2936 121.034 23.5111C120.311 23.5926 119.782 23.4023 119.448 22.9401C119.114 22.4508 118.961 21.8255 118.989 21.0643C119.045 20.0584 119.337 19.0389 119.866 18.0058C120.422 16.9455 121.131 15.9804 121.994 15.1105C122.856 14.2405 123.733 13.4657 124.623 12.786C125.513 12.1064 126.417 11.5083 127.336 10.9917C128.059 10.5567 128.685 10.4616 129.213 10.7063C129.77 10.9509 130.048 11.4675 130.048 12.2559C130.048 12.6093 129.909 12.922 129.631 13.1938C129.353 13.4657 129.047 13.6696 128.713 13.8055C128.379 13.9414 127.948 14.1046 127.419 14.2949C126.89 14.458 126.529 14.5803 126.334 14.6619C125.36 15.0697 124.331 15.926 123.246 17.231C122.189 18.5359 121.577 19.7186 121.41 20.7788Z" fill="#FF4000"/>
<path d="M140.046 11.7665C139.879 7.79732 139.503 4.65729 138.919 2.34644C138.947 1.44929 139.295 0.824005 139.963 0.470581L140.088 0.6337C140.171 0.715258 140.241 0.769631 140.296 0.796819C140.38 0.824005 140.491 0.824005 140.63 0.796819C140.964 0.93275 141.256 1.27258 141.507 1.81631C141.757 2.36003 141.896 2.87658 141.924 3.36593C142.007 4.50776 142.119 6.2341 142.258 8.54494C142.397 10.8286 142.508 12.5413 142.592 13.6832C142.898 13.5201 143.134 13.3977 143.301 13.3162C143.496 13.2074 143.677 13.1123 143.844 13.0307C144.01 12.922 144.163 12.8132 144.303 12.7045C144.442 12.5957 144.567 12.5142 144.678 12.4598C144.789 12.3782 144.942 12.2423 145.137 12.052C145.36 11.8617 145.527 11.7122 145.638 11.6034C145.777 11.4947 146.014 11.2772 146.347 10.9509C146.709 10.6247 147.001 10.3528 147.224 10.1353C147.446 9.91786 147.697 9.61881 147.975 9.2382C148.281 8.85759 148.559 8.54494 148.81 8.30026C149.06 8.05559 149.352 7.89247 149.686 7.81091C149.881 7.75654 150.061 7.89247 150.228 8.2187C150.423 8.51776 150.534 8.85759 150.562 9.2382C150.59 9.40131 150.548 9.57803 150.437 9.76833C150.354 9.95863 150.256 10.1353 150.145 10.2985C150.061 10.4344 149.908 10.6111 149.686 10.8286C149.463 11.0189 149.282 11.1684 149.143 11.2772C149.032 11.3859 148.865 11.5354 148.643 11.7258C148.42 11.9161 148.281 12.0384 148.225 12.0928C147.502 12.6637 146.862 13.1938 146.306 13.6832C145.777 14.1453 145.415 14.458 145.221 14.6211C145.054 14.7842 144.789 15.0017 144.428 15.2736C144.094 15.5183 143.593 15.8581 142.925 16.2931C144.038 16.9184 146 17.7204 148.81 18.6991C151.647 19.6506 153.525 20.3438 154.443 20.7788C154.861 20.9691 155.167 21.2546 155.361 21.6352C155.556 21.9886 155.57 22.3149 155.403 22.6139C155.236 22.8858 154.902 23.0489 154.402 23.1033C154.235 23.1304 154.012 23.1033 153.734 23.0217C153.483 22.9401 153.163 22.8178 152.774 22.6547C152.412 22.4916 152.204 22.3964 152.148 22.3692C152.009 22.3149 151.592 22.1517 150.896 21.8799C150.201 21.608 149.561 21.3769 148.976 21.1866C148.42 20.9691 147.78 20.738 147.057 20.4934C146.361 20.2215 145.721 20.0176 145.137 19.8817C144.581 19.7457 144.136 19.6778 143.802 19.6778C143.301 19.6778 142.786 19.7321 142.258 19.8409C142.592 21.0915 142.48 22.1517 141.924 23.0217C140.839 22.5867 140.171 21.8799 139.921 20.9012C139.503 19.1612 139.239 17.8155 139.128 16.864C139.184 16.5649 139.309 16.0756 139.503 15.3959C139.698 14.7163 139.837 14.091 139.921 13.5201C140.032 12.9491 140.074 12.3646 140.046 11.7665Z" fill="#FF4000"/>
<path fill-rule="evenodd" clip-rule="evenodd" d="M96.307 2.57706L96.2987 2.55644C96.0953 2.04742 96.1611 1.43046 96.5128 0.96119C96.8767 0.475684 97.5125 0.189334 98.3589 0.283016L98.3966 0.287179L98.4325 0.298879C98.7622 0.406273 99.0405 0.643254 99.253 0.886413C99.4697 1.13426 99.645 1.41967 99.761 1.67147C100.025 2.24538 100.178 2.80348 100.209 3.34347C100.241 3.77874 100.33 4.27954 100.438 4.88831C100.466 5.0462 100.495 5.21135 100.525 5.38451C100.668 6.21607 100.82 7.20248 100.89 8.37609C100.961 9.53484 100.936 10.5842 100.905 11.4803C100.9 11.6099 100.896 11.7357 100.891 11.8578C100.874 12.3278 100.859 12.7426 100.859 13.1033C100.932 13.0661 100.998 13.0333 101.056 13.0049C101.244 12.8999 101.421 12.8065 101.587 12.7251C101.739 12.6254 101.877 12.5266 102.002 12.4289C102.142 12.3197 102.278 12.2282 102.409 12.1605C102.499 12.0915 102.63 11.9749 102.807 11.8024L102.815 11.7941L102.825 11.7864C103.045 11.5976 103.205 11.4542 103.308 11.3538L103.322 11.34L103.337 11.3278C103.459 11.2329 103.682 11.0286 104.017 10.7014L104.022 10.6964L104.028 10.6916C104.387 10.367 104.676 10.0986 104.894 9.88577C105.097 9.68714 105.334 9.40508 105.606 9.03304L105.611 9.02648L105.616 9.02013C105.928 8.63246 106.216 8.30834 106.479 8.05069C106.773 7.76338 107.121 7.56771 107.518 7.46976C107.738 7.41055 107.946 7.46728 108.113 7.59232C108.261 7.70374 108.375 7.86683 108.468 8.0446C108.689 8.38887 108.813 8.77565 108.846 9.1979C108.885 9.45107 108.815 9.69779 108.686 9.92529C108.597 10.1251 108.494 10.3127 108.375 10.4876C108.268 10.66 108.091 10.8588 107.866 11.0782L107.858 11.0865L107.849 11.0942C107.632 11.2793 107.452 11.4286 107.309 11.5407C107.19 11.6562 107.021 11.8071 106.805 11.9914C106.58 12.1843 106.451 12.2981 106.406 12.3424L106.392 12.3556L106.377 12.3674C105.658 12.9352 105.023 13.4613 104.472 13.9455L104.472 13.9462C103.952 14.4003 103.591 14.7124 103.391 14.8805C103.207 15.0587 102.931 15.284 102.573 15.5534L102.571 15.5547L102.569 15.556C102.318 15.7403 101.977 15.9751 101.548 16.2599C102.685 16.826 104.448 17.528 106.854 18.3659C109.685 19.3152 111.582 20.0144 112.524 20.4601C113.007 20.6813 113.374 21.0196 113.607 21.4726C113.845 21.9079 113.881 22.3607 113.645 22.7829L113.642 22.7893L113.638 22.7955C113.388 23.2024 112.921 23.3923 112.376 23.4531C112.131 23.4904 111.849 23.446 111.555 23.3598L111.55 23.3582L111.545 23.3565C111.281 23.2706 110.951 23.1441 110.557 22.9791L110.552 22.9772L110.548 22.9752C110.213 22.8243 110.003 22.7286 109.926 22.6919L108.687 22.2076C107.997 21.9378 107.364 21.7092 106.787 21.5215L106.777 21.5182L106.767 21.5143C106.218 21.2994 105.583 21.0702 104.864 20.8269L104.856 20.8242L104.848 20.8211C104.165 20.5541 103.542 20.3561 102.979 20.225L102.977 20.2246L102.975 20.2241C102.43 20.0909 102.018 20.0307 101.727 20.0307C101.367 20.0307 100.998 20.0604 100.619 20.1203C100.86 21.2883 100.719 22.3278 100.155 23.2088L99.9937 23.4612L99.7119 23.3483C98.4726 22.8514 98.006 21.8911 97.7433 20.8645L97.7392 20.8484L97.7366 20.832C97.6081 20.0067 97.4293 19.3653 97.2613 18.7847C97.2496 18.7442 97.2379 18.7039 97.2263 18.6637C97.0722 18.1329 96.9264 17.6302 96.8551 17.0892C96.7971 16.6481 96.8822 16.2179 96.982 15.8773C97.0324 15.7052 97.0884 15.5499 97.1353 15.4233C97.1445 15.3987 97.153 15.3758 97.161 15.3544C97.1968 15.2584 97.2207 15.1941 97.2341 15.1475C97.2893 14.9546 97.3353 14.8033 97.3745 14.6741C97.4787 14.3309 97.5354 14.1441 97.5928 13.7516L97.594 13.7435L97.5956 13.7354C97.628 13.569 97.6668 13.3936 97.7068 13.2124C97.8134 12.7298 97.9291 12.2067 97.9578 11.706C98.1804 7.82254 97.5917 4.88832 96.3178 2.5965L96.307 2.57706ZM100.264 20.1848C100.241 20.0718 100.214 19.9572 100.183 19.8409C100.302 19.8164 100.421 19.7946 100.539 19.7756C100.943 19.7104 101.339 19.6778 101.727 19.6778C102.061 19.6778 102.506 19.7458 103.062 19.8817C103.647 20.0176 104.286 20.2215 104.982 20.4934C105.705 20.7381 106.345 20.9691 106.902 21.1866C107.486 21.3769 108.126 21.608 108.821 21.8799L110.073 22.3692C110.129 22.3964 110.337 22.4916 110.699 22.6547C111.089 22.8178 111.409 22.9402 111.659 23.0217C111.937 23.1033 112.16 23.1305 112.327 23.1033C112.827 23.0489 113.161 22.8858 113.328 22.6139C113.495 22.3149 113.481 21.9886 113.286 21.6352C113.092 21.2546 112.786 20.9691 112.368 20.7788C111.45 20.3439 109.572 19.6506 106.735 18.6991C104.204 17.8176 102.361 17.0794 101.207 16.4846C101.08 16.419 100.961 16.3552 100.851 16.2931C100.968 16.2168 101.08 16.1434 101.187 16.0729C101.689 15.7418 102.078 15.4753 102.353 15.2736C102.715 15.0017 102.979 14.7842 103.146 14.6211C103.34 14.458 103.702 14.1454 104.231 13.6832C104.787 13.1938 105.427 12.6637 106.15 12.0928C106.206 12.0384 106.345 11.9161 106.568 11.7258C106.79 11.5355 106.957 11.3859 107.068 11.2772C107.208 11.1684 107.388 11.0189 107.611 10.8286C107.834 10.6111 107.987 10.4344 108.07 10.2985C108.181 10.1354 108.279 9.95865 108.362 9.76834C108.473 9.57804 108.515 9.40133 108.487 9.23821C108.46 8.8576 108.348 8.51777 108.153 8.21872C107.987 7.89248 107.806 7.75655 107.611 7.81092C107.277 7.89248 106.985 8.0556 106.735 8.30028C106.484 8.54496 106.206 8.8576 105.9 9.23821C105.622 9.61882 105.371 9.91787 105.149 10.1354C104.926 10.3529 104.634 10.6247 104.272 10.951C103.939 11.2772 103.702 11.4947 103.563 11.6034C103.452 11.7122 103.285 11.8617 103.062 12.052C102.868 12.2423 102.715 12.3782 102.603 12.4598C102.492 12.5142 102.367 12.5957 102.228 12.7045C102.089 12.8132 101.936 12.922 101.769 13.0307C101.602 13.1123 101.421 13.2074 101.226 13.3162C101.13 13.3632 101.01 13.4239 100.868 13.4982C100.763 13.5526 100.646 13.6142 100.517 13.6832C100.508 13.5604 100.502 13.4294 100.5 13.2904C100.493 12.8753 100.51 12.3894 100.531 11.8425C100.566 10.869 100.609 9.70208 100.53 8.39707C100.446 7.00748 100.247 5.88273 100.084 4.9585C99.9751 4.34576 99.8822 3.82116 99.849 3.36595C99.8211 2.87659 99.682 2.36005 99.4317 1.81632C99.2249 1.36742 98.801 0.790941 98.3183 0.633715C96.8445 0.470597 96.3154 1.62817 96.6351 2.42802C97.9503 4.79413 98.5434 7.79882 98.3183 11.7258C98.2879 12.2564 98.1627 12.823 98.0544 13.3129C98.0159 13.4871 97.9795 13.6517 97.9503 13.8015C97.8889 14.2212 97.8239 14.4354 97.7164 14.7894C97.6776 14.9169 97.6334 15.0626 97.5818 15.2427C97.5644 15.3035 97.5342 15.3842 97.4983 15.4807C97.3601 15.8512 97.1355 16.4531 97.2133 17.0441C97.281 17.5581 97.4197 18.0365 97.5753 18.5731C97.7531 19.1861 97.9528 19.8748 98.0936 20.7788C98.344 21.7575 98.764 22.5867 99.849 23.0217C100.354 22.2326 100.492 21.287 100.264 20.1848ZM114.865 4.42779L114.862 4.42049C114.642 3.80605 114.617 3.1168 114.764 2.36542C114.795 2.18995 114.88 1.90278 115.172 1.80772L115.185 1.80344L115.199 1.80015C115.344 1.76478 115.529 1.75079 115.74 1.74903C116.001 1.6878 116.262 1.7154 116.502 1.8424C116.743 1.97027 116.936 2.1838 117.093 2.44219C117.443 2.94366 117.586 3.51042 117.524 4.12645C117.507 4.44033 117.424 4.73022 117.235 4.95558C117.04 5.18878 116.767 5.31091 116.46 5.34713C116.11 5.39524 115.777 5.3543 115.49 5.18948C115.201 5.02435 115 4.7589 114.868 4.43498L114.865 4.42779ZM116.413 4.99713C116.886 4.94276 117.136 4.64371 117.164 4.09998C117.22 3.55625 117.095 3.0669 116.789 2.63191C116.51 2.16975 116.177 1.99304 115.787 2.10178C115.565 2.10178 115.398 2.11537 115.286 2.14256C115.203 2.16975 115.147 2.2649 115.119 2.42802C114.98 3.13486 115.008 3.76015 115.203 4.30388C115.425 4.84761 115.829 5.07869 116.413 4.99713ZM115.264 23.7506L115.135 23.5141C114.886 23.0589 114.736 22.5371 114.677 21.9558L114.676 21.9471L114.675 21.9383C114.646 21.3737 114.675 20.8566 114.764 20.3895C114.845 19.9423 114.913 19.3838 114.968 18.7117L114.969 18.7047L114.97 18.6978C115.051 18.0326 115.092 17.4525 115.092 16.956C115.064 16.466 115.186 15.5833 115.433 14.3494C115.558 13.7252 115.647 13.2503 115.702 12.9229C115.729 12.7585 115.747 12.6357 115.757 12.5515C115.76 12.5228 115.762 12.5011 115.763 12.4854L115.76 12.4763V12.419C115.76 12.3653 115.736 12.1353 115.679 11.688L115.678 11.6771L115.677 11.6662C115.649 11.2329 115.622 10.9155 115.596 10.7093L115.593 10.6875V9.79444L115.594 9.77981C115.624 9.42938 115.7 9.11785 115.844 8.86775C115.99 8.58782 116.212 8.37383 116.523 8.28715L116.595 8.26695L116.669 8.27667C117.254 8.35289 117.735 8.81207 118.139 9.45949C118.554 10.0991 118.735 10.7718 118.656 11.4672C118.684 11.6286 118.68 11.8346 118.661 12.0594C118.639 12.3319 118.592 12.6761 118.522 13.0887C118.382 13.911 118.213 14.7198 118.017 15.5151L117.776 16.6164C117.774 16.87 117.76 17.2321 117.733 17.6992C117.706 18.1903 117.678 18.6016 117.649 18.9323C117.621 19.2629 117.579 19.6742 117.523 20.1653L117.523 20.1676C117.466 20.6401 117.38 21.0549 117.261 21.4076C117.174 21.745 117.059 22.0811 116.916 22.4161C116.791 22.7516 116.613 23.0403 116.376 23.2713L116.366 23.2809L116.356 23.2897C116.116 23.4905 115.84 23.6256 115.532 23.6925L115.264 23.7506ZM116.58 22.2877C116.719 21.9614 116.83 21.6352 116.914 21.309C117.025 20.9827 117.109 20.5885 117.164 20.1264C117.22 19.637 117.262 19.2292 117.289 18.903C117.317 18.5767 117.345 18.1689 117.373 17.6796C117.401 17.1902 117.415 16.8232 117.415 16.5785L117.665 15.4367C117.86 14.6483 118.027 13.8463 118.166 13.0307C118.305 12.2151 118.347 11.6986 118.291 11.4811C118.374 10.8558 118.221 10.2441 117.832 9.646C117.442 9.02072 117.039 8.68089 116.622 8.62652C116.427 8.68089 116.274 8.81682 116.163 9.03431C116.051 9.22462 115.982 9.48289 115.954 9.80912V10.6655C115.982 10.883 116.01 11.2092 116.038 11.6442C116.093 12.0792 116.121 12.3375 116.121 12.419C116.149 12.5006 116.038 13.1666 115.787 14.4172C115.537 15.6678 115.425 16.5106 115.453 16.9456C115.453 17.4621 115.412 18.0602 115.328 18.7399C115.272 19.4195 115.203 19.9904 115.119 20.4526C115.036 20.8876 115.008 21.3769 115.036 21.9207C115.092 22.4644 115.231 22.9402 115.453 23.3479C115.704 23.2936 115.926 23.1848 116.121 23.0217C116.316 22.8314 116.469 22.5867 116.58 22.2877ZM115.764 12.4542C115.764 12.4541 115.764 12.4565 115.764 12.4618C115.764 12.4569 115.764 12.4542 115.764 12.4542ZM131.904 17.5305H131.967C131.966 17.5305 131.981 17.5298 132.017 17.5194C132.055 17.5084 132.107 17.4896 132.173 17.4602C132.305 17.4014 132.477 17.3088 132.692 17.1778C133.163 16.8801 133.606 16.596 134.021 16.3256L134.025 16.3228L134.03 16.32C134.504 16.0304 135.009 15.8126 135.543 15.6676L135.546 15.6669L135.548 15.6663C136.155 15.5102 136.713 15.586 137.111 16.0084C137.442 16.3328 137.702 16.691 137.887 17.0831L138.029 17.3828L137.732 17.5409C137.121 17.8669 136.384 18.261 135.521 18.7231C134.659 19.1854 134.064 19.5095 133.735 19.6972L133.731 19.6998L133.726 19.7022C133.417 19.8667 132.97 20.0989 132.385 20.3982L132.382 20.3998L132.379 20.4013C131.821 20.6742 131.276 20.9336 130.745 21.1794L130.738 21.1827L130.73 21.1857C130.202 21.4031 129.576 21.6613 128.853 21.9603L128.852 21.9609C126.289 23.0066 123.695 23.6411 121.07 23.8623C120.258 23.9526 119.583 23.7385 119.153 23.1437L119.15 23.1399L119.148 23.136C118.761 22.5691 118.598 21.8651 118.628 21.0517L118.628 21.0485L118.628 21.0452C118.687 19.9845 118.995 18.918 119.542 17.848L119.543 17.8463L119.544 17.8447C120.117 16.753 120.848 15.7594 121.734 14.8649C122.607 13.9843 123.496 13.1985 124.4 12.5079C125.302 11.8198 126.218 11.2131 127.151 10.6884C127.925 10.2242 128.683 10.0719 129.365 10.3858C130.092 10.7072 130.409 11.3834 130.409 12.2559C130.409 12.7116 130.225 13.1118 129.886 13.4434C129.577 13.745 129.232 13.9762 128.851 14.1313C128.511 14.2699 128.075 14.4349 127.544 14.6261L127.536 14.6289L127.527 14.6314C126.998 14.7949 126.652 14.9125 126.476 14.9863C125.58 15.3616 124.595 16.1676 123.527 17.4518C122.617 18.5756 122.066 19.58 121.842 20.468C122.757 20.5398 123.696 20.4622 124.66 20.2327C125.805 19.9394 127.205 19.4571 128.863 18.782C130.525 18.0783 131.525 17.6651 131.844 17.5518L131.904 17.5305ZM129.005 19.1069C127.335 19.7865 125.916 20.2759 124.748 20.5749C123.733 20.8169 122.74 20.8973 121.769 20.8163C121.649 20.8063 121.529 20.7938 121.409 20.7788C121.427 20.6645 121.451 20.5488 121.479 20.4317C121.714 19.4622 122.302 18.3953 123.246 17.231C124.331 15.9261 125.36 15.0697 126.334 14.6619C126.529 14.5803 126.89 14.458 127.419 14.2949C127.947 14.1046 128.379 13.9415 128.712 13.8055C129.046 13.6696 129.352 13.4657 129.631 13.1938C129.909 12.922 130.048 12.6093 130.048 12.2559C130.048 11.4675 129.77 10.951 129.213 10.7063C128.685 10.4616 128.059 10.5568 127.335 10.9917C126.417 11.5083 125.513 12.1064 124.623 12.786C123.733 13.4657 122.856 14.2405 121.994 15.1105C121.131 15.9804 120.422 16.9456 119.865 18.0058C119.337 19.0389 119.045 20.0584 118.989 21.0643C118.961 21.8255 119.114 22.4508 119.448 22.9402C119.782 23.4023 120.311 23.5926 121.034 23.5111C123.621 23.2936 126.181 22.6683 128.712 21.6352C129.436 21.3362 130.062 21.0779 130.59 20.8604C131.119 20.6157 131.661 20.3574 132.218 20.0856C132.802 19.7865 133.247 19.5554 133.553 19.3923C133.887 19.202 134.485 18.8758 135.348 18.4136C136.21 17.9515 136.947 17.5572 137.559 17.231C137.393 16.8776 137.156 16.5514 136.85 16.2523C136.572 15.9532 136.168 15.8717 135.64 16.0076C135.139 16.1436 134.666 16.3475 134.221 16.6193C133.804 16.8912 133.359 17.1766 132.886 17.4757C132.44 17.7476 132.134 17.8835 131.967 17.8835C131.661 17.9922 130.674 18.4 129.005 19.1069ZM139.685 11.7826L139.685 11.781C139.518 7.82205 139.144 4.70882 138.568 2.43112L138.557 2.38414L138.558 2.33577C138.589 1.34391 138.984 0.586944 139.79 0.160245L140.064 0.0152588L140.36 0.400871C140.387 0.426649 140.41 0.446 140.428 0.460042C140.43 0.461496 140.431 0.462861 140.433 0.464142C140.436 0.46423 140.439 0.464282 140.442 0.464282C140.469 0.464282 140.507 0.460956 140.559 0.450744L140.667 0.429636L140.769 0.471033C141.229 0.658524 141.572 1.0983 141.836 1.67147C142.1 2.24544 142.253 2.80359 142.284 3.34363C142.368 4.48774 142.479 6.21485 142.618 8.52398C142.736 10.4692 142.835 11.9991 142.913 13.1142C142.994 13.0725 143.067 13.036 143.13 13.0049C143.319 12.8999 143.496 12.8065 143.661 12.7251C143.813 12.6254 143.952 12.5266 144.077 12.4289C144.216 12.3197 144.353 12.2282 144.484 12.1604C144.574 12.0915 144.705 11.9749 144.882 11.8024L144.89 11.7941L144.899 11.7864C145.12 11.5976 145.28 11.4542 145.382 11.3538L145.397 11.34L145.412 11.3278C145.534 11.2329 145.757 11.0286 146.092 10.7014L146.097 10.6964L146.102 10.6916C146.462 10.367 146.75 10.0986 146.968 9.88577C147.171 9.68714 147.409 9.40508 147.681 9.03304L147.686 9.02648L147.691 9.02013C148.002 8.63246 148.29 8.30834 148.554 8.05069C148.848 7.76338 149.196 7.56772 149.593 7.46976C149.813 7.41054 150.021 7.46728 150.188 7.59232C150.336 7.70374 150.45 7.86684 150.543 8.04461C150.763 8.38889 150.888 8.77567 150.921 9.19791C150.959 9.45109 150.89 9.69779 150.761 9.9253C150.672 10.1251 150.568 10.3127 150.45 10.4876C150.342 10.66 150.166 10.8588 149.941 11.0782L149.933 11.0865L149.923 11.0942C149.707 11.2793 149.527 11.4286 149.384 11.5407C149.265 11.6562 149.096 11.8071 148.88 11.9914C148.655 12.1843 148.526 12.2981 148.48 12.3424L148.467 12.3556L148.452 12.3674C147.732 12.9352 147.098 13.4613 146.547 13.9455L146.546 13.9462C146.027 14.4003 145.666 14.7124 145.466 14.8805C145.282 15.0587 145.006 15.284 144.648 15.5534L144.646 15.5547L144.644 15.556C144.393 15.7403 144.052 15.9751 143.623 16.2599C144.759 16.826 146.523 17.528 148.929 18.3659C151.76 19.3152 153.657 20.0144 154.598 20.4601C155.082 20.6813 155.449 21.0197 155.682 21.4727C155.92 21.908 155.956 22.3607 155.72 22.7829L155.716 22.7893L155.713 22.7955C155.463 23.2024 154.996 23.3923 154.45 23.4531C154.205 23.4904 153.924 23.446 153.63 23.3598L153.625 23.3582L153.619 23.3565C153.356 23.2706 153.025 23.1441 152.632 22.9791L152.627 22.9772L152.622 22.9752C152.288 22.8243 152.078 22.7286 152.001 22.6919L150.762 22.2076C150.071 21.9378 149.438 21.7092 148.862 21.5215L148.852 21.5182L148.842 21.5143C148.292 21.2994 147.658 21.0702 146.939 20.8269L146.93 20.8242L146.923 20.8211C146.24 20.5541 145.617 20.3561 145.053 20.225L145.051 20.2246L145.049 20.2241C144.504 20.0909 144.092 20.0307 143.802 20.0307C143.442 20.0307 143.073 20.0604 142.694 20.1203C142.934 21.2883 142.793 22.3278 142.23 23.2088L142.068 23.4612L141.787 23.3483C140.612 22.8773 139.853 22.0903 139.57 20.9868L139.57 20.9843L139.569 20.9817C139.151 19.2378 138.883 17.8762 138.769 16.9041L138.763 16.8522L138.772 16.8008C138.831 16.4841 138.961 15.9809 139.156 15.3007C139.347 14.6328 139.482 14.0228 139.563 13.4701L139.564 13.462L139.566 13.454C139.672 12.9109 139.712 12.354 139.685 11.7826ZM142.339 20.1848C142.316 20.0718 142.289 19.9572 142.258 19.8409C142.377 19.8164 142.495 19.7946 142.613 19.7756C143.018 19.7104 143.414 19.6778 143.802 19.6778C144.135 19.6778 144.581 19.7458 145.137 19.8817C145.721 20.0176 146.361 20.2215 147.057 20.4934C147.78 20.7381 148.42 20.9691 148.976 21.1866C149.56 21.3769 150.2 21.608 150.896 21.8799L152.148 22.3692C152.203 22.3964 152.412 22.4916 152.774 22.6547C153.163 22.8178 153.483 22.9402 153.734 23.0217C154.012 23.1033 154.234 23.1305 154.401 23.1033C154.902 23.0489 155.236 22.8858 155.403 22.6139C155.57 22.3149 155.556 21.9886 155.361 21.6352C155.166 21.2546 154.86 20.9691 154.443 20.7788C153.525 20.3439 151.647 19.6506 148.809 18.6991C146.279 17.8176 144.436 17.0794 143.282 16.4846C143.155 16.419 143.036 16.3552 142.925 16.2931C143.042 16.2168 143.154 16.1434 143.261 16.0729C143.764 15.7418 144.152 15.4753 144.428 15.2736C144.789 15.0017 145.054 14.7842 145.22 14.6211C145.415 14.458 145.777 14.1454 146.305 13.6832C146.862 13.1938 147.502 12.6637 148.225 12.0928C148.281 12.0384 148.42 11.9161 148.642 11.7258C148.865 11.5355 149.032 11.3859 149.143 11.2772C149.282 11.1684 149.463 11.0189 149.686 10.8286C149.908 10.6111 150.061 10.4344 150.145 10.2985C150.256 10.1354 150.353 9.95865 150.437 9.76834C150.548 9.57804 150.59 9.40133 150.562 9.23821C150.534 8.8576 150.423 8.51777 150.228 8.21872C150.061 7.89248 149.88 7.75655 149.686 7.81092C149.352 7.89248 149.06 8.0556 148.809 8.30028C148.559 8.54496 148.281 8.8576 147.975 9.23821C147.696 9.61882 147.446 9.91787 147.224 10.1354C147.001 10.3529 146.709 10.6247 146.347 10.951C146.013 11.2772 145.777 11.4947 145.638 11.6034C145.526 11.7122 145.36 11.8617 145.137 12.052C144.942 12.2423 144.789 12.3782 144.678 12.4598C144.567 12.5142 144.441 12.5957 144.302 12.7045C144.163 12.8132 144.01 12.922 143.843 13.0307C143.676 13.1123 143.496 13.2074 143.301 13.3162C143.204 13.3635 143.084 13.4245 142.94 13.4993C142.836 13.5534 142.72 13.6147 142.591 13.6832C142.582 13.5608 142.573 13.4318 142.564 13.2963C142.484 12.1676 142.382 10.5838 142.258 8.54496C142.118 6.23411 142.007 4.50778 141.924 3.36595C141.896 2.87659 141.757 2.36005 141.506 1.81632C141.256 1.2726 140.964 0.932766 140.63 0.796834C140.491 0.82402 140.38 0.82402 140.296 0.796834C140.241 0.769646 140.171 0.715273 140.087 0.633715L139.962 0.470597C139.295 0.82402 138.947 1.44931 138.919 2.34646C139.503 4.6573 139.879 7.79733 140.046 11.7665C140.074 12.3646 140.032 12.9492 139.921 13.5201C139.837 14.091 139.698 14.7163 139.503 15.3959C139.309 16.0756 139.183 16.5649 139.128 16.864C139.239 17.8155 139.503 19.1612 139.921 20.9012C140.171 21.8799 140.839 22.5867 141.924 23.0217C142.428 22.2326 142.567 21.287 142.339 20.1848Z" fill="#50B2C0"/>
</svg>
