<svg width="75" height="23" viewBox="0 0 75 23" fill="none" xmlns="http://www.w3.org/2000/svg">
<g clip-path="url(#clip0)">
<path d="M38.9029 20.6625C43.8773 20.6625 48.8533 20.6625 53.8308 20.6625C55.7265 20.6625 55.7265 20.6422 55.5535 18.8329C55.2549 15.6057 56.4041 13.0479 59.4205 11.4241C63.7733 9.08338 69.3867 11.7113 70.126 16.4244C70.2086 17.1718 70.2284 17.9242 70.1853 18.6746C70.1734 19.6154 70.3322 19.7918 71.3345 19.8167C71.5714 19.8167 71.8084 19.8054 72.0453 19.8031C74.0523 19.767 74.5523 19.4277 74.8935 17.5325C75.0594 16.6279 74.9788 15.66 74.9906 14.7192C74.9971 14.6444 74.9877 14.5692 74.9628 14.4981C74.938 14.427 74.8983 14.3614 74.8461 14.3053C74.0357 13.7965 73.9244 12.9303 73.6187 12.1772C73.0026 10.6461 71.9008 9.68948 70.2113 9.35477C66.894 8.70344 63.5767 7.99784 60.2428 7.4234C58.5438 7.1294 56.7998 7.06834 55.0819 6.87158C54.6972 6.81576 54.3244 6.70122 53.9777 6.53235C50.7434 5.05103 47.5303 3.53127 44.2888 2.06804C41.3198 0.729201 38.128 0.127628 34.8936 0.0326427C31.8133 -0.060081 28.7329 0.0959662 25.6691 0.157028C24.5294 0.177382 23.3754 0.143459 22.257 0.306291C21.1314 0.485521 20.0262 0.766463 18.9563 1.14533C16.5724 1.94265 14.2827 2.97656 12.1249 4.23009C10.3123 5.2998 8.33371 5.86519 6.25564 6.22025C5.20929 6.40924 4.17587 6.65847 3.16105 6.96657C1.95497 7.32163 1.26543 8.04985 1.23226 9.35703C1.20383 10.7479 1.019 12.1342 0.886312 13.5228C0.857878 13.8146 0.846029 14.1719 0.670685 14.3777C-0.514075 15.7731 0.151764 17.2227 0.526148 18.6407C0.597233 18.9166 1.08061 19.2332 1.41472 19.283C3.0876 19.5272 4.76995 19.7059 6.45231 19.8687C6.92621 19.9162 7.17502 19.6087 7.18923 19.1654C7.20345 18.7221 7.18923 18.2608 7.18923 17.8085C7.16554 14.8933 8.53512 12.7087 11.1913 11.3653C13.7836 10.0558 16.4232 10.2707 18.8046 11.8719C20.7002 13.1429 21.8044 14.9476 21.8708 17.2227C21.8945 18.012 21.8494 18.8058 21.8068 19.5928C21.7736 20.2057 22.0935 20.511 22.6835 20.5721C23.1938 20.6199 23.7063 20.6418 24.219 20.6377C26.6667 20.6377 29.1144 20.6377 31.5645 20.6377H38.91L38.9029 20.6625ZM46.3526 8.45015C45.3811 8.45015 44.5968 8.48181 43.8173 8.45015C41.969 8.35742 40.1208 8.2059 38.2726 8.12674C37.012 8.07247 35.749 8.12674 34.4814 8.08604C33.5715 8.06342 33.3914 7.92773 33.1781 7.08869C33.0217 6.47129 32.9412 5.83353 32.8511 5.20255C32.7113 4.23913 32.5786 3.27345 32.4602 2.3055C32.4436 2.03133 32.4436 1.75647 32.4602 1.4823C37.6257 0.622908 45.8053 3.00432 48.5421 6.16824C47.3455 6.42153 45.9546 6.51426 46.3526 8.43884V8.45015ZM20.4325 2.4118C21.1196 2.18564 21.6978 1.95949 22.2878 1.7763C24.6739 1.03677 27.1358 1.41898 29.5622 1.33982C30.1973 1.31947 30.51 1.64287 30.6143 2.19017C30.9034 3.81848 31.2114 5.4468 31.4341 7.08417C31.5408 7.85762 31.2185 8.09056 30.3892 8.04307L23.0697 7.62694C22.5571 7.62224 22.0459 7.57609 21.5414 7.48899C21.2902 7.43245 20.9301 7.16785 20.904 6.96204C20.7097 5.47394 20.5865 3.97905 20.4325 2.40049V2.4118ZM20.1647 7.21308C19.2359 7.61337 18.3283 7.38043 17.4516 7.36234C16.4825 7.34425 15.6058 6.45772 15.575 5.535C15.5656 5.27619 15.6635 5.02427 15.8475 4.83392C16.9564 3.9293 18.2525 3.34356 19.8045 2.75329C19.9349 4.35447 20.0462 5.75664 20.1647 7.20177V7.21308Z" fill="#50B2C0"/>
<path d="M62.904 23C59.932 23 57.5228 20.7005 57.5228 17.864C57.5228 15.0275 59.932 12.728 62.904 12.728C65.8759 12.728 68.2852 15.0275 68.2852 17.864C68.2852 20.7005 65.8759 23 62.904 23Z" fill="#FF4000"/>
<path d="M14.5202 23C11.5483 23 9.13903 20.7005 9.13903 17.864C9.13903 15.0275 11.5483 12.728 14.5202 12.728C17.4921 12.728 19.9014 15.0275 19.9014 17.864C19.9014 20.7005 17.4921 23 14.5202 23Z" fill="#FF4000"/>
</g>
<defs>
<clipPath id="clip0">
<rect width="75" height="23" fill="white" transform="matrix(-1 0 0 1 75 0)"/>
</clipPath>
</defs>
</svg>
