<svg width="114" height="114" viewBox="0 0 114 114" fill="none" xmlns="http://www.w3.org/2000/svg">
<circle cx="57" cy="57" r="57" fill="#143642"/>
<g clip-path="url(#clip0)">
<path d="M58.9029 64.6625C63.8773 64.6625 68.8533 64.6625 73.8308 64.6625C75.7265 64.6625 75.7265 64.6422 75.5535 62.8329C75.2549 59.6057 76.4041 57.0479 79.4205 55.4241C83.7733 53.0834 89.3867 55.7113 90.126 60.4244C90.2086 61.1718 90.2284 61.9242 90.1853 62.6746C90.1734 63.6154 90.3322 63.7918 91.3345 63.8167C91.5714 63.8167 91.8084 63.8054 92.0453 63.8031C94.0523 63.767 94.5523 63.4277 94.8935 61.5325C95.0594 60.6279 94.9788 59.66 94.9906 58.7192C94.9971 58.6444 94.9877 58.5692 94.9628 58.4981C94.938 58.427 94.8983 58.3614 94.8461 58.3053C94.0357 57.7965 93.9244 56.9303 93.6187 56.1772C93.0026 54.6461 91.9008 53.6895 90.2113 53.3548C86.894 52.7034 83.5767 51.9978 80.2428 51.4234C78.5438 51.1294 76.7998 51.0683 75.0819 50.8716C74.6972 50.8158 74.3244 50.7012 73.9777 50.5323C70.7434 49.051 67.5303 47.5313 64.2888 46.068C61.3198 44.7292 58.128 44.1276 54.8936 44.0326C51.8133 43.9399 48.7329 44.096 45.6691 44.157C44.5294 44.1774 43.3754 44.1435 42.257 44.3063C41.1314 44.4855 40.0262 44.7665 38.9563 45.1453C36.5724 45.9426 34.2827 46.9766 32.1249 48.2301C30.3123 49.2998 28.3337 49.8652 26.2556 50.2203C25.2093 50.4092 24.1759 50.6585 23.1611 50.9666C21.955 51.3216 21.2654 52.0499 21.2323 53.357C21.2038 54.7479 21.019 56.1342 20.8863 57.5228C20.8579 57.8146 20.846 58.1719 20.6707 58.3777C19.4859 59.7731 20.1518 61.2227 20.5261 62.6407C20.5972 62.9166 21.0806 63.2332 21.4147 63.283C23.0876 63.5272 24.77 63.7059 26.4523 63.8687C26.9262 63.9162 27.175 63.6087 27.1892 63.1654C27.2035 62.7221 27.1892 62.2608 27.1892 61.8085C27.1655 58.8933 28.5351 56.7087 31.1913 55.3653C33.7836 54.0558 36.4232 54.2707 38.8046 55.8719C40.7002 57.1429 41.8044 58.9476 41.8708 61.2227C41.8945 62.012 41.8494 62.8058 41.8068 63.5928C41.7736 64.2057 42.0935 64.511 42.6835 64.5721C43.1938 64.6199 43.7063 64.6418 44.219 64.6377C46.6667 64.6377 49.1144 64.6377 51.5645 64.6377H58.91L58.9029 64.6625ZM66.3526 52.4501C65.3811 52.4501 64.5968 52.4818 63.8173 52.4501C61.969 52.3574 60.1208 52.2059 58.2726 52.1267C57.012 52.0725 55.749 52.1267 54.4814 52.086C53.5715 52.0634 53.3914 51.9277 53.1781 51.0887C53.0217 50.4713 52.9412 49.8335 52.8511 49.2026C52.7113 48.2391 52.5786 47.2734 52.4602 46.3055C52.4436 46.0313 52.4436 45.7565 52.4602 45.4823C57.6257 44.6229 65.8053 47.0043 68.5421 50.1682C67.3455 50.4215 65.9546 50.5143 66.3526 52.4388V52.4501ZM40.4325 46.4118C41.1196 46.1856 41.6978 45.9595 42.2878 45.7763C44.6739 45.0368 47.1358 45.419 49.5622 45.3398C50.1973 45.3195 50.51 45.6429 50.6143 46.1902C50.9034 47.8185 51.2114 49.4468 51.4341 51.0842C51.5408 51.8576 51.2185 52.0906 50.3892 52.0431L43.0697 51.6269C42.5571 51.6222 42.0459 51.5761 41.5414 51.489C41.2902 51.4324 40.9301 51.1678 40.904 50.962C40.7097 49.4739 40.5865 47.9791 40.4325 46.4005V46.4118ZM40.1647 51.2131C39.2359 51.6134 38.3283 51.3804 37.4516 51.3623C36.4825 51.3442 35.6058 50.4577 35.575 49.535C35.5656 49.2762 35.6635 49.0243 35.8475 48.8339C36.9564 47.9293 38.2525 47.3436 39.8045 46.7533C39.9349 48.3545 40.0462 49.7566 40.1647 51.2018V51.2131Z" fill="#50B2C0"/>
<path d="M82.904 67C79.932 67 77.5228 64.7005 77.5228 61.864C77.5228 59.0275 79.932 56.728 82.904 56.728C85.8759 56.728 88.2852 59.0275 88.2852 61.864C88.2852 64.7005 85.8759 67 82.904 67Z" fill="#FF4000"/>
<path d="M34.5202 67C31.5483 67 29.139 64.7005 29.139 61.864C29.139 59.0275 31.5483 56.728 34.5202 56.728C37.4921 56.728 39.9014 59.0275 39.9014 61.864C39.9014 64.7005 37.4921 67 34.5202 67Z" fill="#FF4000"/>
</g>
<defs>
<clipPath id="clip0">
<rect width="75" height="23" fill="white" transform="matrix(-1 0 0 1 95 44)"/>
</clipPath>
</defs>
</svg>
