<svg width="34" height="34" viewBox="0 0 34 34" fill="none" xmlns="http://www.w3.org/2000/svg">
<circle cx="17" cy="17" r="17" fill="#FEEFDD"/>
<g clip-path="url(#clip0)">
<path d="M11 22.5936C11 22.9665 11.158 23.3242 11.4393 23.5879C11.7206 23.8517 12.1022 23.9998 12.5 23.9998H21.5C21.8978 23.9998 22.2794 23.8517 22.5607 23.5879C22.842 23.3242 23 22.9665 23 22.5936V12.7498H11V22.5936ZM19.5 15.0936C19.5 14.9693 19.5527 14.85 19.6464 14.7621C19.7402 14.6742 19.8674 14.6248 20 14.6248C20.1326 14.6248 20.2598 14.6742 20.3536 14.7621C20.4473 14.85 20.5 14.9693 20.5 15.0936V21.6561C20.5 21.7804 20.4473 21.8996 20.3536 21.9875C20.2598 22.0754 20.1326 22.1248 20 22.1248C19.8674 22.1248 19.7402 22.0754 19.6464 21.9875C19.5527 21.8996 19.5 21.7804 19.5 21.6561V15.0936ZM16.5 15.0936C16.5 14.9693 16.5527 14.85 16.6464 14.7621C16.7402 14.6742 16.8674 14.6248 17 14.6248C17.1326 14.6248 17.2598 14.6742 17.3536 14.7621C17.4473 14.85 17.5 14.9693 17.5 15.0936V21.6561C17.5 21.7804 17.4473 21.8996 17.3536 21.9875C17.2598 22.0754 17.1326 22.1248 17 22.1248C16.8674 22.1248 16.7402 22.0754 16.6464 21.9875C16.5527 21.8996 16.5 21.7804 16.5 21.6561V15.0936ZM13.5 15.0936C13.5 14.9693 13.5527 14.85 13.6464 14.7621C13.7402 14.6742 13.8674 14.6248 14 14.6248C14.1326 14.6248 14.2598 14.6742 14.3536 14.7621C14.4473 14.85 14.5 14.9693 14.5 15.0936V21.6561C14.5 21.7804 14.4473 21.8996 14.3536 21.9875C14.2598 22.0754 14.1326 22.1248 14 22.1248C13.8674 22.1248 13.7402 22.0754 13.6464 21.9875C13.5527 21.8996 13.5 21.7804 13.5 21.6561V15.0936ZM23.5 9.93732H19.75L19.4563 9.38947C19.394 9.27235 19.2982 9.17382 19.1795 9.10499C19.0608 9.03615 18.9239 8.99973 18.7844 8.99982H15.2125C15.0732 8.99932 14.9367 9.0356 14.8184 9.10452C14.7001 9.17343 14.6049 9.27219 14.5437 9.38947L14.25 9.93732H10.5C10.3674 9.93732 10.2402 9.98671 10.1464 10.0746C10.0527 10.1625 10 10.2818 10 10.4061V11.3436C10 11.4679 10.0527 11.5871 10.1464 11.675C10.2402 11.7629 10.3674 11.8123 10.5 11.8123H23.5C23.6326 11.8123 23.7598 11.7629 23.8536 11.675C23.9473 11.5871 24 11.4679 24 11.3436V10.4061C24 10.2818 23.9473 10.1625 23.8536 10.0746C23.7598 9.98671 23.6326 9.93732 23.5 9.93732V9.93732Z" fill="#FF4000"/>
</g>
<defs>
<clipPath id="clip0">
<rect width="14" height="15" fill="white" transform="translate(10 9)"/>
</clipPath>
</defs>
</svg>
