<svg width="34" height="34" viewBox="0 0 34 34" fill="none" xmlns="http://www.w3.org/2000/svg">
<circle cx="17" cy="17" r="16.5" stroke="#FF0000"/>
<path d="M15.8214 20.375H15.1786C15.0933 20.375 15.0116 20.3404 14.9513 20.2789C14.891 20.2174 14.8571 20.1339 14.8571 20.0469V14.1406C14.8571 14.0536 14.891 13.9701 14.9513 13.9086C15.0116 13.8471 15.0933 13.8125 15.1786 13.8125H15.8214C15.9067 13.8125 15.9884 13.8471 16.0487 13.9086C16.109 13.9701 16.1429 14.0536 16.1429 14.1406V20.0469C16.1429 20.1339 16.109 20.2174 16.0487 20.2789C15.9884 20.3404 15.9067 20.375 15.8214 20.375ZM11.4286 11.1875H13.636L14.5467 9.63711C14.661 9.4427 14.8227 9.28183 15.016 9.17018C15.2093 9.05852 15.4276 8.99989 15.6497 9H18.3503C18.5723 8.99999 18.7905 9.05866 18.9837 9.17031C19.1769 9.28196 19.3385 9.44278 19.4528 9.63711L20.364 11.1875H22.5714C22.6851 11.1875 22.7941 11.2336 22.8745 11.3156C22.9548 11.3977 23 11.509 23 11.625V12.0625C23 12.1785 22.9548 12.2898 22.8745 12.3719C22.7941 12.4539 22.6851 12.5 22.5714 12.5H22.1429V21.6875C22.1429 22.0356 22.0074 22.3694 21.7663 22.6156C21.5252 22.8617 21.1981 23 20.8571 23H13.1429C12.8019 23 12.4748 22.8617 12.2337 22.6156C11.9926 22.3694 11.8571 22.0356 11.8571 21.6875V12.5H11.4286C11.3149 12.5 11.2059 12.4539 11.1255 12.3719C11.0452 12.2898 11 12.1785 11 12.0625V11.625C11 11.509 11.0452 11.3977 11.1255 11.3156C11.2059 11.2336 11.3149 11.1875 11.4286 11.1875ZM18.3971 10.3921C18.3828 10.3677 18.3626 10.3476 18.3383 10.3337C18.3141 10.3197 18.2867 10.3124 18.2589 10.3125H15.7411C15.7133 10.3125 15.686 10.3198 15.6618 10.3337C15.6376 10.3477 15.6174 10.3678 15.6031 10.3921L15.1354 11.1875H18.8646L18.3971 10.3921ZM13.1429 21.6875H20.8571V12.5H13.1429V21.6875ZM18.8214 20.375H18.1786C18.0933 20.375 18.0116 20.3404 17.9513 20.2789C17.891 20.2174 17.8571 20.1339 17.8571 20.0469V14.1406C17.8571 14.0536 17.891 13.9701 17.9513 13.9086C18.0116 13.8471 18.0933 13.8125 18.1786 13.8125H18.8214C18.9067 13.8125 18.9884 13.8471 19.0487 13.9086C19.109 13.9701 19.1429 14.0536 19.1429 14.1406V20.0469C19.1429 20.1339 19.109 20.2174 19.0487 20.2789C18.9884 20.3404 18.9067 20.375 18.8214 20.375Z" fill="#FF0000"/>
</svg>
