<svg width="34" height="34" viewBox="0 0 34 34" fill="none" xmlns="http://www.w3.org/2000/svg">
<circle cx="17" cy="17" r="17" fill="#FEEFDD"/>
<path d="M23.592 12.842L21.158 10.408C20.8968 10.1468 20.5425 10 20.1731 10H12.3929C11.6236 10 11 10.6236 11 11.3929V21.6071C11 22.3764 11.6236 23 12.3929 23H22.6071C23.3764 23 24 22.3764 24 21.6071V13.8269C24 13.4575 23.8532 13.1032 23.592 12.842ZM17.5 21.1429C16.4743 21.1429 15.6429 20.3114 15.6429 19.2857C15.6429 18.26 16.4743 17.4286 17.5 17.4286C18.5257 17.4286 19.3571 18.26 19.3571 19.2857C19.3571 20.3114 18.5257 21.1429 17.5 21.1429ZM20.2857 12.3063V15.2232C20.2857 15.4155 20.1298 15.5714 19.9375 15.5714H13.2054C13.0131 15.5714 12.8571 15.4155 12.8571 15.2232V12.2054C12.8571 12.0131 13.0131 11.8571 13.2054 11.8571H19.8365C19.9289 11.8571 20.0174 11.8938 20.0827 11.9591L20.1837 12.0601C20.2161 12.0925 20.2417 12.1308 20.2592 12.1731C20.2767 12.2153 20.2857 12.2606 20.2857 12.3063Z" fill="#FF4000"/>
</svg>
