<svg width="114" height="114" viewBox="0 0 114 114" fill="none" xmlns="http://www.w3.org/2000/svg">
<circle cx="57" cy="57" r="57" fill="#143642"/>
<path d="M74.844 65.897C74.7873 64.9379 74.7259 64.1203 74.6881 63.2955C74.5862 61.6274 75.0366 59.9726 75.9677 58.5945C76.8988 57.2163 78.257 56.1939 79.8263 55.69C84.3482 54.1914 89.2077 57.6393 89.373 62.4707C89.3896 62.9502 89.3541 63.4298 89.3423 63.9093C89.3187 64.9067 89.4699 65.1082 90.4781 65.1321C91.1459 65.1376 91.8133 65.0976 92.4758 65.0122C93.1842 64.9307 93.6871 64.5015 93.7627 63.8134C93.9067 62.4707 93.9374 61.116 93.9988 59.7637C94.0073 59.6424 93.9702 59.5225 93.8949 59.428C93.0756 58.6535 92.9362 57.5338 92.4781 56.5747C92.2162 55.9696 91.8198 55.4343 91.32 55.0108C90.8202 54.5874 90.2306 54.2872 89.5974 54.1338C85.7817 53.1677 81.9199 52.4002 78.027 51.8344C76.7047 51.6354 75.3729 51.4964 74.0553 51.2686C73.5601 51.163 73.0829 50.9844 72.6385 50.7387C69.0635 48.8989 65.4932 47.0478 61.9277 45.1856C61.3846 44.9027 60.9643 44.8499 60.747 45.7083C63.4177 47.2189 66.256 48.4777 68.9006 50.5325C68.4071 50.662 68.1332 50.7579 67.8522 50.801C67.5027 50.8562 67.1438 50.849 66.7943 50.9065C65.6514 51.0912 65.446 51.3693 65.5192 52.5633C65.5136 52.7059 65.4971 52.8478 65.4696 52.9877C65.1684 53.0308 64.8647 53.0548 64.5605 53.0597C60.9832 52.923 57.4058 52.7935 53.8308 52.6233C52.3857 52.5538 52.388 52.513 52.0622 51.0768C51.8591 50.1752 51.8119 50.1489 50.6643 50.3575C50.6265 50.5972 50.5699 50.861 50.5486 51.1271C50.466 52.1797 50.2983 52.3476 49.2381 52.338C48.6478 52.338 48.0574 52.2852 47.4695 52.2684C45.5025 52.2109 43.5356 52.1701 41.5662 52.103C40.2817 52.0598 40.0054 51.8752 39.6394 50.614C39.4458 49.9522 39.0703 49.8419 38.4942 49.8947C37.3985 50.0026 36.2958 50.0481 35.2049 50.1872C31.9369 50.5996 28.6728 51.0344 25.4126 51.4916C24.5982 51.6294 23.7948 51.8273 23.0088 52.0838C21.9368 52.4051 21.2567 53.0429 21.1953 54.2897C21.1245 55.6828 20.9592 57.071 20.8199 58.4593C20.7797 58.8429 20.7561 59.3656 20.5153 59.5623C19.9911 59.989 19.9911 60.5046 20.0029 61.0608C20.0029 61.4996 20.0383 61.9384 20.0832 62.3748C20.2673 64.1251 20.6475 64.5759 22.3831 64.866C23.4716 65.0331 24.5679 65.1427 25.6676 65.1945C26.5531 65.2496 26.801 64.9955 26.8483 64.1107C26.879 63.6312 26.8695 63.1516 26.8695 62.6721C26.8695 58.5744 30.4847 55.2799 34.2462 55.3327C35.2151 55.3361 36.1737 55.5337 37.0672 55.9141C37.9607 56.2945 38.7715 56.8503 39.4531 57.5495C40.1347 58.2487 40.6736 59.0776 41.0391 59.9888C41.4045 60.8999 41.5893 61.8753 41.5828 62.8591C41.5828 63.4969 41.519 64.1347 41.519 64.7773C41.519 65.6141 41.7244 65.8514 42.5226 65.9569C42.8361 65.9923 43.1517 66.0059 43.4671 65.9977C53.5419 65.9977 63.6168 65.9977 73.6917 65.9977C73.9986 66.0049 74.2938 65.9497 74.844 65.897Z" fill="#50B2C0"/>
<path d="M82.0751 67.9997C84.7923 67.9693 87.0213 65.4265 86.9998 62.3855C86.9811 60.9368 86.4364 59.5557 85.4855 58.5458C84.5346 57.5359 83.2555 56.9801 81.9295 57.0005C80.6035 57.021 79.3393 57.6161 78.4149 58.655C77.4905 59.6938 76.9818 61.0912 77.0005 62.5399C77.0219 65.5154 79.3579 68.0324 82.0751 67.9997Z" fill="#FF4000"/>
<path d="M29.0403 62.2682C28.6423 64.9867 31.2647 67.7379 33.8232 67.974C37.0995 68.2779 39.6485 65.8703 39.9541 63.2336C40.4018 59.3488 37.4903 57.2707 34.9792 57.023C32.2881 56.7542 28.9976 58.8649 29.0403 62.2682Z" fill="#FF4000"/>
</svg>
