<svg width="114" height="114" viewBox="0 0 114 114" fill="none" xmlns="http://www.w3.org/2000/svg">
<circle cx="57" cy="57" r="57" fill="#143642"/>
<path d="M24.3777 66.4977C23.7931 66.3288 23.303 65.9665 23.2385 65.3065C23.1181 64.2086 23.0644 63.1019 23.0042 61.9973C22.9941 61.9064 23.0023 61.8142 23.0282 61.7267C23.054 61.6391 23.0971 61.558 23.1547 61.4884C23.8189 61.0439 23.6985 60.3439 23.7587 59.6927C23.9392 57.6926 24.0295 55.6924 24.8334 53.8278C25.7319 51.7321 26.71 49.672 27.7138 47.6274C28.1308 46.774 28.7219 46.0117 29.1905 45.1827C29.4371 44.7888 29.6086 44.3498 29.6957 43.8893C29.7709 43.3404 29.9988 43.087 30.5039 43.0604C31.0757 43.0337 31.6496 42.9959 32.2235 43.0004C40.9248 43.0759 49.6268 43.1574 58.3296 43.2448C60.5135 43.267 62.7103 43.3182 64.7782 44.1582C66.1754 44.7272 67.5962 45.2694 68.9096 46.0072C71.3299 47.3651 73.6729 48.8697 76.0632 50.2876C76.7982 50.7422 77.5665 51.1368 78.3611 51.4677C80.9405 52.4833 83.5199 53.4411 86.1144 54.4257C86.3487 54.5146 86.5723 54.6479 86.8108 54.7146C88.3951 55.1946 89.156 56.4036 89.5902 57.9526C89.8825 58.9927 89.8653 60.175 90.8025 60.9573C90.9358 61.0661 90.9595 61.3662 90.9638 61.5773C90.9766 62.3907 91.0497 63.2174 90.9423 64.0219C90.579 66.7599 90.119 67.0644 87.5653 67.0466C86.6238 67.0466 86.568 66.8888 86.5658 65.9354C86.5658 64.9087 86.5895 63.8397 86.3337 62.8641C85.6394 60.275 83.2749 58.3282 80.6954 58.0526C79.3869 57.9187 78.0689 58.18 76.9011 58.8048C75.7333 59.4296 74.7658 60.3911 74.1157 61.5729C73.2237 63.2485 73.0904 65.002 73.5418 66.8421C73.789 67.8467 73.6966 67.94 72.7422 67.9889C72.5638 67.9889 72.3832 68 72.2048 68L44.3791 67.9733C43.9853 67.9867 43.5911 67.9734 43.199 67.9333C42.5542 67.8467 42.393 67.6133 42.4918 66.9666C42.5241 66.7444 42.6058 66.5377 42.6466 66.3221C42.9179 64.9708 42.7905 63.5664 42.2808 62.2908C41.771 61.0153 40.9025 59.9274 39.7877 59.1682C37.4619 57.6259 35.0351 57.5437 32.6943 59.026C30.3534 60.5083 29.2443 62.8041 29.47 65.6932C29.5022 66.1154 29.47 66.5443 29.47 67.111C27.602 67.051 25.9705 66.9644 24.3777 66.4977ZM70.7904 51.1632C71.2891 50.8587 71.9146 50.7765 72.4864 50.5943C71.8415 49.4831 68.8601 47.6051 65.6917 46.1739C62.8801 44.9005 59.9697 44.7716 56.8571 45.0316C56.9431 45.6828 57.0226 46.2517 57.0914 46.8095C57.2763 48.3496 57.4461 49.892 57.6417 51.4321C57.7621 52.3855 57.9749 52.5877 58.8562 52.6322C62.2138 52.8041 65.5728 52.9707 68.9332 53.1322C69.4212 53.1544 69.9112 53.1322 70.3927 53.1322C70.6593 52.3366 70.1327 51.561 70.7883 51.1632H70.7904ZM55.9092 51.4677C55.7487 49.8142 55.5782 48.1622 55.3976 46.5117C55.3675 46.2184 55.2794 45.9317 55.2257 45.6428C55.1397 45.1694 54.8387 44.9583 54.4024 44.9138C54.2595 44.9 54.116 44.8941 53.9725 44.8961C51.2555 44.8694 48.5385 44.8316 45.8193 44.8227C44.6457 44.8227 44.4565 45.0094 44.4092 46.2406C44.349 47.9029 44.3168 49.5742 44.3039 51.2299C44.3039 52.0388 44.4672 52.2455 45.226 52.2722C48.5492 52.3966 51.8724 52.4944 55.1977 52.59C55.4391 52.5691 55.6781 52.5244 55.9113 52.4566C55.9262 52.1264 55.9248 51.7955 55.9071 51.4654L55.9092 51.4677ZM41.6557 52.2122C42.6294 52.2499 42.6874 52.1788 42.7455 51.1832C42.8314 49.7016 42.9117 48.2252 42.9862 46.754C43.0068 46.458 43.0068 46.161 42.9862 45.865C42.9883 45.7445 42.9667 45.6248 42.9227 45.5132C42.8786 45.4016 42.8131 45.3004 42.7301 45.2158C42.647 45.1312 42.5482 45.065 42.4396 45.0211C42.3311 44.9772 42.215 44.9566 42.0985 44.9605C39.5749 44.8072 37.0901 44.9338 34.7686 46.1184C34.377 46.2996 34.0145 46.5416 33.6938 46.8362C32.8211 47.7096 31.9892 48.6252 31.1466 49.5297C31.0006 49.6921 30.869 49.8676 30.7532 50.0542C30.1084 51.0543 30.3233 51.5588 31.4712 51.6454C33.2897 51.7877 35.1125 51.8677 37.4533 52.0033C38.5109 52.0521 40.0801 52.1477 41.6535 52.2099L41.6557 52.2122Z" fill="#50B2C0"/>
<path d="M75.0029 64.9448C74.9004 67.7419 77.5388 70.0042 79.9808 70C82.1731 70 85.0506 68.1367 84.9993 64.843C84.9545 62.1201 82.7879 60.0191 79.9381 60C78.6248 60.0073 77.368 60.5318 76.4429 61.4587C75.5179 62.3855 75 63.6391 75.0029 64.9448V64.9448Z" fill="#FF4000"/>
<path d="M31.0043 64.9415C30.8777 67.7045 33.5526 70.0169 36.0022 69.9999C38.3293 69.9808 41.0021 67.9425 41 64.9224C41.0017 64.2762 40.8745 63.6361 40.6258 63.0386C40.377 62.4412 40.0117 61.8983 39.5505 61.441C39.0894 60.9837 38.5416 60.621 37.9386 60.3737C37.3356 60.1264 36.6892 59.9994 36.0365 60C33.1597 60 31.0129 62.1063 31.0043 64.9415Z" fill="#FF4000"/>
</svg>
