<svg width="114" height="114" viewBox="0 0 114 114" fill="none" xmlns="http://www.w3.org/2000/svg">
<circle cx="57" cy="57" r="57" fill="#143642"/>
<path d="M38.0464 53.7664C33.0543 53.7664 29 57.8523 29 62.8832C29 67.9142 33.0543 72 38.0464 72C41.6967 72 44.8276 69.819 46.256 66.6782L48.4058 68.3504C48.4058 68.3504 64.2046 68.4667 65.0703 67.9723C65.0703 67.9723 63.1081 62.5779 65.6041 60.295C65.8638 60.0478 66.1957 59.7861 66.5564 59.4953C66.138 60.5422 65.9071 61.6909 65.9071 62.8832C65.9071 67.9142 69.9614 72 74.9536 72C79.9457 72 84 67.9142 84 62.8832C84 57.8523 79.9457 53.7664 74.9536 53.7664C74.867 53.7664 74.7949 53.781 74.7083 53.781C75.3576 53.3593 75.776 53.083 75.776 53.083L75.0978 52.4723C75.0978 52.4723 77.0601 52.0216 76.6128 51.0328C76.1655 50.0441 71.4042 44.1116 71.4042 44.1116C71.4042 44.1116 72.2411 42.2941 70.5097 41L69.6729 42.8175C69.6729 42.8175 67.5375 41.3344 66.7007 41.6252C65.8494 41.916 64.5797 42.0469 64.1902 42.6867L63.8006 43.0502C63.8006 43.0502 63.6852 43.7045 64.3345 44.6787C64.3345 44.6787 70.8704 46.6998 71.1734 48.1829C71.1734 48.1829 71.6207 49.128 69.6729 49.3462L63.7429 47.5286C63.7429 47.5286 56.1393 42.3086 48.9829 50.0295C48.9829 50.0295 43.7023 51.5708 39.9942 46.8452C39.9942 46.8452 39.9365 45.3039 31.0055 45.5947L31.6259 46.2491C31.6259 46.2491 32.2896 47.0052 32.9244 47.5286C32.9244 47.5286 37.527 52.8213 41.0619 52.5159L46.0829 54.9587L48.3193 58.8119C48.3193 58.8119 48.3193 59.1463 48.3481 59.6407C47.8287 59.757 47.2516 59.8734 46.6312 60.0042C45.4336 56.3837 42.043 53.7664 38.0464 53.7664ZM74.9536 56.5582C78.4163 56.5582 81.2298 59.3935 81.2298 62.8832C81.2298 66.3729 78.4163 69.2083 74.9536 69.2083C71.4908 69.2083 68.6773 66.3729 68.6773 62.8832C68.6773 59.3935 71.4908 56.5582 74.9536 56.5582ZM38.0464 69.2083C34.5837 69.2083 31.7702 66.3729 31.7702 62.8832C31.7702 59.3935 34.5837 56.5582 38.0464 56.5582C40.7012 56.5582 42.9808 58.2303 43.8898 60.6004C44.4958 62.2871 44.2072 64.1046 44.2072 64.1046C43.6445 66.9981 41.0908 69.2083 38.0464 69.2083Z" fill="#50B2C0"/>
<circle cx="75" cy="63" r="4" fill="#FF4000"/>
<circle cx="38" cy="63" r="4" fill="#FF4000"/>
</svg>
