<svg width="114" height="114" viewBox="0 0 114 114" fill="none" xmlns="http://www.w3.org/2000/svg">
<circle cx="57" cy="57" r="57" fill="#143642"/>
<path d="M59.8549 43.7384C61.4422 43.7384 63.034 43.8014 64.6166 43.7226C67.2984 43.5922 69.5084 44.5727 71.4954 46.2122C72.9687 47.4244 74.5165 48.5444 75.9573 49.8105C77.1193 50.8248 78.3997 51.2206 79.9289 51.3443C83.9798 51.6605 87.9941 52.322 91.9249 53.3211C93.6213 53.7574 93.9746 54.2072 93.9885 55.9344C93.9885 57.0971 93.9537 58.2598 93.9885 59.418C94.0025 59.7554 94.1372 60.2591 94.3812 60.3851C94.9994 60.7022 95.011 61.1835 94.9971 61.7075C94.9785 62.3439 94.9529 62.9826 94.8855 63.6146C94.7368 65.0381 94.3696 65.362 92.9172 65.4137C92.7243 65.4137 92.5291 65.4362 92.3362 65.4137C91.4555 65.3665 91.1975 65.1461 90.9605 64.332C90.7234 63.5179 90.5654 62.7217 90.2098 61.9863C88.8643 59.1976 85.6596 57.5199 82.4828 57.8663C79.1991 58.2283 76.4198 60.5065 75.7993 63.5718C75.3577 65.7533 74.958 65.4879 73.2662 65.4924C63.7041 65.5299 54.1428 65.5584 44.5822 65.5779C44.2336 65.5779 43.885 65.5779 43.5364 65.5644C43.3208 65.5793 43.1074 65.5137 42.9401 65.3811C42.7729 65.2486 42.6644 65.059 42.6371 64.8515C42.5813 64.5951 42.5162 64.341 42.4767 64.0801C42.2205 62.5265 41.46 61.0921 40.3052 59.9846C39.1505 58.8771 37.6615 58.1541 36.0538 57.9201C34.4462 57.6862 32.8033 57.9534 31.363 58.6833C29.9228 59.4131 28.76 60.5676 28.0429 61.9796C27.6432 62.7735 27.4503 63.673 27.2295 64.5411C26.9716 65.5532 26.9414 65.6184 25.8491 65.6409C25.1524 65.6792 24.4538 65.6747 23.7576 65.6274C22.5701 65.5037 21.3896 65.3193 20.2113 65.1214C19.4654 64.9954 19.068 64.4939 19.0331 63.772C18.989 62.8387 18.989 61.9009 19.0331 60.9676C19.0396 60.8406 19.0746 60.7165 19.1356 60.6038C19.1966 60.4912 19.2821 60.3928 19.3863 60.3154C19.9975 60.0095 19.9882 59.4765 20.0068 58.966C20.058 57.5064 20.0603 56.0424 20.1091 54.585C20.1211 54.099 20.1873 53.6157 20.3066 53.1435C20.539 52.2596 21.0038 51.8953 21.9473 51.8278C22.5631 51.7851 23.1836 51.7986 23.8064 51.7986L49.1231 51.8211C49.4717 51.8211 49.8203 51.8211 50.1666 51.8098C50.7359 51.7941 51.1286 51.549 51.2588 50.989C51.3889 50.429 51.54 49.8218 51.6399 49.2326C51.8584 47.9394 52.0257 46.6395 52.2604 45.3509C52.5137 43.9768 52.8228 43.7429 54.2845 43.7316C56.1436 43.7316 58.0028 43.7316 59.8619 43.7316L59.8549 43.7384ZM59.1717 46.7047C59.3692 48.1103 59.5598 49.5182 59.7875 50.9193C59.927 51.7626 60.1222 51.9088 60.9936 51.9718C61.3004 51.9943 61.6118 51.9718 61.9232 51.9718H70.0337H71.5837C71.6162 51.3825 71.3908 50.7641 72.1298 50.5977C72.6132 50.4875 73.1012 50.393 73.7171 50.2648C73.5884 50.0487 73.4381 49.8454 73.2685 49.6576C72.339 48.8165 71.3815 48.0001 70.4473 47.1613C68.7625 45.6432 66.815 44.8224 64.4725 44.9123C63.0782 44.9686 61.6838 44.9123 60.2895 44.9258C59.8805 44.9258 59.4738 44.9933 58.9765 45.036C59.0555 45.686 59.0997 46.1987 59.1717 46.7047V46.7047ZM57.9888 50.6179C57.8331 49.1336 57.6565 47.6515 57.4845 46.1695C57.3521 45.045 57.287 44.9753 56.1529 44.9573C55.9205 44.9573 55.6881 44.9573 55.4557 44.9573C54.991 44.9573 54.7098 45.1822 54.6796 45.6095C54.5518 47.4716 54.4472 49.3338 54.331 51.1959C54.3077 51.6457 54.5262 51.929 54.9979 51.938C55.9507 51.956 56.9036 51.938 57.9911 51.938C57.9935 51.3578 58.026 50.9822 57.9888 50.6179V50.6179Z" fill="#50B2C0"/>
<path d="M35.0946 60.0003C33.5596 59.9861 32.0794 60.5641 30.9674 61.6117C29.8555 62.6593 29.1992 64.0943 29.1376 65.6127C29.003 69.4025 32.4321 71.774 34.9554 71.8214C37.7684 71.8756 40.9945 69.276 40.9557 65.9221C40.9169 62.5682 38.4529 60.0454 35.0946 60.0003Z" fill="#FF4000"/>
<path d="M77 65.8479C77 68.8693 79.6496 71.7547 82.4499 71.8204C86.0474 71.902 88.978 69.2455 88.8158 65.5306C88.6696 62.2146 85.9081 59.9842 82.8633 60.0001C81.3048 60.0055 79.8121 60.6243 78.7129 61.7206C77.6136 62.817 76.9976 64.3013 77 65.8479V65.8479Z" fill="#FF4000"/>
</svg>
