<svg width="114" height="114" viewBox="0 0 114 114" fill="none" xmlns="http://www.w3.org/2000/svg">
<circle cx="57.001" cy="57" r="57" fill="#143642"/>
<path d="M75.7769 49.3284C75.9042 49.442 76.0408 49.5447 76.1852 49.6357C77.206 50.1714 78.0775 50.9528 78.721 51.9093C79.5183 53.0934 80.2511 54.327 80.9366 55.5777C81.0502 55.8164 81.2122 56.029 81.4124 56.2017C81.6125 56.3745 81.8464 56.5038 82.0992 56.5813C84.3442 57.3062 86.5842 58.0512 88.8192 58.8162C90.2461 59.3019 90.3579 59.4609 90.4008 60.976C90.4288 61.9774 90.4202 62.981 90.4223 63.9846C90.4223 64.466 90.4524 64.9001 91.0004 65.1364C91.101 65.1995 91.186 65.2845 91.2492 65.3849C91.3125 65.4854 91.3523 65.5987 91.3658 65.7167C91.4345 66.8234 91.5377 67.9538 91.0928 69.0025C90.9252 69.4001 90.6071 69.8492 90.2332 70.0211C89.4488 70.3886 88.5957 70.3026 87.7318 70.1114C87.7619 69.4559 87.8156 68.923 87.8049 68.3922C87.7339 64.4874 83.6487 61.8162 80.0899 63.3377C77.5949 64.4122 76.3077 66.6837 76.6752 69.3915C76.7353 69.8385 76.7912 70.2876 76.8793 70.956C67.3764 70.9302 57.9982 70.9989 48.4888 70.8958C48.5662 70.3155 48.6049 69.8643 48.6887 69.4194C49.3119 66.1959 46.3763 62.6522 43.1485 62.8069C41.6872 62.8778 40.4709 63.3184 39.3878 64.3349C38.4121 65.2525 37.6965 66.2475 37.4709 67.5863C37.3314 68.3627 37.374 69.1609 37.5955 69.918C37.8104 70.6959 37.6578 70.8807 36.8648 70.9516C36.6886 70.9667 36.5081 70.9516 36.3297 70.9645C33.0697 70.9645 29.8097 70.9839 26.5518 70.9839C25.7287 70.9839 24.9056 70.9323 24.0804 70.9087C23.6893 70.9087 23.339 70.7668 23.238 70.3736C22.8641 68.8993 22.8856 67.4015 23.0467 65.9036C23.0493 65.8667 23.0645 65.8318 23.0897 65.8048C23.7044 65.289 23.5668 64.5799 23.569 63.9094C23.569 62.8005 23.5561 61.6894 23.569 60.5784C23.569 54.8492 23.5689 49.1199 23.6055 43.3864C23.6055 42.0089 24.3491 41.2374 25.7266 41.0354C26.0471 41.0027 26.3695 40.9926 26.6915 41.0053C41.6973 41.0053 56.7037 41.0053 71.711 41.0053C72.8201 41.0206 73.927 41.1082 75.0247 41.2674C76.7754 41.5062 78.4216 42.2398 79.7697 43.3821C80.5342 43.9844 81.1306 44.7733 81.5018 45.6729C81.9832 46.8914 81.605 47.8606 80.4445 48.4516C79.4925 48.9373 78.4545 49.0017 77.4166 49.0426C76.8922 49.064 76.3657 49.0426 75.8392 49.0426L75.7769 49.3284ZM79.2819 55.4745C78.5319 54.011 77.7561 52.5648 76.5999 51.3635C75.7232 50.4544 74.61 50.1063 73.4194 50.0139C72.317 49.9279 71.2059 49.9795 70.0992 49.9666C69.5491 49.9666 69.3148 50.2331 69.375 50.7703C69.5512 52.3305 69.7253 53.8886 69.9079 55.4487C70.0111 56.3363 70.6859 56.607 71.4122 56.7381C72.8542 56.9831 74.3048 57.1808 75.7554 57.3828C76.3077 57.4581 76.8686 57.4903 77.3736 57.5376C77.4724 57.3828 77.5391 57.3227 77.5434 57.2668C77.6229 56.0161 77.6229 56.0182 78.908 56.087C79.0615 56.0821 79.2145 56.0663 79.3657 56.0397C79.3647 55.848 79.335 55.6575 79.2776 55.4745H79.2819ZM35.7817 49.8871C34.9221 49.9022 34.8125 50.0268 34.7911 50.9014C34.7782 51.4365 34.791 51.9759 34.8125 52.5089C34.834 53.0418 35.1199 53.3685 35.6872 53.3685H37.4064C39.1557 53.3685 40.905 53.39 42.6564 53.3857C44.0683 53.3857 44.1994 53.2439 44.2166 51.8814C44.2424 49.7324 44.1586 49.8656 42.2159 49.8979C41.2875 49.9129 40.3591 49.8979 39.4222 49.8979C38.2101 49.8893 36.9959 49.8742 35.7817 49.8957V49.8871Z" fill="#50B2C0"/>
<path d="M82.1877 64.3456C79.8733 64.3284 78.0724 66.1379 77.995 68.4653C77.9198 70.7453 80.144 72.875 82.1426 72.817C84.4248 72.7525 86.3718 70.8829 86.3826 68.5641C86.3945 68.0089 86.2943 67.4569 86.088 66.9413C85.8817 66.4256 85.5736 65.9569 85.182 65.5631C84.7904 65.1693 84.3233 64.8585 83.8089 64.6493C83.2944 64.4401 82.743 64.3368 82.1877 64.3456V64.3456Z" fill="#FF4000"/>
<path d="M47.3494 68.433C47.3365 66.0691 45.6001 64.4509 43.1245 64.4423C40.3866 64.4316 39.2842 66.1422 39.0414 68.4803C38.8394 70.4896 41.2119 72.8256 43.1503 72.8256C45.4991 72.8342 47.4999 70.6142 47.3494 68.433Z" fill="#FF4000"/>
</svg>
