<svg width="114" height="114" viewBox="0 0 114 114" fill="none" xmlns="http://www.w3.org/2000/svg">
<circle cx="57" cy="57" r="57" fill="#143642"/>
<path d="M42.7192 42.0124C47.9702 41.9995 53.2362 41.9841 58.5022 42.0381C60.1624 42.0569 61.8118 42.3165 63.402 42.8095C65.6016 43.4857 67.4449 44.7842 69.226 46.1753C72.3298 48.6009 75.402 51.0763 78.4427 53.6013C79.6709 54.6795 80.8456 55.8209 81.9625 57.0211C82.9415 58.0214 83.2429 59.3096 83.1507 60.6775C83.0959 61.4927 82.9938 62.2435 83.5991 62.9377C83.8009 63.1692 83.7411 63.668 83.7436 64.046C83.756 65.6042 83.7436 67.165 83.7436 68.862C83.0934 68.862 82.4806 68.862 81.8703 68.862C81.2999 68.862 81.0533 68.4866 81.0309 67.9544C81.0035 67.273 81.0309 66.5864 81.0159 65.8973C80.8914 62.0095 77.5908 58.5665 73.8219 58.3891C69.1662 58.1679 65.5343 61.7652 65.5293 66.5993C65.5293 67.6278 65.5293 68.6306 65.5293 69.7826C65.1009 69.8083 64.6151 69.8571 64.1319 69.8571C59.942 69.8571 55.7538 69.852 51.5672 69.8417C51.2758 69.8417 50.9843 69.8417 50.6979 69.8211C49.7015 69.7337 49.4524 69.4869 49.4798 68.4609C49.4798 67.6895 49.5744 66.9181 49.5545 66.1467C49.5271 65.0961 49.2992 64.0614 48.884 63.1018C48.4688 62.1422 47.8743 61.2765 47.1346 60.5543C46.3949 59.8321 45.5246 59.2675 44.5733 58.8929C43.622 58.5183 42.6085 58.3409 41.5907 58.3711C37.2863 58.4354 33.9184 62.4852 34.0754 66.3422C34.1077 67.147 34.0754 67.9518 34.0754 68.7309C32.7277 69.1217 32.0552 68.8723 31.7338 67.7615C31.2662 65.9985 31.1359 64.1583 31.3502 62.3438C31.5149 62.241 31.6938 62.1647 31.8808 62.1175C32.7551 62.0943 32.9868 61.5415 33.0217 60.7701C33.054 60.0861 33.1113 59.4022 33.1935 58.7131C33.5149 56.1032 33.617 53.4084 34.8052 50.9991C35.7045 49.1761 36.7831 47.4456 37.8268 45.7022C38.4546 44.6531 39.2567 43.6966 39.2168 42.2181C40.4773 42.1409 41.5932 42.0149 42.7192 42.0124ZM68.668 51.1971C68.9794 51.1534 69.2883 51.0865 69.5847 51.0351C69.5847 50.8551 69.6196 50.7394 69.5847 50.6957C68.0726 48.9961 66.5955 47.2476 65.0162 45.6302C63.7707 44.3677 62.0917 44.0129 60.4203 43.9563C56.8133 43.8303 53.1963 43.8226 49.5968 43.748C48.8495 43.73 48.3513 44.0334 48.04 44.7534C47.116 46.8653 46.5579 49.128 46.3909 51.4388C46.3212 52.6808 46.6525 53.0485 47.8855 53.1205C49.9132 53.2387 51.9459 53.2979 53.9785 53.3596C57.7981 53.4761 61.6126 53.5841 65.4222 53.6836C65.8631 53.6964 66.3065 53.6836 66.8197 53.6836C66.7474 51.5545 66.8396 51.4465 68.668 51.1971ZM41.1797 44.6737C39.1039 46.3365 37.5325 48.5778 36.6511 51.1328C36.2425 52.2539 36.4916 52.6962 37.6201 52.7322C39.0698 52.781 40.5196 52.7322 41.9694 52.7322C42.2855 52.7336 42.5959 52.6445 42.8659 52.4747C43.136 52.305 43.355 52.0612 43.4988 51.7705C43.7986 51.2596 44.0433 50.7164 44.2287 50.1506C44.8266 48.1527 45.3771 46.1419 46.0023 43.9383C44.1938 43.4677 42.5896 43.5577 41.1797 44.6737Z" fill="#50B2C0"/>
<path d="M68.0002 66.4839C67.9696 69.7572 70.8514 71.9573 73.4012 71.9994C76.0216 72.0415 79.0211 69.8718 78.9999 66.4395C78.994 64.991 78.4088 63.6041 77.3732 62.584C76.3376 61.5639 74.9363 60.9942 73.4777 61C72.0191 61.0059 70.6225 61.587 69.5953 62.6154C68.5681 63.6439 67.9943 65.0354 68.0002 66.4839V66.4839Z" fill="#FF4000"/>
<path d="M41.5247 61.002C40.7998 60.9933 40.0803 61.1285 39.4084 61.3999C38.7365 61.6713 38.1255 62.0734 37.6112 62.5826C37.0969 63.0919 36.6896 63.6982 36.4129 64.366C36.1363 65.0339 35.996 65.75 36.0001 66.4725C36.0001 69.7154 38.9036 71.9548 41.433 71.9993C44.0683 72.0462 46.9906 69.6381 47 66.503C47.0024 63.11 44.1341 60.9246 41.5247 61.002Z" fill="#FF4000"/>
</svg>
