<svg width="115" height="114" viewBox="0 0 115 114" fill="none" xmlns="http://www.w3.org/2000/svg">
<circle cx="57.0059" cy="57" r="57" fill="#143642"/>
<path d="M84.0968 61.9931C84.0968 61.2112 84.1565 60.421 84.066 59.6474C83.7244 56.7461 80.7738 54.2379 77.5762 54.3798C74.463 54.5198 71.8848 56.7502 71.4671 59.8511C71.3306 60.9382 71.3772 62.0406 71.605 63.1124C71.7758 63.9848 71.6544 64.17 70.782 64.2235C69.9095 64.277 69.0083 64.2647 68.1215 64.2626C60.7538 64.2503 53.384 64.2345 46.0123 64.2153C45.2242 64.2153 44.4361 64.2153 43.648 64.1927C42.7818 64.1618 42.576 63.9519 42.576 63.0651C42.576 62.4828 42.6522 61.9025 42.6912 61.3202C42.8168 59.4519 42.325 57.7708 41.0143 56.4128C40.0838 55.438 38.8721 54.7784 37.5484 54.5261C36.2247 54.2737 34.8553 54.4413 33.6315 55.0054C31.1089 56.1844 29.7385 58.5856 29.9504 61.4416C29.9935 61.8152 30.0018 62.192 29.9751 62.5671C29.8908 63.3284 29.5492 63.5959 28.7879 63.4704C28.2104 63.4001 27.6417 63.2712 27.0903 63.0857C26.4806 62.8726 25.9068 62.568 25.3887 62.1824C24.5656 61.5157 24.4442 60.6206 24.9483 59.6926C25.1541 59.3325 25.3784 58.991 25.5965 58.6432C26.2138 57.6576 26.187 56.7338 25.4339 55.8017C24.6109 54.7831 24.7097 54.4848 25.9298 53.9786C26.1521 53.8881 26.3702 53.7872 26.5986 53.7152C29.1788 52.9086 31.7426 52.0691 34.3455 51.3078C37.8637 50.2762 41.4662 49.5581 45.111 49.1617C48.5946 48.781 52.0802 48.7255 55.5411 49.4539C56.0761 49.5671 56.6543 49.5238 57.1605 49.7008C59.1934 50.4066 61.2243 51.1267 63.2222 51.9251C64.7408 52.5424 66.2058 53.2811 67.7079 53.9333C68.0198 54.0607 68.3594 54.1047 68.6935 54.0609C71.2429 53.7315 73.8124 53.5816 76.3828 53.6123C79.4402 53.6302 82.4677 54.2163 85.3109 55.3407C86.8088 55.9292 88.243 56.6638 89.4117 57.8305C90.029 58.4478 90.1607 59.1247 89.8047 59.8881C88.9096 61.812 87.4693 63.0795 85.3376 63.4437C84.9528 63.5095 84.5434 63.4252 84.103 63.4087C84.0969 62.8593 84.0989 62.4272 84.0968 61.9931ZM48.5205 50.7296C48.9608 51.8051 49.4156 52.8757 49.8847 53.9416C50.181 54.6206 50.679 55.0383 51.4464 55.0938C51.788 55.1165 52.1234 55.1967 52.465 55.2193C54.3168 55.3469 56.1522 55.4848 57.9979 55.5753C59.1686 55.6071 60.3379 55.4734 61.4712 55.1782C61.4424 54.8922 61.428 54.6947 61.4012 54.5012C61.2963 53.707 61.4486 53.5403 62.2716 53.5444H63.2078C61.677 51.2193 51.7469 48.8428 48.3929 49.9868C48.4089 50.2382 48.4517 50.4872 48.5205 50.7296V50.7296ZM46.9176 50.4806C46.8405 50.3242 46.7109 50.1998 46.5515 50.1291C46.3921 50.0585 46.2129 50.0459 46.0452 50.0938C45.0591 50.3473 44.0889 50.6593 43.1398 51.028C42.5987 51.2502 42.5842 51.6185 42.9711 52.1103C43.1687 52.3905 43.4197 52.629 43.7098 52.8119C44.8415 53.4292 45.9937 54.028 47.1563 54.5959C47.4073 54.7173 47.7345 54.6844 48.2612 54.7543C47.9835 53.1082 47.6563 51.7358 46.9176 50.4806V50.4806Z" fill="#50B2C0"/>
<path d="M72.9419 60.7111C72.9131 63.7523 75.6292 65.6165 77.6374 65.5836C80.2856 65.5383 82.5757 63.5527 82.5757 60.7152C82.5592 58.1041 80.7238 55.9827 77.7053 55.9457C77.0771 55.9368 76.4536 56.054 75.8715 56.2904C75.2894 56.5267 74.7607 56.8775 74.3166 57.3218C73.8724 57.7661 73.5219 58.295 73.2858 58.8772C73.0497 59.4593 72.9328 60.083 72.9419 60.7111Z" fill="#FF4000"/>
<path d="M31.4641 60.7255C31.4333 63.8634 34.2296 65.598 36.2749 65.6021C38.3201 65.6062 41.0897 63.7975 41.065 60.6967C41.0612 59.4235 40.5518 58.2041 39.6488 57.3065C38.7458 56.4089 37.5233 55.9068 36.2502 55.9107C34.977 55.9145 33.7575 56.4239 32.86 57.3269C31.9624 58.2298 31.4603 59.4524 31.4641 60.7255V60.7255Z" fill="#FF4000"/>
</svg>
