<svg width="114" height="114" viewBox="0 0 114 114" fill="none" xmlns="http://www.w3.org/2000/svg">
<circle cx="57" cy="57" r="57" fill="#143642"/>
<path d="M70.302 65.0235C60.8018 65.0235 51.2999 65.0235 41.7965 65.0235C41.4396 65.0235 41.0779 65.0069 40.7233 64.976C40.5204 64.9726 40.3263 64.8924 40.1808 64.752C40.0353 64.6115 39.9492 64.4212 39.94 64.2199C39.9041 63.9441 39.8706 63.6707 39.8322 63.3949C39.4681 60.8248 38.3183 58.7896 35.9229 57.5367C34.3814 56.7114 32.5992 56.4421 30.8801 56.7746C29.1609 57.1071 27.6111 58.0209 26.4945 59.3602C25.3375 60.7226 24.8992 62.3393 24.6021 64.0297C24.4393 64.9546 24.2165 65.0972 23.3086 64.9308C22.3265 64.7525 22.1253 64.5338 22.0917 63.5043C22.0486 62.1182 22.0247 60.7345 22.0007 59.3484C21.9887 58.7968 22.1229 58.2832 22.7193 58.1216C23.3158 57.9599 23.3805 57.589 23.4212 57.0612C23.4704 56.1131 23.6075 55.1716 23.8308 54.2485C24.7793 50.7662 26.0744 47.3862 27.697 44.1583C28.1138 43.3238 28.569 42.9862 29.5032 43.0004C32.2555 43.0504 35.0126 43.0004 37.7578 43.0004C43.1882 43.0242 48.6162 43.0004 54.0467 43.1217C57.4338 43.1906 60.8209 43.445 64.2057 43.6352C65.1323 43.6795 66.0143 44.0437 66.6993 44.6647C67.2047 45.1117 67.7701 45.4992 68.2419 45.9795C69.5043 47.2705 70.7164 48.5781 71.9525 49.8644C72.4315 50.3613 72.9418 50.7655 73.6772 50.832C75.5935 51.0032 77.4955 51.1435 79.3903 51.4098C82.43 51.8354 85.4698 52.2847 88.4929 52.8601C90.7997 53.2999 91.0727 53.7112 91.3338 56.0032C91.432 56.8567 91.3338 57.7625 92.0788 58.4283C92.1718 58.5588 92.2135 58.7186 92.1962 58.8776C92.1962 60.4206 92.2249 61.9684 92.1195 63.5043C92.0524 64.5124 91.6069 64.8666 90.5697 64.9784C89.9735 65.0232 89.3751 65.0311 88.7779 65.0021C87.4892 64.976 87.4125 64.9189 87.3407 63.6755C87.2571 61.7901 86.4242 60.0144 85.0243 58.7373C82.9858 56.8519 80.5664 56.1553 77.838 56.9043C75.0138 57.6746 73.1909 59.4649 72.4387 62.2656C72.2255 63.0597 72.1513 63.8918 71.9788 64.9118C71.3991 64.9522 70.8506 65.0212 70.302 65.0235ZM68.8025 49.6005C68.9502 49.563 69.0951 49.5154 69.2361 49.4578C69.1557 49.2101 69.0378 48.976 68.8863 48.7636C67.7964 47.6723 66.7017 46.5834 65.5639 45.542C65.2612 45.2896 64.8852 45.1397 64.4907 45.1141C61.2729 44.9159 58.0542 44.7455 54.8348 44.6029C54.0012 44.5672 53.855 44.8002 53.9868 45.611C54.2455 47.2087 54.5066 48.8087 54.7941 50.4017C54.9593 51.3147 55.0887 51.4549 56.0229 51.5572C57.0505 51.6713 58.0854 51.7331 59.1202 51.7593C61.1108 51.814 63.1014 51.8377 65.0944 51.8544C65.6429 51.8544 66.1939 51.7997 66.8143 51.7664C66.8933 49.8644 66.8933 49.8644 68.8025 49.6005ZM51.6848 51.6784C52.8154 51.6594 53.0286 51.4026 52.8825 50.309C52.7004 48.8587 52.5088 47.4108 52.2932 45.9652C52.1136 44.7598 51.9243 44.5934 50.6691 44.572C48.2146 44.5324 45.7513 44.5078 43.2793 44.4983C42.0815 44.4983 41.9785 44.5744 41.6025 45.7441C41.1976 46.9804 40.7736 48.2191 40.479 49.484C40.0502 51.3194 40.2586 51.5667 42.139 51.6238C43.6913 51.6642 45.2531 51.6238 46.7957 51.6238V51.6856C48.4246 51.6856 50.0535 51.707 51.6848 51.6784ZM29.7619 44.4555C29.072 44.4293 28.5642 44.6623 28.3246 45.2615C27.606 46.9709 26.8874 48.6851 26.2454 50.4255C25.9436 51.2481 26.3005 51.6975 27.2227 51.745C28.2144 51.7973 29.2133 51.7759 30.2074 51.745C31.5153 51.7117 32.8256 51.5881 34.1335 51.6047C35.3672 51.6214 36.1361 51.1292 36.6128 49.9928C37.1901 48.6138 37.8776 47.2824 38.5291 45.9296C38.9819 44.9785 38.6537 44.4222 37.5374 44.3913C36.1864 44.3532 34.833 44.3913 33.482 44.3913V44.4745C32.2268 44.4697 30.9931 44.5054 29.7619 44.4555Z" fill="#50B2C0"/>
<path d="M79.4698 59.0006C78.7483 58.9955 78.0329 59.1341 77.3656 59.4081C76.6983 59.6821 76.0923 60.0862 75.5831 60.5966C75.0739 61.1071 74.6717 61.7137 74.4 62.3811C74.1282 63.0484 73.9923 63.7632 74.0003 64.4835C73.9892 67.1906 76.445 70.0308 79.5143 69.9997C82.6502 69.962 85.046 67.1684 84.9993 64.326C84.969 62.8892 84.3704 61.5227 83.3344 60.5249C82.2984 59.5272 80.9091 58.9792 79.4698 59.0006V59.0006Z" fill="#FF4000"/>
<path d="M37.9878 64.3381C38.1537 61.3089 35.0005 58.8559 32.226 59.0066C29.2902 59.1684 26.7958 61.6347 27.0132 64.5464C27.2373 67.6066 29.4448 70.0286 32.6316 69.9997C35.5854 69.9798 38.2007 67.1922 37.9878 64.3381Z" fill="#FF4000"/>
</svg>
