<svg width="114" height="114" viewBox="0 0 114 114" fill="none" xmlns="http://www.w3.org/2000/svg">
<circle cx="57" cy="57" r="57" fill="#143642"/>
<path d="M25.6535 66.8749C25.3098 66.7355 25.0345 66.4669 24.8868 66.1267C24.4746 65.0962 24.4622 63.9812 24.5303 62.8786C24.5423 62.7077 24.6189 62.5478 24.7446 62.4314C25.2166 62.0625 25.2186 61.5575 25.2289 61.034C25.3299 55.9867 25.4783 50.9352 25.5216 45.8961C25.5401 43.6929 26.1873 43.3735 28.0648 43.3838C41.284 43.4648 54.5038 43.5335 67.7243 43.5899C68.6831 43.5755 69.6415 43.6347 70.5911 43.7671C72.8768 44.1402 74.6843 45.3685 75.9971 47.2296C76.941 48.5713 77.6912 50.049 78.5568 51.4463C78.7292 51.7703 78.9911 52.0378 79.3112 52.2171C80.1356 52.5655 80.9888 52.8148 81.8338 53.0951C83.7526 53.7299 85.6672 54.3791 87.6046 54.983C87.9575 55.0677 88.2726 55.2665 88.5011 55.5486C88.7295 55.8307 88.8584 56.1803 88.8679 56.5431C88.9009 56.8832 88.9236 57.2274 88.9256 57.5736C88.9256 58.6041 88.9256 59.6346 88.9256 60.6651C88.9256 61.1701 88.9813 61.609 89.5707 61.809C89.6722 61.8592 89.7603 61.9329 89.8277 62.0239C89.8951 62.1149 89.9398 62.2207 89.9582 62.3324C90.0303 63.635 90.0571 64.9396 89.6326 66.205C89.4697 66.6873 89.1812 67.0974 88.6989 67.2355C87.7663 67.4992 86.7821 67.5219 85.8383 67.3015C85.8875 66.9711 85.915 66.6379 85.9207 66.304C85.8754 65.4796 85.9207 64.6428 85.7146 63.8658C85.4781 62.985 85.0468 62.1685 84.4527 61.4766C83.8586 60.7846 83.1168 60.2348 82.2819 59.8677C81.4471 59.5006 80.5404 59.3256 79.6289 59.3555C78.7174 59.3855 77.8242 59.6196 77.0152 60.0406C74.4328 61.3782 73.1942 64.0328 73.7795 66.9635C73.8516 67.3159 73.897 67.6725 73.9712 68.1362C73.4064 68.1753 72.9716 68.231 72.5285 68.233C69.819 68.233 67.1088 68.233 64.3979 68.233L44.5177 68.2083C44.1384 68.2083 43.7613 68.2207 43.3841 68.2083C42.6051 68.1836 42.5144 68.064 42.6298 67.2582C42.6425 67.1564 42.6604 67.0552 42.6834 66.9552C43.1986 64.9334 42.6834 63.1548 41.3973 61.5637C40.6322 60.6003 39.5862 59.8989 38.4043 59.5569C37.2225 59.2149 35.9636 59.2493 34.8022 59.6552C32.4176 60.492 30.9152 62.1923 30.5998 64.7644C30.4968 65.6012 30.5834 66.4627 30.5834 67.4787C28.8583 67.4767 27.226 67.3777 25.6535 66.8749ZM76.2176 51.7843C76.3825 51.7843 76.5494 51.7843 76.8194 51.7843C76.7712 51.572 76.7022 51.3649 76.6133 51.166C75.8961 49.9583 75.2139 48.7258 74.4287 47.5634C73.289 45.8776 71.6402 45.0903 69.606 45.1109C68.5755 45.1109 67.545 45.08 66.5145 45.1109C65.6901 45.1294 65.5603 45.2943 65.6407 46.1249C65.787 47.6273 65.9333 49.1298 66.1271 50.6261C66.3084 52.0255 66.5805 52.2934 67.9819 52.5201C69.775 52.8128 71.5715 53.0876 73.3714 53.3445C73.801 53.3737 74.232 53.3737 74.6616 53.3445C74.5874 51.7143 74.5874 51.7143 76.2176 51.7843V51.7843Z" fill="#50B2C0"/>
<path d="M36.7108 60.9187C33.8254 60.8383 32.055 63.4248 32.0694 65.5394C32.09 68.466 34.7343 70.3333 36.7726 70.2797C39.2458 70.2261 41.3583 68.0538 41.3438 65.5229C41.3514 64.9138 41.2365 64.3093 41.006 63.7454C40.7755 63.1814 40.434 62.6696 40.0019 62.2401C39.5698 61.8107 39.0558 61.4724 38.4904 61.2454C37.9251 61.0184 37.3199 60.9073 36.7108 60.9187Z" fill="#FF4000"/>
<path d="M79.8197 60.9165C79.2109 60.9092 78.6066 61.0224 78.0416 61.2495C77.4767 61.4767 76.9623 61.8134 76.528 62.2402C76.0937 62.667 75.7482 63.1755 75.5113 63.7364C75.2743 64.2973 75.1507 64.8995 75.1475 65.5084C75.1475 68.0805 77.2826 70.2487 79.8176 70.2693C81.8786 70.2816 84.4281 68.3917 84.4549 65.5599C84.4775 63.2063 82.433 60.8444 79.8197 60.9165Z" fill="#FF4000"/>
</svg>
