<svg width="34" height="34" viewBox="0 0 34 34" fill="none" xmlns="http://www.w3.org/2000/svg">
<circle cx="17" cy="17" r="17" fill="#FF4000"/>
<path d="M20.6368 10.9391L17.0002 14.5756L13.3637 10.9391C12.9174 10.4928 12.1937 10.4928 11.7474 10.9391L10.9393 11.7472C10.4931 12.1934 10.4931 12.9172 10.9393 13.3635L14.5759 17L10.9393 20.6365C10.4931 21.0828 10.4931 21.8066 10.9393 22.2528L11.7474 23.0609C12.1937 23.5072 12.9174 23.5072 13.3637 23.0609L17.0002 19.4244L20.6368 23.0609C21.083 23.5072 21.8068 23.5072 22.253 23.0609L23.0611 22.2528C23.5074 21.8066 23.5074 21.0828 23.0611 20.6365L19.4246 17L23.0611 13.3635C23.5074 12.9172 23.5074 12.1934 23.0611 11.7472L22.253 10.9391C21.8068 10.4928 21.083 10.4928 20.6368 10.9391Z" fill="#FEEFDD"/>
</svg>
