<svg width="39" height="20" viewBox="0 0 39 20" fill="none" xmlns="http://www.w3.org/2000/svg">
<path d="M38.379 4.01937L25.3504 8L22.2736 6.4225C21.7321 6.14488 21.135 6.00024 20.5296 6H17.0628V3H20.4753C21.014 3 21.4503 2.5525 21.4503 2V1C21.4503 0.4475 21.014 0 20.4753 0H10.7252C10.1865 0 9.75015 0.4475 9.75015 1V2C9.75015 2.5525 10.1865 3 10.7252 3H14.1377V6H10.7252L2.2986 4.42875C2.18222 4.40672 2.06411 4.39563 1.94576 4.39563C0.893967 4.39563 0 5.2725 0 6.39625V12.3306C0 13.2969 0.673979 14.1256 1.60146 14.2981L5.85009 15.0912V18C5.85009 19.1044 6.72334 20 7.80012 20H24.5356C25.0567 20 25.5564 19.7862 25.9226 19.4056L38.8574 5.98375C38.9488 5.89 39 5.7625 39 5.63V4.5C39.0006 4.16813 38.6904 3.92812 38.379 4.01937ZM5.85009 12.0419L2.92505 11.4963V7.59437L5.85009 8.14V12.0419V12.0419ZM33.4753 17.3331C33.4753 18.8056 34.6392 20 36.0756 20C37.5119 20 38.6758 18.8062 38.6758 17.3331C38.6758 15.86 36.0756 12 36.0756 12C36.0756 12 33.4753 15.8606 33.4753 17.3331V17.3331Z" fill="#FF4000"/>
</svg>
