<svg width="34" height="34" viewBox="0 0 34 34" fill="none" xmlns="http://www.w3.org/2000/svg">
<circle cx="17" cy="17" r="17" fill="#0F4457"/>
<path d="M23.8571 15.2857H18.7143V10.1429C18.7143 9.51179 18.2025 9 17.5714 9H16.4286C15.7975 9 15.2857 9.51179 15.2857 10.1429V15.2857H10.1429C9.51179 15.2857 9 15.7975 9 16.4286V17.5714C9 18.2025 9.51179 18.7143 10.1429 18.7143H15.2857V23.8571C15.2857 24.4882 15.7975 25 16.4286 25H17.5714C18.2025 25 18.7143 24.4882 18.7143 23.8571V18.7143H23.8571C24.4882 18.7143 25 18.2025 25 17.5714V16.4286C25 15.7975 24.4882 15.2857 23.8571 15.2857Z" fill="#50B2C0"/>
</svg>
