<svg width="40" height="40" viewBox="0 0 40 40" fill="none" xmlns="http://www.w3.org/2000/svg">
<circle cx="20" cy="20" r="18" stroke="#FEEFDD" stroke-width="4"/>
<path d="M20.0001 12.5714C15.2662 12.5714 11.4287 16.1896 11.4287 20.653C11.4287 22.1347 11.8528 23.5226 12.5912 24.7163C12.7582 24.9863 13.0763 25.1428 13.4079 25.1428H26.5924C26.924 25.1428 27.2421 24.9863 27.4091 24.7163C28.1475 23.5226 28.5716 22.1347 28.5716 20.653C28.5716 16.1896 24.7341 12.5714 20.0001 12.5714ZM20.0001 14.3673C20.4379 14.3673 20.7912 14.6516 20.9025 15.031C20.8695 15.0944 20.8239 15.1497 20.7998 15.2181L20.5254 15.9946C20.3728 16.0925 20.1989 16.1632 20.0004 16.1632C19.4745 16.1632 19.0481 15.7611 19.0481 15.2653C19.0481 14.7694 19.4742 14.3673 20.0001 14.3673ZM14.2859 22.449C13.76 22.449 13.3335 22.0468 13.3335 21.551C13.3335 21.0552 13.76 20.653 14.2859 20.653C14.8117 20.653 15.2382 21.0552 15.2382 21.551C15.2382 22.0468 14.8117 22.449 14.2859 22.449ZM15.7144 17.9592C15.1885 17.9592 14.762 17.557 14.762 17.0612C14.762 16.5654 15.1885 16.1632 15.7144 16.1632C16.2403 16.1632 16.6668 16.5654 16.6668 17.0612C16.6668 17.557 16.2403 17.9592 15.7144 17.9592ZM23.0588 15.9273L21.2335 21.0905C21.6409 21.42 21.9049 21.9029 21.9049 22.449C21.9049 22.7778 21.8043 23.0817 21.6406 23.3469H18.3597C18.196 23.0817 18.0954 22.7778 18.0954 22.449C18.0954 21.4966 18.8841 20.7252 19.8781 20.6645L21.7037 15.501C21.8278 15.1486 22.2314 14.9552 22.6073 15.0753C22.9814 15.1929 23.1832 15.5745 23.0588 15.9273V15.9273ZM23.4951 17.5324L23.957 16.2261C24.0603 16.1899 24.1692 16.1635 24.2859 16.1635C24.8117 16.1635 25.2382 16.5656 25.2382 17.0615C25.2382 17.5573 24.8117 17.9594 24.2859 17.9594C23.9472 17.9592 23.6641 17.7832 23.4951 17.5324ZM25.7144 22.449C25.1885 22.449 24.762 22.0468 24.762 21.551C24.762 21.0552 25.1885 20.653 25.7144 20.653C26.2403 20.653 26.6668 21.0552 26.6668 21.551C26.6668 22.0468 26.2403 22.449 25.7144 22.449Z" fill="#FEEFDD"/>
</svg>
