<svg width="40" height="40" viewBox="0 0 40 40" fill="none" xmlns="http://www.w3.org/2000/svg">
<circle cx="20" cy="20" r="18" stroke="#FEEFDD" stroke-width="4"/>
<path d="M29.4049 16.8528L22.9144 18.8292L21.3817 18.046C21.1119 17.9082 20.8144 17.8363 20.5128 17.8362H18.7858V16.3467H20.4858C20.7542 16.3467 20.9715 16.1245 20.9715 15.8502V15.3537C20.9715 15.0794 20.7542 14.8572 20.4858 14.8572H15.6286C15.3602 14.8572 15.1429 15.0794 15.1429 15.3537V15.8502C15.1429 16.1245 15.3602 16.3467 15.6286 16.3467H17.3286V17.8362H15.6286L11.4307 17.0561C11.3728 17.0451 11.3139 17.0396 11.255 17.0396C10.731 17.0396 10.2856 17.475 10.2856 18.033V20.9794C10.2856 21.4592 10.6214 21.8707 11.0834 21.9563L13.2 22.3501V23.7943C13.2 24.3427 13.635 24.7873 14.1714 24.7873H22.5085C22.7681 24.7873 23.017 24.6812 23.1995 24.4922L29.6432 17.8282C29.6887 17.7816 29.7142 17.7183 29.7142 17.6525V17.0915C29.7145 16.9267 29.56 16.8075 29.4049 16.8528ZM13.2 20.8361L11.7428 20.5652V18.6278L13.2 18.8988V20.8361V20.8361ZM26.962 23.4632C26.962 24.1943 27.5418 24.7873 28.2574 24.7873C28.9729 24.7873 29.5527 24.1946 29.5527 23.4632C29.5527 22.7318 28.2574 20.8153 28.2574 20.8153C28.2574 20.8153 26.962 22.7321 26.962 23.4632V23.4632Z" fill="#FEEFDD"/>
</svg>
