<svg width="40" height="40" viewBox="0 0 40 40" fill="none" xmlns="http://www.w3.org/2000/svg">
<circle cx="20" cy="20" r="18" stroke="#FEEFDD" stroke-width="4"/>
<path d="M22.8574 25.7142C22.8574 27.2896 21.5756 28.5714 20.0002 28.5714C18.4248 28.5714 17.1431 27.2896 17.1431 25.7142C17.1431 24.1388 18.4248 22.8571 20.0002 22.8571C21.5756 22.8571 22.8574 24.1388 22.8574 25.7142ZM17.4738 11.1856L17.9595 20.8999C17.9823 21.3561 18.3588 21.7142 18.8156 21.7142H21.1849C21.6416 21.7142 22.0181 21.3561 22.0409 20.8999L22.5266 11.1856C22.5511 10.696 22.1608 10.2856 21.6706 10.2856H18.3299C17.8396 10.2856 17.4493 10.696 17.4738 11.1856Z" fill="#FEEFDD"/>
</svg>
