<svg width="35" height="35" viewBox="0 0 35 35" fill="none" xmlns="http://www.w3.org/2000/svg">
<circle cx="17.5" cy="17.5" r="16.5" stroke="#FF4000" stroke-width="2"/>
<path d="M25.7293 14.7462L20.0502 16.4756L18.709 15.7902C18.473 15.6696 18.2127 15.6068 17.9488 15.6067H16.4376V14.3033H17.9251C18.16 14.3033 18.3501 14.1089 18.3501 13.8689V13.4344C18.3501 13.1944 18.16 13 17.9251 13H13.6751C13.4403 13 13.2501 13.1944 13.2501 13.4344V13.8689C13.2501 14.1089 13.4403 14.3033 13.6751 14.3033H15.1626V15.6067H13.6751L10.002 14.924C9.95122 14.9145 9.89974 14.9097 9.84815 14.9097C9.38968 14.9097 9 15.2906 9 15.7788V18.357C9 18.7768 9.29379 19.1368 9.69807 19.2117L11.55 19.5563V20.82C11.55 21.2998 11.9307 21.6889 12.4001 21.6889H19.695C19.9221 21.6889 20.14 21.596 20.2996 21.4307L25.9378 15.5996C25.9777 15.5589 26 15.5035 26 15.4459V14.955C26.0003 14.8108 25.8651 14.7066 25.7293 14.7462ZM11.55 18.2315L10.275 17.9945V16.2993L11.55 16.5364V18.2315ZM23.5918 20.5303C23.5918 21.17 24.0992 21.6889 24.7252 21.6889C25.3513 21.6889 25.8587 21.1703 25.8587 20.5303C25.8587 19.8903 24.7252 18.2133 24.7252 18.2133C24.7252 18.2133 23.5918 19.8906 23.5918 20.5303Z" fill="#FF4000"/>
</svg>
