<svg width="35" height="35" viewBox="0 0 35 35" fill="none" xmlns="http://www.w3.org/2000/svg">
<circle cx="17.5" cy="17.5" r="16.5" stroke="#FF4000" stroke-width="2"/>
<path d="M20 22.5C20 23.8785 18.8785 25 17.5 25C16.1215 25 15 23.8785 15 22.5C15 21.1215 16.1215 20 17.5 20C18.8785 20 20 21.1215 20 22.5ZM15.2894 9.78747L15.7144 18.2875C15.7343 18.6866 16.0638 19 16.4634 19H18.5366C18.9362 19 19.2657 18.6866 19.2856 18.2875L19.7106 9.78747C19.732 9.35906 19.3905 9 18.9616 9H16.0384C15.6095 9 15.268 9.35906 15.2894 9.78747Z" fill="#FF4000"/>
</svg>
